  0
SECTION
  2
HEADER
  9
$ACADVER
  1
AC1027
  9
$ACADMAINTVER
 70
105
  9
$DWGCODEPAGE
  3
ANSI_1252
  9
$LASTSAVEDBY
  1
ezdxf
  9
$REQUIREDVERSIONS
160
0
  9
$INSBASE
 10
0.0
 20
0.0
 30
0.0
  9
$EXTMIN
 10
1e+20
 20
1e+20
 30
1e+20
  9
$EXTMAX
 10
-1e+20
 20
-1e+20
 30
-1e+20
  9
$LIMMIN
 10
0.0
 20
0.0
  9
$LIMMAX
 10
420.0
 20
297.0
  9
$ORTHOMODE
 70
0
  9
$REGENMODE
 70
1
  9
$FILLMODE
 70
1
  9
$QTEXTMODE
 70
0
  9
$MIRRTEXT
 70
1
  9
$LTSCALE
 40
1.0
  9
$ATTMODE
 70
1
  9
$TEXTSIZE
 40
2.5
  9
$TRACEWID
 40
1.0
  9
$TEXTSTYLE
  7
Standard
  9
$CLAYER
  8
0
  9
$CELTYPE
  6
ByLayer
  9
$CECOLOR
 62
256
  9
$CELTSCALE
 40
1.0
  9
$DISPSILH
 70
0
  9
$DIMSCALE
 40
1.0
  9
$DIMASZ
 40
2.5
  9
$DIMEXO
 40
0.625
  9
$DIMDLI
 40
3.75
  9
$DIMRND
 40
0.0
  9
$DIMDLE
 40
0.0
  9
$DIMEXE
 40
1.25
  9
$DIMTP
 40
0.0
  9
$DIMTM
 40
0.0
  9
$DIMTXT
 40
2.5
  9
$DIMCEN
 40
2.5
  9
$DIMTSZ
 40
0.0
  9
$DIMTOL
 70
0
  9
$DIMLIM
 70
0
  9
$DIMTIH
 70
0
  9
$DIMTOH
 70
0
  9
$DIMSE1
 70
0
  9
$DIMSE2
 70
0
  9
$DIMTAD
 70
1
  9
$DIMZIN
 70
8
  9
$DIMBLK
  1

  9
$DIMASO
 70
1
  9
$DIMSHO
 70
1
  9
$DIMPOST
  1

  9
$DIMAPOST
  1

  9
$DIMALT
 70
0
  9
$DIMALTD
 70
3
  9
$DIMALTF
 40
0.03937007874
  9
$DIMLFAC
 40
1.0
  9
$DIMTOFL
 70
1
  9
$DIMTVP
 40
0.0
  9
$DIMTIX
 70
0
  9
$DIMSOXD
 70
0
  9
$DIMSAH
 70
0
  9
$DIMBLK1
  1

  9
$DIMBLK2
  1

  9
$DIMSTYLE
  2
ISO-25
  9
$DIMCLRD
 70
0
  9
$DIMCLRE
 70
0
  9
$DIMCLRT
 70
0
  9
$DIMTFAC
 40
1.0
  9
$DIMGAP
 40
0.625
  9
$DIMJUST
 70
0
  9
$DIMSD1
 70
0
  9
$DIMSD2
 70
0
  9
$DIMTOLJ
 70
0
  9
$DIMTZIN
 70
8
  9
$DIMALTZ
 70
0
  9
$DIMALTTZ
 70
0
  9
$DIMUPT
 70
0
  9
$DIMDEC
 70
2
  9
$DIMTDEC
 70
2
  9
$DIMALTU
 70
2
  9
$DIMALTTD
 70
3
  9
$DIMTXSTY
  7
Standard
  9
$DIMAUNIT
 70
0
  9
$DIMADEC
 70
0
  9
$DIMALTRND
 40
0.0
  9
$DIMAZIN
 70
0
  9
$DIMDSEP
 70
44
  9
$DIMATFIT
 70
3
  9
$DIMFRAC
 70
0
  9
$DIMLDRBLK
  1

  9
$DIMLUNIT
 70
2
  9
$DIMLWD
 70
-2
  9
$DIMLWE
 70
-2
  9
$DIMTMOVE
 70
0
  9
$DIMFXL
 40
1.0
  9
$DIMFXLON
 70
0
  9
$DIMJOGANG
 40
0.785398163397
  9
$DIMTFILL
 70
0
  9
$DIMTFILLCLR
 70
0
  9
$DIMARCSYM
 70
0
  9
$DIMLTYPE
  6

  9
$DIMLTEX1
  6

  9
$DIMLTEX2
  6

  9
$DIMTXTDIRECTION
 70
0
  9
$LUNITS
 70
2
  9
$LUPREC
 70
4
  9
$SKETCHINC
 40
1.0
  9
$FILLETRAD
 40
10.0
  9
$AUNITS
 70
0
  9
$AUPREC
 70
2
  9
$MENU
  1
.
  9
$ELEVATION
 40
0.0
  9
$PELEVATION
 40
0.0
  9
$THICKNESS
 40
0.0
  9
$LIMCHECK
 70
0
  9
$CHAMFERA
 40
0.0
  9
$CHAMFERB
 40
0.0
  9
$CHAMFERC
 40
0.0
  9
$CHAMFERD
 40
0.0
  9
$SKPOLY
 70
0
  9
$TDCREATE
 40
2459836.742534722
  9
$TDUCREATE
 40
2458532.153996898
  9
$TDUPDATE
 40
2459836.742534722
  9
$TDUUPDATE
 40
2458532.1544311
  9
$TDINDWG
 40
0.0
  9
$TDUSRTIMER
 40
0.0
  9
$USRTIMER
 70
1
  9
$ANGBASE
 50
0.0
  9
$ANGDIR
 70
0
  9
$PDMODE
 70
0
  9
$PDSIZE
 40
0.0
  9
$PLINEWID
 40
0.0
  9
$SPLFRAME
 70
0
  9
$SPLINETYPE
 70
6
  9
$SPLINESEGS
 70
8
  9
$HANDSEED
  5
AC
  9
$SURFTAB1
 70
6
  9
$SURFTAB2
 70
6
  9
$SURFTYPE
 70
6
  9
$SURFU
 70
6
  9
$SURFV
 70
6
  9
$UCSBASE
  2

  9
$UCSNAME
  2

  9
$UCSORG
 10
0.0
 20
0.0
 30
0.0
  9
$UCSXDIR
 10
1.0
 20
0.0
 30
0.0
  9
$UCSYDIR
 10
0.0
 20
1.0
 30
0.0
  9
$UCSORTHOREF
  2

  9
$UCSORTHOVIEW
 70
0
  9
$UCSORGTOP
 10
0.0
 20
0.0
 30
0.0
  9
$UCSORGBOTTOM
 10
0.0
 20
0.0
 30
0.0
  9
$UCSORGLEFT
 10
0.0
 20
0.0
 30
0.0
  9
$UCSORGRIGHT
 10
0.0
 20
0.0
 30
0.0
  9
$UCSORGFRONT
 10
0.0
 20
0.0
 30
0.0
  9
$UCSORGBACK
 10
0.0
 20
0.0
 30
0.0
  9
$PUCSBASE
  2

  9
$PUCSNAME
  2

  9
$PUCSORG
 10
0.0
 20
0.0
 30
0.0
  9
$PUCSXDIR
 10
1.0
 20
0.0
 30
0.0
  9
$PUCSYDIR
 10
0.0
 20
1.0
 30
0.0
  9
$PUCSORTHOREF
  2

  9
$PUCSORTHOVIEW
 70
0
  9
$PUCSORGTOP
 10
0.0
 20
0.0
 30
0.0
  9
$PUCSORGBOTTOM
 10
0.0
 20
0.0
 30
0.0
  9
$PUCSORGLEFT
 10
0.0
 20
0.0
 30
0.0
  9
$PUCSORGRIGHT
 10
0.0
 20
0.0
 30
0.0
  9
$PUCSORGFRONT
 10
0.0
 20
0.0
 30
0.0
  9
$PUCSORGBACK
 10
0.0
 20
0.0
 30
0.0
  9
$USERI1
 70
0
  9
$USERI2
 70
0
  9
$USERI3
 70
0
  9
$USERI4
 70
0
  9
$USERI5
 70
0
  9
$USERR1
 40
0.0
  9
$USERR2
 40
0.0
  9
$USERR3
 40
0.0
  9
$USERR4
 40
0.0
  9
$USERR5
 40
0.0
  9
$WORLDVIEW
 70
1
  9
$SHADEDGE
 70
3
  9
$SHADEDIF
 70
70
  9
$TILEMODE
 70
1
  9
$MAXACTVP
 70
64
  9
$PINSBASE
 10
0.0
 20
0.0
 30
0.0
  9
$PLIMCHECK
 70
0
  9
$PEXTMIN
 10
1e+20
 20
1e+20
 30
1e+20
  9
$PEXTMAX
 10
-1e+20
 20
-1e+20
 30
-1e+20
  9
$PLIMMIN
 10
0.0
 20
0.0
  9
$PLIMMAX
 10
420.0
 20
297.0
  9
$UNITMODE
 70
0
  9
$VISRETAIN
 70
1
  9
$PLINEGEN
 70
0
  9
$PSLTSCALE
 70
1
  9
$TREEDEPTH
 70
3020
  9
$CMLSTYLE
  2
Standard
  9
$CMLJUST
 70
0
  9
$CMLSCALE
 40
20.0
  9
$PROXYGRAPHICS
 70
1
  9
$MEASUREMENT
 70
1
  9
$CELWEIGHT
370
-1
  9
$ENDCAPS
280
0
  9
$JOINSTYLE
280
0
  9
$LWDISPLAY
290
0
  9
$INSUNITS
 70
6
  9
$HYPERLINKBASE
  1

  9
$STYLESHEET
  1

  9
$XEDIT
290
1
  9
$CEPSNTYPE
380
0
  9
$PSTYLEMODE
290
1
  9
$FINGERPRINTGUID
  2
{60E064AE-27EA-4403-BD95-3835B91D47B0}
  9
$VERSIONGUID
  2
{8E2BF522-5637-445B-836C-E0099942614B}
  9
$EXTNAMES
290
1
  9
$PSVPSCALE
 40
0.0
  9
$OLESTARTUP
290
0
  9
$SORTENTS
280
127
  9
$INDEXCTL
280
0
  9
$HIDETEXT
280
1
  9
$XCLIPFRAME
280
0
  9
$HALOGAP
280
0
  9
$OBSCOLOR
 70
257
  9
$OBSLTYPE
280
0
  9
$INTERSECTIONDISPLAY
280
0
  9
$INTERSECTIONCOLOR
 70
257
  9
$DIMASSOC
280
2
  9
$PROJECTNAME
  1

  9
$CAMERADISPLAY
290
0
  9
$LENSLENGTH
 40
50.0
  9
$CAMERAHEIGHT
 40
0.0
  9
$STEPSPERSEC
 40
24.0
  9
$STEPSIZE
 40
100.0
  9
$3DDWFPREC
 40
2.0
  9
$PSOLWIDTH
 40
0.005
  9
$PSOLHEIGHT
 40
0.08
  9
$LOFTANG1
 40
1.570796326795
  9
$LOFTANG2
 40
1.570796326795
  9
$LOFTMAG1
 40
0.0
  9
$LOFTMAG2
 40
0.0
  9
$LOFTPARAM
 70
7
  9
$LOFTNORMALS
280
1
  9
$LATITUDE
 40
37.795
  9
$LONGITUDE
 40
-122.394
  9
$NORTHDIRECTION
 40
0.0
  9
$TIMEZONE
 70
-8000
  9
$LIGHTGLYPHDISPLAY
280
1
  9
$TILEMODELIGHTSYNCH
280
1
  9
$CMATERIAL
347
20
  9
$SOLIDHIST
280
0
  9
$SHOWHIST
280
1
  9
$DWFFRAME
280
2
  9
$DGNFRAME
280
2
  9
$REALWORLDSCALE
290
1
  9
$INTERFERECOLOR
 62
256
  9
$CSHADOW
280
0
  9
$SHADOWPLANELOCATION
 40
0.0
  0
ENDSEC
  0
SECTION
  2
CLASSES
  0
CLASS
  1
ACDBDICTIONARYWDFLT
  2
AcDbDictionaryWithDefault
  3
ObjectDBX Classes
 90
0
 91
0
280
0
281
0
  0
CLASS
  1
SUN
  2
AcDbSun
  3
SCENEOE
 90
1153
 91
0
280
0
281
0
  0
CLASS
  1
VISUALSTYLE
  2
AcDbVisualStyle
  3
ObjectDBX Classes
 90
4095
 91
0
280
0
281
0
  0
CLASS
  1
MATERIAL
  2
AcDbMaterial
  3
ObjectDBX Classes
 90
1153
 91
0
280
0
281
0
  0
CLASS
  1
SCALE
  2
AcDbScale
  3
ObjectDBX Classes
 90
1153
 91
0
280
0
281
0
  0
CLASS
  1
TABLESTYLE
  2
AcDbTableStyle
  3
ObjectDBX Classes
 90
4095
 91
0
280
0
281
0
  0
CLASS
  1
MLEADERSTYLE
  2
AcDbMLeaderStyle
  3
ACDB_MLEADERSTYLE_CLASS
 90
4095
 91
0
280
0
281
0
  0
CLASS
  1
DICTIONARYVAR
  2
AcDbDictionaryVar
  3
ObjectDBX Classes
 90
0
 91
0
280
0
281
0
  0
CLASS
  1
CELLSTYLEMAP
  2
AcDbCellStyleMap
  3
ObjectDBX Classes
 90
1152
 91
0
280
0
281
0
  0
CLASS
  1
MENTALRAYRENDERSETTINGS
  2
AcDbMentalRayRenderSettings
  3
SCENEOE
 90
1024
 91
0
280
0
281
0
  0
CLASS
  1
ACDBDETAILVIEWSTYLE
  2
AcDbDetailViewStyle
  3
ObjectDBX Classes
 90
1025
 91
0
280
0
281
0
  0
CLASS
  1
ACDBSECTIONVIEWSTYLE
  2
AcDbSectionViewStyle
  3
ObjectDBX Classes
 90
1025
 91
0
280
0
281
0
  0
CLASS
  1
RASTERVARIABLES
  2
AcDbRasterVariables
  3
ISM
 90
0
 91
0
280
0
281
0
  0
CLASS
  1
ACDBPLACEHOLDER
  2
AcDbPlaceHolder
  3
ObjectDBX Classes
 90
0
 91
0
280
0
281
0
  0
CLASS
  1
LAYOUT
  2
AcDbLayout
  3
ObjectDBX Classes
 90
0
 91
0
280
0
281
0
  0
ENDSEC
  0
SECTION
  2
TABLES
  0
TABLE
  2
VPORT
  5
8
330
0
100
AcDbSymbolTable
 70
1
  0
VPORT
  5
23
330
8
100
AcDbSymbolTableRecord
100
AcDbViewportTableRecord
  2
*Active
 70
0
 10
0.0
 20
0.0
 11
1.0
 21
1.0
 12
0.0
 22
0.0
 13
0.0
 23
0.0
 14
0.5
 24
0.5
 15
0.5
 25
0.5
 16
0.0
 26
0.0
 36
1.0
 17
0.0
 27
0.0
 37
0.0
 40
1000.0
 41
1.34
 42
50.0
 43
0.0
 44
0.0
 50
0.0
 51
0.0
 71
0
 72
1000
 73
1
 74
3
 75
0
 76
0
 77
0
 78
0
281
0
 65
0
146
0.0
  0
ENDTAB
  0
TABLE
  2
LTYPE
  5
2
330
0
100
AcDbSymbolTable
 70
3
  0
LTYPE
  5
24
330
2
100
AcDbSymbolTableRecord
100
AcDbLinetypeTableRecord
  2
ByBlock
 70
0
  3

 72
65
 73
0
 40
0.0
  0
LTYPE
  5
25
330
2
100
AcDbSymbolTableRecord
100
AcDbLinetypeTableRecord
  2
ByLayer
 70
0
  3

 72
65
 73
0
 40
0.0
  0
LTYPE
  5
26
330
2
100
AcDbSymbolTableRecord
100
AcDbLinetypeTableRecord
  2
Continuous
 70
0
  3

 72
65
 73
0
 40
0.0
  0
ENDTAB
  0
TABLE
  2
LAYER
  5
1
330
0
100
AcDbSymbolTable
 70
2
  0
LAYER
  5
27
330
1
100
AcDbSymbolTableRecord
100
AcDbLayerTableRecord
  2
0
 70
0
 62
7
  6
Continuous
370
-3
390
13
347
21
  0
LAYER
  5
28
330
1
100
AcDbSymbolTableRecord
100
AcDbLayerTableRecord
  2
Defpoints
 70
0
 62
7
  6
Continuous
290
0
370
-3
390
13
347
21
  0
ENDTAB
  0
TABLE
  2
STYLE
  5
5
330
0
100
AcDbSymbolTable
 70
1
  0
STYLE
  5
29
330
5
100
AcDbSymbolTableRecord
100
AcDbTextStyleTableRecord
  2
Standard
 70
0
 40
0.0
 41
1.0
 50
0.0
 71
0
 42
2.5
  3
txt
  4

  0
ENDTAB
  0
TABLE
  2
VIEW
  5
7
330
0
100
AcDbSymbolTable
 70
0
  0
ENDTAB
  0
TABLE
  2
UCS
  5
6
330
0
100
AcDbSymbolTable
 70
0
  0
ENDTAB
  0
TABLE
  2
APPID
  5
3
330
0
100
AcDbSymbolTable
 70
3
  0
APPID
  5
2A
330
3
100
AcDbSymbolTableRecord
100
AcDbRegAppTableRecord
  2
ACAD
 70
0
  0
APPID
  5
A9
330
3
100
AcDbSymbolTableRecord
100
AcDbRegAppTableRecord
  2
HATCHBACKGROUNDCOLOR
 70
0
  0
APPID
  5
AA
330
3
100
AcDbSymbolTableRecord
100
AcDbRegAppTableRecord
  2
EZDXF
 70
0
  0
ENDTAB
  0
TABLE
  2
DIMSTYLE
  5
4
330
0
100
AcDbSymbolTable
 70
1
100
AcDbDimStyleTable
  0
DIMSTYLE
105
2B
330
4
100
AcDbSymbolTableRecord
100
AcDbDimStyleTableRecord
  2
Standard
 70
0
 40
1.0
 41
2.5
 42
0.625
 43
3.75
 44
1.25
 45
0.0
 46
0.0
 47
0.0
 48
0.0
 49
2.5
140
2.5
141
2.5
142
0.0
143
0.03937007874
144
1.0
145
0.0
146
1.0
147
0.625
148
0.0
 69
0
 70
0
 71
0
 72
0
 73
0
 74
0
 75
0
 76
0
 77
1
 78
8
 79
3
170
0
171
3
172
1
173
0
174
0
175
0
176
0
177
0
178
0
179
2
271
2
272
2
273
2
274
3
275
0
276
0
277
2
278
44
279
0
280
0
281
0
282
0
283
0
284
8
285
0
286
0
288
0
289
3
290
0
371
-2
372
-2
  0
ENDTAB
  0
TABLE
  2
BLOCK_RECORD
  5
9
330
0
100
AcDbSymbolTable
 70
2
  0
BLOCK_RECORD
  5
17
330
9
100
AcDbSymbolTableRecord
100
AcDbBlockTableRecord
  2
*Model_Space
340
1A
 70
0
280
1
281
0
  0
BLOCK_RECORD
  5
1B
330
9
100
AcDbSymbolTableRecord
100
AcDbBlockTableRecord
  2
*Paper_Space
340
1E
 70
0
280
1
281
0
  0
ENDTAB
  0
ENDSEC
  0
SECTION
  2
BLOCKS
  0
BLOCK
  5
18
330
17
100
AcDbEntity
  8
0
100
AcDbBlockBegin
  2
*Model_Space
 70
0
 10
0.0
 20
0.0
 30
0.0
  3
*Model_Space
  1

  0
ENDBLK
  5
19
330
17
100
AcDbEntity
  8
0
100
AcDbBlockEnd
  0
BLOCK
  5
1C
330
1B
100
AcDbEntity
  8
0
100
AcDbBlockBegin
  2
*Paper_Space
 70
0
 10
0.0
 20
0.0
 30
0.0
  3
*Paper_Space
  1

  0
ENDBLK
  5
1D
330
1B
100
AcDbEntity
  8
0
100
AcDbBlockEnd
  0
ENDSEC
  0
SECTION
  2
ENTITIES
  0
LWPOLYLINE
  5
2F
330
17
100
AcDbEntity
  8
0
100
AcDbPolyline
 90
5
 70
0
 10
97469.436944591
 20
107386.227076917
 10
97544.1270648458
 20
107429.332966155
 10
97585.8231053897
 20
107357.662847889
 10
97510.862973589
 20
107314.136979519
 10
97469.436944591
 20
107386.227076917
  0
LWPOLYLINE
  5
30
330
17
100
AcDbEntity
  8
0
100
AcDbPolyline
 90
20
 70
0
 10
97503.7570000002
 20
107326.083
 10
97508.7350000008
 20
107328.937999999
 10
97513.1619999997
 20
107331.476
 10
97513.5829999998
 20
107330.752
 10
97514.6080000003
 20
107328.989
 10
97514.6600000005
 20
107328.898999999
 10
97515.1109999996
 20
107328.124
 10
97516.7860000009
 20
107325.243
 10
97517.6250000005
 20
107323.801000001
 10
97518.3930000002
 20
107322.479
 10
97520.0460000001
 20
107319.637
 10
97517.4589999994
 20
107318.128999999
 10
97514.9840000002
 20
107316.686999998
 10
97514.2000000007
 20
107316.230000002
 10
97511.8109999993
 20
107316.85
 10
97508.5699999999
 20
107317.690000001
 10
97506.7290000003
 20
107320.901
 10
97506.4800000005
 20
107321.335000001
 10
97505.9340000003
 20
107322.286999999
 10
97503.7570000002
 20
107326.083
  0
LWPOLYLINE
  5
31
330
17
100
AcDbEntity
  8
0
100
AcDbPolyline
 90
24
 70
0
 10
97538.0941162109
 20
107372.669128419
 10
97540.2640991215
 20
107373.923095702
 10
97543.172119141
 20
107375.603088378
 10
97543.9750976561
 20
107376.067077637
 10
97548.4630737308
 20
107378.659118653
 10
97552.5261230467
 20
107381.006103514
 10
97556.8441162106
 20
107383.501098633
 10
97558.4080810552
 20
107384.404113769
 10
97567.2691040045
 20
107389.523071289
 10
97567.7109999998
 20
107388.757000001
 10
97571.153
 20
107382.799
 10
97571.6590000002
 20
107381.923
 10
97566.8598000002
 20
107379.1508
 10
97566.2659999999
 20
107378.808
 10
97562.7970000008
 20
107376.804
 10
97561.2340000004
 20
107375.901
 10
97556.9170000005
 20
107373.408
 10
97548.365
 20
107368.468000001
 10
97547.5609999997
 20
107368.003
 10
97545.9325999996
 20
107367.062599999
 10
97544.6529999998
 20
107366.323999998
 10
97542.4830502929
 20
107365.069997071
 10
97539.4951171872
 20
107370.24407959
 10
97538.0941162109
 20
107372.669128419
  0
LWPOLYLINE
  5
32
330
17
100
AcDbEntity
  8
0
100
AcDbPolyline
 90
29
 70
0
 10
97495.9879999999
 20
107401.736999998
 10
97498.7939999999
 20
107403.358999999
 10
97503.4619999998
 20
107406.056000001
 10
97506.2750000004
 20
107401.159
 10
97508.1090000008
 20
107397.968
 10
97508.3620000001
 20
107397.527999999
 10
97510.3409999999
 20
107394.083
 10
97510.9109999999
 20
107393.090000001
 10
97511.4469999994
 20
107392.158000001
 10
97512.1160000004
 20
107390.993999999
 10
97512.4859999999
 20
107390.35
 10
97512.6330000009
 20
107390.093
 10
97512.8879999985
 20
107389.65
 10
97513.405
 20
107388.749999999
 10
97514.5291137699
 20
107386.793090821
 10
97510.9360961909
 20
107384.732116698
 10
97509.3079916993
 20
107383.798802734
 10
97507.4353027341
 20
107382.724670409
 10
97507.0891113265
 20
107382.526123046
 10
97505.5911254885
 20
107385.118103028
 10
97505.4910888668
 20
107385.29107666
 10
97505.366088867
 20
107385.508117677
 10
97503.913
 20
107388.021999999
 10
97503.4910000002
 20
107388.752999999
 10
97502.7400000008
 20
107390.052
 10
97500.6560000001
 20
107393.657999998
 10
97499.2829999998
 20
107396.035
 10
97498.7140000001
 20
107397.019000001
 10
97495.9879999999
 20
107401.736999998
  0
LWPOLYLINE
  5
33
330
17
100
AcDbEntity
  8
0
100
AcDbPolyline
 90
14
 70
0
 10
97570.5609999993
 20
107361.471000002
 10
97572.3499999994
 20
107358.394999998
 10
97572.9019999998
 20
107357.445
 10
97573.8080000002
 20
107355.886999999
 10
97574.1679999995
 20
107355.268
 10
97575.978
 20
107352.156
 10
97567.3949999994
 20
107347.165000001
 10
97566.6560000006
 20
107348.435
 10
97566.255
 20
107349.124999999
 10
97564.1470000001
 20
107352.75
 10
97561.9630000008
 20
107356.505000001
 10
97564.8890000004
 20
107358.194999999
 10
97565.6469999998
 20
107358.633
 10
97570.5609999993
 20
107361.471000002
  0
LWPOLYLINE
  5
34
330
17
100
AcDbEntity
  8
0
100
AcDbPolyline
 90
14
 70
0
 10
97478.6399999993
 20
107391.713
 10
97483.1880000005
 20
107394.341
 10
97484.0329999995
 20
107394.83
 10
97484.9150000003
 20
107395.338999999
 10
97487.0850000005
 20
107396.593000002
 10
97488.7300000005
 20
107393.746
 10
97491.4249999998
 20
107389.081000001
 10
97493.8200000002
 20
107384.936
 10
97493.6660000005
 20
107384.848
 10
97490.7630000006
 20
107383.183000001
 10
97485.3590000003
 20
107380.083999999
 10
97482.4139999994
 20
107385.180999999
 10
97481.3090000005
 20
107387.094
 10
97478.6399999993
 20
107391.713
  0
LWPOLYLINE
  5
35
330
17
100
AcDbEntity
  8
0
100
AcDbPolyline
 90
16
 70
0
 10
97527.7780000002
 20
107324.133000001
 10
97520.0460000001
 20
107319.637
 10
97518.3930000002
 20
107322.479
 10
97517.6250000005
 20
107323.801000001
 10
97516.7860000009
 20
107325.243
 10
97515.1109999996
 20
107328.124
 10
97514.6600000005
 20
107328.898999999
 10
97514.6080000003
 20
107328.989
 10
97513.5829999998
 20
107330.752
 10
97513.1619999997
 20
107331.476
 10
97515.2010000006
 20
107332.644999999
 10
97518.9340000003
 20
107334.785999999
 10
97520.8490000002
 20
107335.885
 10
97522.9220000004
 20
107332.336000001
 10
97524.4960000005
 20
107329.642999999
 10
97527.7780000002
 20
107324.133000001
  0
LWPOLYLINE
  5
36
330
17
100
AcDbEntity
  8
0
100
AcDbPolyline
 90
29
 70
0
 10
97493.4141235356
 20
107344.120117188
 10
97499.7421264646
 20
107347.749084472
 10
97501.7130737301
 20
107348.879089354
 10
97506.5526733396
 20
107351.654724122
 10
97519.4779156999
 20
107359.065997192
 10
97523.0199078876
 20
107361.056963989
 10
97527.3650000003
 20
107363.588999999
 10
97526.1220703126
 20
107365.755126953
 10
97530.2740048829
 20
107368.153004883
 10
97534.6640195311
 20
107360.553029297
 10
97533.6249999999
 20
107359.953
 10
97530.7790000002
 20
107358.309
 10
97533.7389999996
 20
107353.220000002
 10
97534.0909999996
 20
107352.614999999
 10
97534.903
 20
107351.217000001
 10
97535.8579999995
 20
107349.574
 10
97536.8479999998
 20
107347.873
 10
97529.3970000001
 20
107343.599000001
 10
97528.3140000003
 20
107342.977999999
 10
97527.2499999995
 20
107342.368999998
 10
97526.1799999994
 20
107341.754999999
 10
97519.6209999998
 20
107337.996
 10
97520.8490000002
 20
107335.885
 10
97518.9340000003
 20
107334.785999999
 10
97515.2010000006
 20
107332.644999999
 10
97513.1619999997
 20
107331.476
 10
97508.7350000008
 20
107328.937999999
 10
97503.7570000002
 20
107326.083
 10
97493.4141235356
 20
107344.120117188
  0
LWPOLYLINE
  5
37
330
17
100
AcDbEntity
  8
0
100
AcDbPolyline
 90
20
 70
0
 10
97558.9600000002
 20
107344.324
 10
97557.3849999998
 20
107347.031999999
 10
97555.3550000007
 20
107350.524000001
 10
97553.3459999997
 20
107353.979
 10
97551.647
 20
107356.9
 10
97550.1209999998
 20
107359.523999999
 10
97551.2345000005
 20
107360.1653
 10
97557.6770000006
 20
107363.876
 10
97559.9320000002
 20
107359.998000001
 10
97560.6969999991
 20
107358.682999999
 10
97561.871
 20
107356.664
 10
97561.9630000008
 20
107356.505000001
 10
97564.1470000001
 20
107352.75
 10
97566.255
 20
107349.124999999
 10
97566.6560000006
 20
107348.435
 10
97567.3949999994
 20
107347.165000001
 10
97566.5219999994
 20
107346.657999999
 10
97565.4160000007
 20
107346.014999998
 10
97559.8560000002
 20
107342.783000001
 10
97558.9600000002
 20
107344.324
  0
LWPOLYLINE
  5
38
330
17
100
AcDbEntity
  8
0
100
AcDbPolyline
 90
21
 70
0
 10
97517.8790893552
 20
107380.962097166
 10
97518.5891113284
 20
107379.726074219
 10
97513.4262167967
 20
107376.765233399
 10
97509.871276856
 20
107374.726684571
 10
97503.7980957026
 20
107371.24407959
 10
97501.9620971685
 20
107370.190917969
 10
97496.5935058597
 20
107367.112915038
 10
97493.3731079096
 20
107365.266113281
 10
97485.2891235351
 20
107360.630310059
 10
97484.27911377
 20
107360.051086426
 10
97480.2241210934
 20
107367.123107909
 10
97481.2584838864
 20
107367.715881347
 10
97482.843078613
 20
107368.624084472
 10
97488.5531005855
 20
107371.899108887
 10
97507.0891113265
 20
107382.526123046
 10
97507.4353027341
 20
107382.724670409
 10
97509.3079916993
 20
107383.798802734
 10
97510.9360961909
 20
107384.732116698
 10
97514.5291137699
 20
107386.793090821
 10
97516.1671142577
 20
107383.943115234
 10
97517.8790893552
 20
107380.962097166
  0
LWPOLYLINE
  5
39
330
17
100
AcDbEntity
  8
0
100
AcDbPolyline
 90
19
 70
0
 10
97580.184
 20
107367.164000002
 10
97583.45
 20
107361.509999999
 10
97582.0899999998
 20
107355.709
 10
97580.7470000001
 20
107354.928
 10
97579.618
 20
107354.272
 10
97575.978
 20
107352.156
 10
97574.1679999995
 20
107355.268
 10
97573.8080000002
 20
107355.886999999
 10
97572.9019999998
 20
107357.445
 10
97572.3499999994
 20
107358.394999998
 10
97570.5609999993
 20
107361.471000002
 10
97572.1940000006
 20
107362.414000001
 10
97575.3490000009
 20
107364.270999999
 10
97575.5120000007
 20
107364.367
 10
97575.8899999999
 20
107364.588999998
 10
97579.0259999995
 20
107366.469999999
 10
97579.3260000007
 20
107366.649999999
 10
97579.7750000007
 20
107366.919
 10
97580.184
 20
107367.164000002
  0
LWPOLYLINE
  5
3A
330
17
100
AcDbEntity
  8
0
100
AcDbPolyline
 90
18
 70
0
 10
97493.3731079096
 20
107365.266113281
 10
97496.5935058597
 20
107367.112915038
 10
97501.9620971685
 20
107370.190917969
 10
97503.7980957026
 20
107371.24407959
 10
97509.871276856
 20
107374.726684571
 10
97513.4262167967
 20
107376.765233399
 10
97518.5891113284
 20
107379.726074219
 10
97523.5410766604
 20
107371.108093262
 10
97515.2871093745
 20
107366.37487793
 10
97514.9871215816
 20
107366.203125
 10
97510.6848754883
 20
107363.736083985
 10
97506.8718872067
 20
107361.549072267
 10
97502.3870849613
 20
107358.977111815
 10
97498.317077637
 20
107356.644104003
 10
97489.2230834964
 20
107351.429077148
 10
97484.27911377
 20
107360.051086426
 10
97485.2891235351
 20
107360.630310059
 10
97493.3731079096
 20
107365.266113281
  0
LWPOLYLINE
  5
3B
330
17
100
AcDbEntity
  8
0
100
AcDbPolyline
 90
18
 70
0
 10
97539.7000000001
 20
107331.064
 10
97537.4519999995
 20
107329.757
 10
97536.8370000003
 20
107330.814
 10
97535.9910000009
 20
107332.268000001
 10
97535.4480000001
 20
107333.201
 10
97534.6500000005
 20
107334.572
 10
97534.2249999995
 20
107335.302
 10
97533.1329999999
 20
107337.178
 10
97532.4140000002
 20
107338.414
 10
97531.0449999996
 20
107340.767
 10
97529.3970000001
 20
107343.599000001
 10
97536.8479999998
 20
107347.873
 10
97537.4560000008
 20
107346.827
 10
97538.8399999994
 20
107344.446999999
 10
97540.8389999997
 20
107341.009000001
 10
97541.8030000002
 20
107339.352
 10
97544.8729999992
 20
107334.071999999
 10
97539.7000000001
 20
107331.064
  0
LWPOLYLINE
  5
3C
330
17
100
AcDbEntity
  8
0
100
AcDbPolyline
 90
17
 70
0
 10
97544.1629999992
 20
107352.548000001
 10
97542.6189999999
 20
107355.203
 10
97550.1209999998
 20
107359.523999999
 10
97551.647
 20
107356.9
 10
97553.3459999997
 20
107353.979
 10
97555.3550000007
 20
107350.524000001
 10
97557.3849999998
 20
107347.031999999
 10
97558.9600000002
 20
107344.324
 10
97559.8560000002
 20
107342.783000001
 10
97552.371
 20
107338.431999999
 10
97551.9190000002
 20
107339.21
 10
97549.7919999998
 20
107342.866999999
 10
97549.3010000005
 20
107343.710999999
 10
97548.6460000001
 20
107344.839000001
 10
97545.6709999997
 20
107349.954999999
 10
97544.9539999999
 20
107351.187999998
 10
97544.1629999992
 20
107352.548000001
  0
LWPOLYLINE
  5
3D
330
17
100
AcDbEntity
  8
0
100
AcDbPolyline
 90
20
 70
0
 10
97518.3219999997
 20
107414.643000001
 10
97518.7399999998
 20
107414.883999998
 10
97524.3569999997
 20
107418.13
 10
97524.5699999999
 20
107418.253
 10
97525.7889999993
 20
107418.957
 10
97526.5969999997
 20
107417.558
 10
97531.0180000002
 20
107409.906
 10
97531.2739999998
 20
107409.463
 10
97533.0899999995
 20
107406.319999999
 10
97533.6879999998
 20
107405.286000001
 10
97534.2110000007
 20
107404.379999999
 10
97534.7620000005
 20
107403.427000001
 10
97535.9280000001
 20
107401.41
 10
97532.7989999998
 20
107399.559000001
 10
97532.011
 20
107399.092
 10
97528.5059999997
 20
107397.017999999
 10
97527.3049999991
 20
107399.096
 10
97523.0379999999
 20
107406.482
 10
97521.9390000006
 20
107408.383
 10
97518.3219999997
 20
107414.643000001
  0
LWPOLYLINE
  5
3E
330
17
100
AcDbEntity
  8
0
100
AcDbPolyline
 90
29
 70
0
 10
97562.1163999991
 20
107366.4331
 10
97557.6770000006
 20
107363.876
 10
97551.2345000005
 20
107360.1653
 10
97550.1209999998
 20
107359.523999999
 10
97542.6189999999
 20
107355.203
 10
97542.2669999999
 20
107355.808
 10
97541.815000001
 20
107356.585999999
 10
97541.1270000009
 20
107357.768000001
 10
97538.2900571288
 20
107362.647999999
 10
97542.4830502929
 20
107365.069997071
 10
97544.6529999998
 20
107366.323999998
 10
97545.9325999996
 20
107367.062599999
 10
97547.5609999997
 20
107368.003
 10
97548.365
 20
107368.468000001
 10
97556.9170000005
 20
107373.408
 10
97561.2340000004
 20
107375.901
 10
97562.7970000008
 20
107376.804
 10
97566.2659999999
 20
107378.808
 10
97566.8598000002
 20
107379.1508
 10
97571.6590000002
 20
107381.923
 10
97574.153320312
 20
107377.604309081
 10
97575.9901123044
 20
107374.424072266
 10
97575.5588989263
 20
107374.175720215
 10
97575.1231079104
 20
107373.925109863
 10
97571.6519999997
 20
107371.926
 10
97568.7795000007
 20
107370.270899999
 10
97567.5680000003
 20
107369.573
 10
97562.7400000001
 20
107366.792000001
 10
97562.1163999991
 20
107366.4331
  0
LWPOLYLINE
  5
3F
330
17
100
AcDbEntity
  8
0
100
AcDbPolyline
 90
16
 70
0
 10
97525.7889999993
 20
107418.957
 10
97526.512
 20
107419.375
 10
97532.77
 20
107422.991000001
 10
97533.3320000002
 20
107423.316
 10
97536.3899999996
 20
107418.025000001
 10
97536.525
 20
107417.792
 10
97536.8019999996
 20
107417.312999999
 10
97537.7720000004
 20
107415.634
 10
97538.2669999997
 20
107414.777
 10
97538.554
 20
107414.281
 10
97538.2070000004
 20
107414.080000001
 10
97534.5509999996
 20
107411.957000001
 10
97534.0979999998
 20
107411.694
 10
97531.0180000002
 20
107409.906
 10
97526.5969999997
 20
107417.558
 10
97525.7889999993
 20
107418.957
  0
LWPOLYLINE
  5
40
330
17
100
AcDbEntity
  8
0
100
AcDbPolyline
 90
20
 70
0
 10
97519.6209999998
 20
107337.996
 10
97526.1799999994
 20
107341.754999999
 10
97527.2499999995
 20
107342.368999998
 10
97528.3140000003
 20
107342.977999999
 10
97529.3970000001
 20
107343.599000001
 10
97531.0449999996
 20
107340.767
 10
97532.4140000002
 20
107338.414
 10
97533.1329999999
 20
107337.178
 10
97534.2249999995
 20
107335.302
 10
97534.6500000005
 20
107334.572
 10
97535.4480000001
 20
107333.201
 10
97535.9910000009
 20
107332.268000001
 10
97536.8370000003
 20
107330.814
 10
97537.4519999995
 20
107329.757
 10
97535.3090000006
 20
107328.510999999
 10
97527.7780000002
 20
107324.133000001
 10
97524.4960000005
 20
107329.642999999
 10
97522.9220000004
 20
107332.336000001
 10
97520.8490000002
 20
107335.885
 10
97519.6209999998
 20
107337.996
  0
LWPOLYLINE
  5
41
330
17
100
AcDbEntity
  8
0
100
AcDbPolyline
 90
29
 70
0
 10
97526.1220703126
 20
107365.755126953
 10
97524.893676758
 20
107368.145080567
 10
97523.5410766604
 20
107371.108093262
 10
97518.5891113284
 20
107379.726074219
 10
97517.8790893552
 20
107380.962097166
 10
97521.344116211
 20
107382.964111328
 10
97524.9901123045
 20
107385.071105957
 10
97526.3550595709
 20
107385.858998535
 10
97528.3150205076
 20
107386.991017578
 10
97529.4450253913
 20
107387.644032714
 10
97532.8021240235
 20
107389.583129883
 10
97539.1730957029
 20
107393.263122557
 10
97542.4620971682
 20
107395.163085937
 10
97558.5961303711
 20
107404.482116699
 10
97567.2691040045
 20
107389.523071289
 10
97558.4080810552
 20
107384.404113769
 10
97556.8441162106
 20
107383.501098633
 10
97552.5261230467
 20
107381.006103514
 10
97548.4630737308
 20
107378.659118653
 10
97543.9750976561
 20
107376.067077637
 10
97543.172119141
 20
107375.603088378
 10
97540.2640991215
 20
107373.923095702
 10
97538.0941162109
 20
107372.669128419
 10
97539.4951171872
 20
107370.24407959
 10
97542.4830502929
 20
107365.069997071
 10
97538.2900571288
 20
107362.647999999
 10
97534.6640195311
 20
107360.553029297
 10
97530.2740048829
 20
107368.153004883
 10
97526.1220703126
 20
107365.755126953
  0
LWPOLYLINE
  5
42
330
17
100
AcDbEntity
  8
0
100
AcDbPolyline
 90
16
 70
0
 10
97474.626
 20
107389.394
 10
97478.6399999993
 20
107391.713
 10
97481.3090000005
 20
107387.094
 10
97482.4139999994
 20
107385.180999999
 10
97485.3590000003
 20
107380.083999999
 10
97483.301
 20
107378.904000002
 10
97483.1709999997
 20
107378.828999998
 10
97483.0410000004
 20
107378.754
 10
97481.3380000009
 20
107377.779
 10
97475.9009999995
 20
107374.661
 10
97473.1449999993
 20
107379.467999998
 10
97471.5020000008
 20
107382.333000001
 10
97471.24
 20
107382.79
 10
97472.7500000004
 20
107388.31
 10
97472.9600000004
 20
107388.431000001
 10
97474.626
 20
107389.394
  0
LWPOLYLINE
  5
43
330
17
100
AcDbEntity
  8
0
100
AcDbPolyline
 90
18
 70
0
 10
97493.4141235356
 20
107344.120117188
 10
97489.2230834964
 20
107351.429077148
 10
97498.317077637
 20
107356.644104003
 10
97502.3870849613
 20
107358.977111815
 10
97506.8718872067
 20
107361.549072267
 10
97510.6848754883
 20
107363.736083985
 10
97514.9871215816
 20
107366.203125
 10
97515.2871093745
 20
107366.37487793
 10
97523.5410766604
 20
107371.108093262
 10
97524.893676758
 20
107368.145080567
 10
97526.1220703126
 20
107365.755126953
 10
97527.3650000003
 20
107363.588999999
 10
97523.0199078876
 20
107361.056963989
 10
97519.4779156999
 20
107359.065997192
 10
97506.5526733396
 20
107351.654724122
 10
97501.7130737301
 20
107348.879089354
 10
97499.7421264646
 20
107347.749084472
 10
97493.4141235356
 20
107344.120117188
  0
LWPOLYLINE
  5
44
330
17
100
AcDbEntity
  8
0
100
AcDbPolyline
 90
16
 70
0
 10
97528.5059999997
 20
107397.017999999
 10
97532.011
 20
107399.092
 10
97532.7989999998
 20
107399.559000001
 10
97535.9280000001
 20
107401.41
 10
97536.7340000007
 20
107401.887
 10
97541.3339999999
 20
107404.608999999
 10
97547.1740722662
 20
107408.065124511
 10
97554.151123047
 20
107412.194091796
 10
97554.9360961916
 20
107410.831115722
 10
97558.5961303711
 20
107404.482116699
 10
97542.4620971682
 20
107395.163085937
 10
97539.1730957029
 20
107393.263122557
 10
97532.8021240235
 20
107389.583129883
 10
97530.6359999999
 20
107393.332
 10
97529.6500000004
 20
107395.038
 10
97528.5059999997
 20
107397.017999999
  0
LWPOLYLINE
  5
45
330
17
100
AcDbEntity
  8
0
100
AcDbPolyline
 90
27
 70
0
 10
97503.4619999998
 20
107406.056000001
 10
97509.894999999
 20
107409.773
 10
97511.1649999999
 20
107410.506999999
 10
97511.7290000008
 20
107409.47
 10
97514.154
 20
107405.008
 10
97517.2730000004
 20
107399.268
 10
97518.5390000003
 20
107396.939999999
 10
97519.2259999995
 20
107395.675
 10
97522.0109999996
 20
107390.551
 10
97522.9050903321
 20
107388.907104492
 10
97524.9901123045
 20
107385.071105957
 10
97521.344116211
 20
107382.964111328
 10
97517.8790893552
 20
107380.962097166
 10
97516.1671142577
 20
107383.943115234
 10
97514.5291137699
 20
107386.793090821
 10
97513.405
 20
107388.749999999
 10
97512.8879999985
 20
107389.65
 10
97512.6330000009
 20
107390.093
 10
97512.4859999999
 20
107390.35
 10
97512.1160000004
 20
107390.993999999
 10
97511.4469999994
 20
107392.158000001
 10
97510.9109999999
 20
107393.090000001
 10
97510.3409999999
 20
107394.083
 10
97508.3620000001
 20
107397.527999999
 10
97508.1090000008
 20
107397.968
 10
97506.2750000004
 20
107401.159
 10
97503.4619999998
 20
107406.056000001
  0
LWPOLYLINE
  5
46
330
17
100
AcDbEntity
  8
0
100
AcDbPolyline
 90
22
 70
0
 10
97511.1649999999
 20
107410.506999999
 10
97514.6149999999
 20
107412.501
 10
97518.3219999997
 20
107414.643000001
 10
97521.9390000006
 20
107408.383
 10
97523.0379999999
 20
107406.482
 10
97527.3049999991
 20
107399.096
 10
97528.5059999997
 20
107397.017999999
 10
97529.6500000004
 20
107395.038
 10
97530.6359999999
 20
107393.332
 10
97532.8021240235
 20
107389.583129883
 10
97529.4450253913
 20
107387.644032714
 10
97528.3150205076
 20
107386.991017578
 10
97526.3550595709
 20
107385.858998535
 10
97524.9901123045
 20
107385.071105957
 10
97522.9050903321
 20
107388.907104492
 10
97522.0109999996
 20
107390.551
 10
97519.2259999995
 20
107395.675
 10
97518.5390000003
 20
107396.939999999
 10
97517.2730000004
 20
107399.268
 10
97514.154
 20
107405.008
 10
97511.7290000008
 20
107409.47
 10
97511.1649999999
 20
107410.506999999
  0
LWPOLYLINE
  5
47
330
17
100
AcDbEntity
  8
0
100
AcDbPolyline
 90
23
 70
0
 10
97531.0180000002
 20
107409.906
 10
97534.0979999998
 20
107411.694
 10
97534.5509999996
 20
107411.957000001
 10
97538.2070000004
 20
107414.080000001
 10
97538.554
 20
107414.281
 10
97540.8179999999
 20
107415.595999999
 10
97542.0360000001
 20
107416.303
 10
97542.7090000004
 20
107416.694000001
 10
97546.5310000007
 20
107418.912
 10
97546.9630000004
 20
107419.163
 10
97549.339
 20
107420.543
 10
97553.614
 20
107413.125999999
 10
97554.151123047
 20
107412.194091796
 10
97547.1740722662
 20
107408.065124511
 10
97541.3339999999
 20
107404.608999999
 10
97536.7340000007
 20
107401.887
 10
97535.9280000001
 20
107401.41
 10
97534.7620000005
 20
107403.427000001
 10
97534.2110000007
 20
107404.379999999
 10
97533.6879999998
 20
107405.286000001
 10
97533.0899999995
 20
107406.319999999
 10
97531.2739999998
 20
107409.463
 10
97531.0180000002
 20
107409.906
  0
LWPOLYLINE
  5
48
330
17
100
AcDbEntity
  8
0
100
AcDbPolyline
 90
27
 70
0
 10
97475.9009999995
 20
107374.661
 10
97481.3380000009
 20
107377.779
 10
97483.0410000004
 20
107378.754
 10
97483.1709999997
 20
107378.828999998
 10
97483.301
 20
107378.904000002
 10
97485.3590000003
 20
107380.083999999
 10
97490.7630000006
 20
107383.183000001
 10
97493.6660000005
 20
107384.848
 10
97493.8200000002
 20
107384.936
 10
97494.186
 20
107385.145999999
 10
97496.1380000007
 20
107386.264999999
 10
97496.2679999999
 20
107386.339999998
 10
97500.1390000005
 20
107388.56
 10
97502.7400000008
 20
107390.052
 10
97503.4910000002
 20
107388.752999999
 10
97503.913
 20
107388.021999999
 10
97505.366088867
 20
107385.508117677
 10
97505.4910888668
 20
107385.29107666
 10
97505.5911254885
 20
107385.118103028
 10
97507.0891113265
 20
107382.526123046
 10
97488.5531005855
 20
107371.899108887
 10
97482.843078613
 20
107368.624084472
 10
97481.2584838864
 20
107367.715881347
 10
97480.2241210934
 20
107367.123107909
 10
97479.6361083986
 20
107368.148071289
 10
97476.4871215816
 20
107373.640075682
 10
97475.9009999995
 20
107374.661
  0
LWPOLYLINE
  5
49
330
17
100
AcDbEntity
  8
0
100
AcDbPolyline
 90
26
 70
0
 10
97572.1940000006
 20
107362.414000001
 10
97570.5609999993
 20
107361.471000002
 10
97565.6469999998
 20
107358.633
 10
97564.8890000004
 20
107358.194999999
 10
97561.9630000008
 20
107356.505000001
 10
97561.871
 20
107356.664
 10
97560.6969999991
 20
107358.682999999
 10
97559.9320000002
 20
107359.998000001
 10
97557.6770000006
 20
107363.876
 10
97562.1163999991
 20
107366.4331
 10
97562.7400000001
 20
107366.792000001
 10
97567.5680000003
 20
107369.573
 10
97568.7795000007
 20
107370.270899999
 10
97571.6519999997
 20
107371.926
 10
97575.1231079104
 20
107373.925109863
 10
97575.5588989263
 20
107374.175720215
 10
97575.9901123044
 20
107374.424072266
 10
97579.6090000007
 20
107368.160000002
 10
97580.184
 20
107367.164000002
 10
97579.7750000007
 20
107366.919
 10
97579.3260000007
 20
107366.649999999
 10
97579.0259999995
 20
107366.469999999
 10
97575.8899999999
 20
107364.588999998
 10
97575.5120000007
 20
107364.367
 10
97575.3490000009
 20
107364.270999999
 10
97572.1940000006
 20
107362.414000001
  0
LWPOLYLINE
  5
4A
330
17
100
AcDbEntity
  8
0
100
AcDbPolyline
 90
29
 70
0
 10
97530.7790000002
 20
107358.309
 10
97533.6249999999
 20
107359.953
 10
97534.6640195311
 20
107360.553029297
 10
97538.2900571288
 20
107362.647999999
 10
97541.1270000009
 20
107357.768000001
 10
97541.815000001
 20
107356.585999999
 10
97542.2669999999
 20
107355.808
 10
97542.6189999999
 20
107355.203
 10
97544.1629999992
 20
107352.548000001
 10
97544.9539999999
 20
107351.187999998
 10
97545.6709999997
 20
107349.954999999
 10
97548.6460000001
 20
107344.839000001
 10
97549.3010000005
 20
107343.710999999
 10
97549.7919999998
 20
107342.866999999
 10
97551.9190000002
 20
107339.21
 10
97552.371
 20
107338.431999999
 10
97552.198
 20
107338.330999999
 10
97547.8760000006
 20
107335.817999999
 10
97544.8729999992
 20
107334.071999999
 10
97541.8030000002
 20
107339.352
 10
97540.8389999997
 20
107341.009000001
 10
97538.8399999994
 20
107344.446999999
 10
97537.4560000008
 20
107346.827
 10
97536.8479999998
 20
107347.873
 10
97535.8579999995
 20
107349.574
 10
97534.903
 20
107351.217000001
 10
97534.0909999996
 20
107352.614999999
 10
97533.7389999996
 20
107353.220000002
 10
97530.7790000002
 20
107358.309
  0
LWPOLYLINE
  5
4B
330
17
100
AcDbEntity
  8
0
100
AcDbPolyline
 90
16
 70
0
 10
97487.0850000005
 20
107396.593000002
 10
97491.6479999996
 20
107399.229
 10
97492.3250000001
 20
107399.621000001
 10
97495.9879999999
 20
107401.736999998
 10
97498.7140000001
 20
107397.019000001
 10
97499.2829999998
 20
107396.035
 10
97500.6560000001
 20
107393.657999998
 10
97502.7400000008
 20
107390.052
 10
97500.1390000005
 20
107388.56
 10
97496.2679999999
 20
107386.339999998
 10
97496.1380000007
 20
107386.264999999
 10
97494.186
 20
107385.145999999
 10
97493.8200000002
 20
107384.936
 10
97491.4249999998
 20
107389.081000001
 10
97488.7300000005
 20
107393.746
 10
97487.0850000005
 20
107396.593000002
  0
LWPOLYLINE
  5
4C
330
17
100
AcDbEntity
  8
0
100
AcDbPolyline
 90
21
 70
0
 10
97533.3320000002
 20
107423.316
 10
97538.3459999994
 20
107426.212999999
 10
97539.6689999999
 20
107426.977000001
 10
97540.3999999998
 20
107427.400000001
 10
97546.323
 20
107425.822999998
 10
97546.9239999997
 20
107424.772000001
 10
97547.2550000001
 20
107424.190999999
 10
97549.2399999998
 20
107420.717
 10
97549.339
 20
107420.543
 10
97546.9630000004
 20
107419.163
 10
97546.5310000007
 20
107418.912
 10
97542.7090000004
 20
107416.694000001
 10
97542.0360000001
 20
107416.303
 10
97540.8179999999
 20
107415.595999999
 10
97538.554
 20
107414.281
 10
97538.2669999997
 20
107414.777
 10
97537.7720000004
 20
107415.634
 10
97536.8019999996
 20
107417.312999999
 10
97536.525
 20
107417.792
 10
97536.3899999996
 20
107418.025000001
 10
97533.3320000002
 20
107423.316
  0
LWPOLYLINE
  5
4D
330
17
100
AcDbEntity
  8
0
100
AcDbPolyline
 90
17
 70
0
 10
97503.7570000002
 20
107326.083
 10
97508.7350000003
 20
107328.938
 10
97513.1619999995
 20
107331.476
 10
97513.5829999996
 20
107330.752
 10
97514.608
 20
107328.989
 10
97514.6600000001
 20
107328.899
 10
97515.1109999996
 20
107328.124
 10
97514.3150000004
 20
107327.669
 10
97512.767
 20
107326.782
 10
97513.0159999998
 20
107326.348
 10
97513.8109999998
 20
107324.962
 10
97511.9900000002
 20
107323.918
 10
97511.1220000004
 20
107323.42
 10
97506.7290000003
 20
107320.901
 10
97506.4800000004
 20
107321.335
 10
97505.9340000004
 20
107322.287
 10
97503.7570000002
 20
107326.083
  0
LWPOLYLINE
  5
4E
330
17
100
AcDbEntity
  8
0
100
AcDbPolyline
 90
10
 70
0
 10
97506.7290000003
 20
107320.901
 10
97511.1220000004
 20
107323.42
 10
97511.9900000002
 20
107323.918
 10
97512.6380000003
 20
107322.788
 10
97511.7690000003
 20
107322.291
 10
97511.9519999996
 20
107321.972
 10
97512.9210000001
 20
107320.283
 10
97511.8109999998
 20
107316.85
 10
97508.5700000003
 20
107317.69
 10
97506.7290000003
 20
107320.901
  0
LWPOLYLINE
  5
4F
330
17
100
AcDbEntity
  8
0
100
AcDbPolyline
 90
6
 70
0
 10
97538.0939999996
 20
107372.669
 10
97540.2640000004
 20
107373.923
 10
97544.6529999999
 20
107366.324
 10
97542.483
 20
107365.07
 10
97539.4950000001
 20
107370.244
 10
97538.0939999996
 20
107372.669
  0
LWPOLYLINE
  5
50
330
17
100
AcDbEntity
  8
0
100
AcDbPolyline
 90
6
 70
0
 10
97543.1720000003
 20
107375.603
 10
97543.9749999996
 20
107376.067
 10
97545.2369999997
 20
107373.883
 10
97548.3650000002
 20
107368.468
 10
97547.5609999998
 20
107368.003
 10
97543.1720000003
 20
107375.603
  0
LWPOLYLINE
  5
51
330
17
100
AcDbEntity
  8
0
100
AcDbPolyline
 90
5
 70
0
 10
97543.9749999996
 20
107376.067
 10
97548.4630000005
 20
107378.659
 10
97549.7249999996
 20
107376.475
 10
97545.2369999997
 20
107373.883
 10
97543.9749999996
 20
107376.067
  0
LWPOLYLINE
  5
52
330
17
100
AcDbEntity
  8
0
100
AcDbPolyline
 90
7
 70
0
 10
97545.2369999997
 20
107373.883
 10
97549.7249999996
 20
107376.475
 10
97548.4630000005
 20
107378.659
 10
97552.5259999996
 20
107381.006
 10
97556.9170000004
 20
107373.408
 10
97548.3650000002
 20
107368.468
 10
97545.2369999997
 20
107373.883
  0
LWPOLYLINE
  5
53
330
17
100
AcDbEntity
  8
0
100
AcDbPolyline
 90
9
 70
0
 10
97556.8439999996
 20
107383.501
 10
97558.4079999998
 20
107384.404
 10
97561.6840000004
 20
107378.732
 10
97562.2580000004
 20
107377.738
 10
97561.5549999997
 20
107377.331
 10
97561.1840000004
 20
107377.974
 10
97560.3250000002
 20
107377.475
 10
97559.7949999999
 20
107378.393
 10
97556.8439999996
 20
107383.501
  0
LWPOLYLINE
  5
54
330
17
100
AcDbEntity
  8
0
100
AcDbPolyline
 90
10
 70
0
 10
97558.4079999998
 20
107384.404
 10
97567.2690000003
 20
107389.523
 10
97567.7110000001
 20
107388.757
 10
97571.1529999999
 20
107382.799
 10
97571.659
 20
107381.923
 10
97566.8597999997
 20
107379.1508
 10
97566.2659999998
 20
107378.808
 10
97565.1529999999
 20
107380.735
 10
97561.6840000004
 20
107378.732
 10
97558.4079999998
 20
107384.404
  0
LWPOLYLINE
  5
55
330
17
100
AcDbEntity
  8
0
100
AcDbPolyline
 90
7
 70
0
 10
97560.3250000002
 20
107377.475
 10
97561.1840000004
 20
107377.974
 10
97561.5549999997
 20
107377.331
 10
97562.2580000004
 20
107377.738
 10
97562.7970000003
 20
107376.803999999
 10
97561.2340000002
 20
107375.901
 10
97560.3250000002
 20
107377.475
  0
LWPOLYLINE
  5
56
330
17
100
AcDbEntity
  8
0
100
AcDbPolyline
 90
6
 70
0
 10
97561.6840000004
 20
107378.732
 10
97565.1529999999
 20
107380.735
 10
97566.2659999998
 20
107378.808
 10
97562.7970000003
 20
107376.803999999
 10
97562.2580000004
 20
107377.738
 10
97561.6840000004
 20
107378.732
  0
LWPOLYLINE
  5
57
330
17
100
AcDbEntity
  8
0
100
AcDbPolyline
 90
5
 70
0
 10
97495.9879999999
 20
107401.737
 10
97498.7939999998
 20
107403.359
 10
97501.5199999996
 20
107398.639
 10
97498.7139999997
 20
107397.019
 10
97495.9879999999
 20
107401.737
  0
LWPOLYLINE
  5
58
330
17
100
AcDbEntity
  8
0
100
AcDbPolyline
 90
25
 70
0
 10
97500.6560000004
 20
107393.658
 10
97506.9840000002
 20
107397.317
 10
97508.1090000002
 20
107397.968
 10
97508.3619999997
 20
107397.528
 10
97510.341
 20
107394.083
 10
97509.2259999998
 20
107393.439
 10
97507.5140000004
 20
107392.45
 10
97508.625
 20
107390.527
 10
97509.8169999998
 20
107388.465
 10
97510.5920000002
 20
107387.124
 10
97512.6830000002
 20
107388.332
 10
97512.1639999999
 20
107389.231
 10
97512.8880000003
 20
107389.65
 10
97513.4050000003
 20
107388.75
 10
97514.5290000001
 20
107386.793
 10
97510.9359999998
 20
107384.732
 10
97509.159
 20
107387.683
 10
97507.6699999999
 20
107386.829
 10
97506.6859999998
 20
107388.546
 10
97506.0700000003
 20
107388.193
 10
97505.6100000003
 20
107388.995
 10
97503.9129999997
 20
107388.022
 10
97503.4910000004
 20
107388.753
 10
97502.7400000002
 20
107390.052
 10
97500.6560000004
 20
107393.658
  0
LWPOLYLINE
  5
59
330
17
100
AcDbEntity
  8
0
100
AcDbPolyline
 90
14
 70
0
 10
97503.9130859375
 20
107388.022094727
 10
97505.6101074219
 20
107388.995117188
 10
97506.0701293945
 20
107388.193115234
 10
97506.6860961914
 20
107388.546081543
 10
97507.6701049805
 20
107386.829101562
 10
97509.1591186523
 20
107387.683105469
 10
97510.9360961914
 20
107384.732116699
 10
97509.3081054688
 20
107383.79888916
 10
97507.4354858398
 20
107382.72467041
 10
97507.0891113281
 20
107382.526123047
 10
97505.5911254883
 20
107385.118103027
 10
97505.4910888672
 20
107385.29107666
 10
97505.3660888672
 20
107385.508117676
 10
97503.9130859375
 20
107388.022094727
  0
LWPOLYLINE
  5
5A
330
17
100
AcDbEntity
  8
0
100
AcDbPolyline
 90
6
 70
0
 10
97561.9630000005
 20
107356.505
 10
97564.8890000004
 20
107358.195
 10
97565.6469999999
 20
107358.633
 10
97567.8059999999
 20
107354.895
 10
97564.1469999999
 20
107352.75
 10
97561.9630000005
 20
107356.505
  0
LWPOLYLINE
  5
5B
330
17
100
AcDbEntity
  8
0
100
AcDbPolyline
 90
13
 70
0
 10
97564.1469999999
 20
107352.75
 10
97567.8059999999
 20
107354.895
 10
97565.6469999999
 20
107358.633
 10
97570.5609999998
 20
107361.471
 10
97572.3499999996
 20
107358.395
 10
97572.9019999998
 20
107357.445
 10
97573.8080000002
 20
107355.887
 10
97573.0310000004
 20
107355.421
 10
97571.9390000002
 20
107357.3
 10
97569.5010000002
 20
107355.882
 10
97571.6169999996
 20
107352.243
 10
97566.2549999999
 20
107349.125
 10
97564.1469999999
 20
107352.75
  0
LWPOLYLINE
  5
5C
330
17
100
AcDbEntity
  8
0
100
AcDbPolyline
 90
18
 70
0
 10
97478.6399999997
 20
107391.713
 10
97483.1880000001
 20
107394.341
 10
97484.0329999998
 20
107394.83
 10
97486.7359999996
 20
107390.153
 10
97488.3739999998
 20
107387.318
 10
97489.2560000001
 20
107387.827
 10
97484.915
 20
107395.339
 10
97487.085
 20
107396.593
 10
97488.7300000004
 20
107393.746
 10
97491.4249999998
 20
107389.081
 10
97493.8200000003
 20
107384.936
 10
97493.7960000001
 20
107384.922
 10
97493.6660000002
 20
107384.848
 10
97490.7630000003
 20
107383.183
 10
97485.3590000002
 20
107380.084
 10
97482.4139999999
 20
107385.181
 10
97481.3090000004
 20
107387.094
 10
97478.6399999997
 20
107391.713
  0
LWPOLYLINE
  5
5D
330
17
100
AcDbEntity
  8
0
100
AcDbPolyline
 90
17
 70
0
 10
97513.5829999996
 20
107330.752
 10
97514.3619999997
 20
107331.205
 10
97515.2750000004
 20
107329.635
 10
97518.9500000002
 20
107331.772
 10
97520.2340000002
 20
107332.519
 10
97520.9919999996
 20
107331.213
 10
97522.9220000003
 20
107332.336
 10
97524.4960000003
 20
107329.643
 10
97527.7779999999
 20
107324.133
 10
97520.0460000001
 20
107319.637
 10
97518.3930000002
 20
107322.479
 10
97517.625
 20
107323.801
 10
97516.7860000003
 20
107325.243
 10
97515.1109999996
 20
107328.124
 10
97514.6600000001
 20
107328.899
 10
97514.608
 20
107328.989
 10
97513.5829999996
 20
107330.752
  0
LWPOLYLINE
  5
5E
330
17
100
AcDbEntity
  8
0
100
AcDbPolyline
 90
6
 70
0
 10
97518.9340000004
 20
107334.786
 10
97520.8490000004
 20
107335.885
 10
97522.9220000003
 20
107332.336
 10
97520.9919999996
 20
107331.213
 10
97520.2340000002
 20
107332.519
 10
97518.9340000004
 20
107334.786
  0
LWPOLYLINE
  5
5F
330
17
100
AcDbEntity
  8
0
100
AcDbPolyline
 90
5
 70
0
 10
97512.5240000002
 20
107351.506
 10
97518.5980000002
 20
107354.985
 10
97521.5800000001
 20
107349.779
 10
97515.5060000001
 20
107346.3
 10
97512.5240000002
 20
107351.506
  0
LWPOLYLINE
  5
60
330
17
100
AcDbEntity
  8
0
100
AcDbPolyline
 90
9
 70
0
 10
97523.0640000002
 20
107361.123
 10
97527.3650000002
 20
107363.589
 10
97526.1220000004
 20
107365.755
 10
97530.2740000002
 20
107368.153
 10
97534.6639999999
 20
107360.553
 10
97533.625
 20
107359.953
 10
97530.7790000001
 20
107358.309
 10
97526.2120000003
 20
107355.671
 10
97523.0640000002
 20
107361.123
  0
LWPOLYLINE
  5
61
330
17
100
AcDbEntity
  8
0
100
AcDbPolyline
 90
9
 70
0
 10
97493.4139999999
 20
107344.12
 10
97499.7419999996
 20
107347.749
 10
97501.2869999995
 20
107345.056
 10
97504.3200000003
 20
107346.796
 10
97511.9019999998
 20
107333.572
 10
97507.5190000003
 20
107331.059
 10
97508.7350000003
 20
107328.938
 10
97503.7570000002
 20
107326.083
 10
97493.4139999999
 20
107344.12
  0
LWPOLYLINE
  5
62
330
17
100
AcDbEntity
  8
0
100
AcDbPolyline
 90
5
 70
0
 10
97504.3200000003
 20
107346.796
 10
97511.9570000004
 20
107351.177
 10
97519.6210000003
 20
107337.996
 10
97511.9019999998
 20
107333.572
 10
97504.3200000003
 20
107346.796
  0
LWPOLYLINE
  5
63
330
17
100
AcDbEntity
  8
0
100
AcDbPolyline
 90
7
 70
0
 10
97511.9570000004
 20
107351.177
 10
97512.5240000002
 20
107351.506
 10
97515.5060000001
 20
107346.3
 10
97521.5800000001
 20
107349.779
 10
97526.1799999997
 20
107341.755
 10
97519.6210000003
 20
107337.996
 10
97511.9570000004
 20
107351.177
  0
LWPOLYLINE
  5
64
330
17
100
AcDbEntity
  8
0
100
AcDbPolyline
 90
20
 70
0
 10
97550.1210000003
 20
107359.524
 10
97551.2345000003
 20
107360.165300001
 10
97557.6770000001
 20
107363.876
 10
97559.932
 20
107359.998
 10
97559.0580000002
 20
107359.49
 10
97557.9529999997
 20
107358.848
 10
97557.2419999996
 20
107360.071000001
 10
97555.6239999998
 20
107359.13
 10
97557.2709999997
 20
107356.295
 10
97558.0389999999
 20
107356.748
 10
97562.0970000001
 20
107349.771
 10
97561.3229999999
 20
107349.321000001
 10
97558.7529999996
 20
107347.827
 10
97560.3289999999
 20
107345.119
 10
97558.96
 20
107344.324
 10
97557.3849999998
 20
107347.032
 10
97555.3550000004
 20
107350.524
 10
97553.3459999999
 20
107353.979
 10
97551.6469999999
 20
107356.9
 10
97550.1210000003
 20
107359.524
  0
LWPOLYLINE
  5
65
330
17
100
AcDbEntity
  8
0
100
AcDbPolyline
 90
23
 70
0
 10
97555.6239999998
 20
107359.13
 10
97557.2419999996
 20
107360.071000001
 10
97557.9529999997
 20
107358.848
 10
97558.8839999996
 20
107357.247
 10
97560.9079999998
 20
107353.767
 10
97562.0120000001
 20
107354.411
 10
97563.2690000003
 20
107352.25
 10
97562.165
 20
107351.606
 10
97564.6789999995
 20
107347.283
 10
97565.784
 20
107347.927
 10
97566.6560000004
 20
107348.435
 10
97567.3949999996
 20
107347.165
 10
97566.5219999999
 20
107346.658
 10
97565.4160000002
 20
107346.015
 10
97559.8559999997
 20
107342.783
 10
97558.96
 20
107344.324
 10
97560.3289999999
 20
107345.119
 10
97558.7529999996
 20
107347.827
 10
97561.3229999999
 20
107349.321000001
 10
97562.0970000001
 20
107349.771
 10
97558.0389999999
 20
107356.748
 10
97557.2709999997
 20
107356.295
 10
97555.6239999998
 20
107359.13
  0
LWPOLYLINE
  5
66
330
17
100
AcDbEntity
  8
0
100
AcDbPolyline
 90
18
 70
0
 10
97509.8712768555
 20
107374.72668457
 10
97503.7980957031
 20
107371.24407959
 10
97501.962097168
 20
107370.190917969
 10
97499.930480957
 20
107373.864685059
 10
97498.2026977539
 20
107372.871704102
 10
97497.6068725586
 20
107373.908325195
 10
97493.9290771484
 20
107371.748474121
 10
97496.5935058594
 20
107367.112915039
 10
97493.3731079102
 20
107365.266113281
 10
97485.2891235352
 20
107360.630310059
 10
97481.2584838867
 20
107367.715881348
 10
97482.8430786133
 20
107368.624084473
 10
97488.5531005859
 20
107371.899108887
 10
97507.0891113281
 20
107382.526123047
 10
97507.4353027344
 20
107382.72467041
 10
97509.9083251953
 20
107378.346313477
 10
97508.3040771484
 20
107377.378112793
 10
97509.8712768555
 20
107374.72668457
  0
LWPOLYLINE
  5
67
330
17
100
AcDbEntity
  8
0
100
AcDbPolyline
 90
7
 70
0
 10
97513.426216797
 20
107376.765233398
 10
97509.8714072267
 20
107374.726598144
 10
97508.3040244142
 20
107377.378209473
 10
97509.9083945313
 20
107378.346227051
 10
97507.4353720704
 20
107382.724645019
 10
97509.3079916993
 20
107383.798802734
 10
97513.426216797
 20
107376.765233398
  0
LWPOLYLINE
  5
68
330
17
100
AcDbEntity
  8
0
100
AcDbPolyline
 90
8
 70
0
 10
97501.962097168
 20
107370.190917969
 10
97501.8890991211
 20
107370.149108887
 10
97496.5935058594
 20
107367.112915039
 10
97493.9290771484
 20
107371.748474121
 10
97497.6068725586
 20
107373.908325195
 10
97498.2026977539
 20
107372.871704102
 10
97499.930480957
 20
107373.864685059
 10
97501.962097168
 20
107370.190917969
  0
LWPOLYLINE
  5
69
330
17
100
AcDbEntity
  8
0
100
AcDbPolyline
 90
8
 70
0
 10
97513.4263305664
 20
107376.765319824
 10
97509.3081054688
 20
107383.79888916
 10
97510.9360961914
 20
107384.732116699
 10
97514.5291137695
 20
107386.79309082
 10
97516.1671142578
 20
107383.943115234
 10
97517.8790893555
 20
107380.962097168
 10
97518.5891113281
 20
107379.726074219
 10
97513.4263305664
 20
107376.765319824
  0
LWPOLYLINE
  5
6A
330
17
100
AcDbEntity
  8
0
100
AcDbPolyline
 90
5
 70
0
 10
97485.2891235352
 20
107360.630310059
 10
97484.2791137695
 20
107360.051086426
 10
97480.2241210938
 20
107367.12310791
 10
97481.2584838867
 20
107367.715881348
 10
97485.2891235352
 20
107360.630310059
  0
LWPOLYLINE
  5
6B
330
17
100
AcDbEntity
  8
0
100
AcDbPolyline
 90
19
 70
0
 10
97570.5609999998
 20
107361.471
 10
97572.1940000001
 20
107362.414
 10
97575.3490000004
 20
107364.271
 10
97575.5120000001
 20
107364.367
 10
97575.8899999997
 20
107364.589
 10
97579.0259999996
 20
107366.47
 10
97579.3260000004
 20
107366.65
 10
97579.7750000004
 20
107366.919
 10
97580.1840000004
 20
107367.164
 10
97583.4500000002
 20
107361.51
 10
97582.0899999999
 20
107355.709
 10
97580.7470000004
 20
107354.928
 10
97579.6179999998
 20
107354.272
 10
97575.9780000001
 20
107352.156
 10
97574.1679999996
 20
107355.268
 10
97573.8080000002
 20
107355.887
 10
97572.9019999998
 20
107357.445
 10
97572.3499999996
 20
107358.395
 10
97570.5609999998
 20
107361.471
  0
LWPOLYLINE
  5
6C
330
17
100
AcDbEntity
  8
0
100
AcDbPolyline
 90
17
 70
0
 10
97493.3731079102
 20
107365.266113281
 10
97496.5935058594
 20
107367.112915039
 10
97501.962097168
 20
107370.190917969
 10
97503.7980957031
 20
107371.24407959
 10
97504.3660888672
 20
107370.252075195
 10
97502.8811035156
 20
107369.401123047
 10
97505.1340942383
 20
107365.469116211
 10
97508.3681030273
 20
107367.317077637
 10
97506.1110839844
 20
107371.252075195
 10
97507.5531005859
 20
107372.079101562
 10
97510.6151123047
 20
107373.835083008
 10
97514.987121582
 20
107366.203125
 10
97510.6851196289
 20
107363.736083984
 10
97506.8720703125
 20
107361.549072266
 10
97502.3870849609
 20
107358.977111816
 10
97498.3170776367
 20
107356.644104004
 10
97493.3731079102
 20
107365.266113281
  0
LWPOLYLINE
  5
6D
330
17
100
AcDbEntity
  8
0
100
AcDbPolyline
 90
20
 70
0
 10
97529.3969999999
 20
107343.599
 10
97536.8480000002
 20
107347.873
 10
97537.4560000002
 20
107346.827
 10
97538.8399999999
 20
107344.447
 10
97540.8389999997
 20
107341.009
 10
97536.2609999999
 20
107338.346
 10
97537.4950000001
 20
107336.224
 10
97536.9009999996
 20
107335.879
 10
97537.6979999999
 20
107334.508
 10
97539.7000000002
 20
107331.064
 10
97537.4519999996
 20
107329.757
 10
97536.8370000003
 20
107330.814
 10
97535.9910000004
 20
107332.268
 10
97535.4479999999
 20
107333.201
 10
97534.6500000004
 20
107334.572
 10
97534.2249999996
 20
107335.302
 10
97533.1330000004
 20
107337.178
 10
97532.4139999999
 20
107338.414
 10
97531.0449999999
 20
107340.767
 10
97529.3969999999
 20
107343.599
  0
LWPOLYLINE
  5
6E
330
17
100
AcDbEntity
  8
0
100
AcDbPolyline
 90
7
 70
0
 10
97545.6710000001
 20
107349.955
 10
97547.5300000003
 20
107351.036
 10
97551.6509999996
 20
107343.947
 10
97549.7920000004
 20
107342.867
 10
97549.301
 20
107343.711
 10
97548.6459999997
 20
107344.839
 10
97545.6710000001
 20
107349.955
  0
LWPOLYLINE
  5
6F
330
17
100
AcDbEntity
  8
0
100
AcDbPolyline
 90
5
 70
0
 10
97542.6189999999
 20
107355.203
 10
97550.1210000003
 20
107359.524
 10
97551.6469999999
 20
107356.9
 10
97544.1629999997
 20
107352.548
 10
97542.6189999999
 20
107355.203
  0
LWPOLYLINE
  5
70
330
17
100
AcDbEntity
  8
0
100
AcDbPolyline
 90
12
 70
0
 10
97547.5300000003
 20
107351.036
 10
97552.0539999995
 20
107353.665
 10
97554.2520000003
 20
107349.883
 10
97555.3550000004
 20
107350.524
 10
97557.3849999998
 20
107347.032
 10
97558.96
 20
107344.324
 10
97559.8559999997
 20
107342.783
 10
97552.3710000003
 20
107338.432
 10
97551.9189999998
 20
107339.21
 10
97549.7920000004
 20
107342.867
 10
97551.6509999996
 20
107343.947
 10
97547.5300000003
 20
107351.036
  0
LWPOLYLINE
  5
71
330
17
100
AcDbEntity
  8
0
100
AcDbPolyline
 90
9
 70
0
 10
97518.3219999997
 20
107414.643
 10
97518.7400000002
 20
107414.884
 10
97524.3569999998
 20
107418.13
 10
97524.5700000003
 20
107418.253
 10
97525.3810000001
 20
107416.85
 10
97528.1840000004
 20
107411.999
 10
97524.0099999998
 20
107409.582
 10
97521.9390000002
 20
107408.383
 10
97518.3219999997
 20
107414.643
  0
LWPOLYLINE
  5
72
330
17
100
AcDbEntity
  8
0
100
AcDbPolyline
 90
12
 70
0
 10
97523.0379999997
 20
107406.482
 10
97525.1100000003
 20
107407.678999999
 10
97528.2209999999
 20
107409.477
 10
97531.4050000003
 20
107403.967
 10
97532.4890000001
 20
107402.091
 10
97534.7620000001
 20
107403.427
 10
97535.9280000003
 20
107401.41
 10
97532.7989999996
 20
107399.559
 10
97532.0109999999
 20
107399.092
 10
97528.5060000001
 20
107397.018
 10
97527.3049999997
 20
107399.096
 10
97523.0379999997
 20
107406.482
  0
LWPOLYLINE
  5
73
330
17
100
AcDbEntity
  8
0
100
AcDbPolyline
 90
5
 70
0
 10
97524.5700000003
 20
107418.253
 10
97525.7889999999
 20
107418.957
 10
97526.5970000001
 20
107417.558
 10
97525.3810000001
 20
107416.85
 10
97524.5700000003
 20
107418.253
  0
LWPOLYLINE
  5
74
330
17
100
AcDbEntity
  8
0
100
AcDbPolyline
 90
22
 70
0
 10
97566.8599243164
 20
107379.150878906
 10
97568.8560791016
 20
107375.685119629
 10
97567.2416992188
 20
107374.755310059
 10
97566.7252807617
 20
107375.652099609
 10
97565.9404907227
 20
107375.200073242
 10
97565.3925170898
 20
107376.151489258
 10
97563.7600708008
 20
107375.211120605
 10
97564.329284668
 20
107374.223083496
 10
97559.2987060547
 20
107371.325500488
 10
97562.1165161133
 20
107366.433105469
 10
97557.6771240234
 20
107363.876098633
 10
97551.2344970703
 20
107360.165283203
 10
97549.6959228516
 20
107362.836730957
 10
97548.6978759766
 20
107362.261901855
 10
97545.9326782227
 20
107367.062683105
 10
97547.5610961914
 20
107368.003112793
 10
97548.3651123047
 20
107368.468078613
 10
97556.9171142578
 20
107373.408081055
 10
97561.2341308594
 20
107375.901123047
 10
97562.7971191406
 20
107376.804077148
 10
97566.2661132812
 20
107378.808105469
 10
97566.8599243164
 20
107379.150878906
  0
LWPOLYLINE
  5
75
330
17
100
AcDbEntity
  8
0
100
AcDbPolyline
 90
5
 70
0
 10
97573.6760864258
 20
107377.350097656
 10
97574.1533203125
 20
107377.604309082
 10
97575.9901123047
 20
107374.424072266
 10
97575.5588989258
 20
107374.175720215
 10
97573.6760864258
 20
107377.350097656
  0
LWPOLYLINE
  5
76
330
17
100
AcDbEntity
  8
0
100
AcDbPolyline
 90
14
 70
0
 10
97573.6760864258
 20
107377.350097656
 10
97575.5588989258
 20
107374.175720215
 10
97575.1231079102
 20
107373.925109863
 10
97571.6520996094
 20
107371.926086426
 10
97568.7794799805
 20
107370.270874023
 10
97566.3436889648
 20
107374.49987793
 10
97565.9404907227
 20
107375.200073242
 10
97566.7252807617
 20
107375.652099609
 10
97567.2416992188
 20
107374.755310059
 10
97568.8560791016
 20
107375.685119629
 10
97566.8599243164
 20
107379.150878906
 10
97571.6591186523
 20
107381.923095703
 10
97574.1533203125
 20
107377.604309082
 10
97573.6760864258
 20
107377.350097656
  0
LWPOLYLINE
  5
77
330
17
100
AcDbEntity
  8
0
100
AcDbPolyline
 90
7
 70
0
 10
97564.329284668
 20
107374.223083496
 10
97563.7600708008
 20
107375.211120605
 10
97565.3925170898
 20
107376.151489258
 10
97565.9404907227
 20
107375.200073242
 10
97566.3436889648
 20
107374.49987793
 10
97564.7113037109
 20
107373.559692383
 10
97564.329284668
 20
107374.223083496
  0
LWPOLYLINE
  5
78
330
17
100
AcDbEntity
  8
0
100
AcDbPolyline
 90
15
 70
0
 10
97525.7889999999
 20
107418.957
 10
97526.5120000001
 20
107419.375
 10
97532.7699999996
 20
107422.991
 10
97533.3320000004
 20
107423.316
 10
97536.3899999997
 20
107418.025
 10
97536.5250000004
 20
107417.792
 10
97536.8020000001
 20
107417.313
 10
97537.7719999999
 20
107415.634
 10
97537.0889999997
 20
107415.232
 10
97536.1629999997
 20
107416.825
 10
97532.3899999997
 20
107414.633
 10
97534.0980000002
 20
107411.694
 10
97531.0180000002
 20
107409.906
 10
97526.5970000001
 20
107417.558
 10
97525.7889999999
 20
107418.957
  0
LWPOLYLINE
  5
79
330
17
100
AcDbEntity
  8
0
100
AcDbPolyline
 90
24
 70
0
 10
97519.6210000003
 20
107337.996
 10
97526.1799999997
 20
107341.755
 10
97527.25
 20
107342.369
 10
97528.3140000002
 20
107342.978
 10
97529.3969999999
 20
107343.599
 10
97531.0449999999
 20
107340.767
 10
97532.4139999999
 20
107338.414
 10
97533.1330000004
 20
107337.178
 10
97532.2649999997
 20
107336.683
 10
97533.3609999996
 20
107334.798
 10
97534.2249999996
 20
107335.302
 10
97534.6500000004
 20
107334.572
 10
97535.4479999999
 20
107333.201
 10
97535.9910000004
 20
107332.268
 10
97533.8480000002
 20
107331.022
 10
97534.6940000001
 20
107329.568
 10
97536.8370000003
 20
107330.814
 10
97537.4519999996
 20
107329.757
 10
97535.3090000004
 20
107328.511
 10
97527.7779999999
 20
107324.133
 10
97524.4960000003
 20
107329.643
 10
97522.9220000003
 20
107332.336
 10
97520.8490000004
 20
107335.885
 10
97519.6210000003
 20
107337.996
  0
LWPOLYLINE
  5
7A
330
17
100
AcDbEntity
  8
0
100
AcDbPolyline
 90
5
 70
0
 10
97527.3310000002
 20
107335.019
 10
97530.4649999999
 20
107336.842
 10
97532.085
 20
107334.056
 10
97528.9510000004
 20
107332.234
 10
97527.3310000002
 20
107335.019
  0
LWPOLYLINE
  5
7B
330
17
100
AcDbEntity
  8
0
100
AcDbPolyline
 90
6
 70
0
 10
97531.7488583988
 20
107383.654835938
 10
97528.636858887
 20
107381.909047363
 10
97526.3550595706
 20
107385.858998535
 10
97528.3150205081
 20
107386.991017578
 10
97529.4450253909
 20
107387.644032715
 10
97531.7488583988
 20
107383.654835938
  0
LWPOLYLINE
  5
7C
330
17
100
AcDbEntity
  8
0
100
AcDbPolyline
 90
6
 70
0
 10
97535.2860288089
 20
107367.812001465
 10
97538.2900571292
 20
107362.648
 10
97534.6640195316
 20
107360.553029297
 10
97530.2740048831
 20
107368.153004883
 10
97533.8770322269
 20
107370.233998535
 10
97535.2860288089
 20
107367.812001465
  0
LWPOLYLINE
  5
7D
330
17
100
AcDbEntity
  8
0
100
AcDbPolyline
 90
21
 70
0
 10
97534.6469116211
 20
107378.637512207
 10
97555.3267211914
 20
107390.827514648
 10
97553.6766967773
 20
107393.836730957
 10
97532.7929077148
 20
107381.847717285
 10
97531.7489013672
 20
107383.654907227
 10
97529.4451293945
 20
107387.644104004
 10
97532.8021240234
 20
107389.583129883
 10
97539.1730957031
 20
107393.263122559
 10
97542.462097168
 20
107395.163085938
 10
97558.5961303711
 20
107404.482116699
 10
97567.2691040039
 20
107389.523071289
 10
97558.4080810547
 20
107384.40411377
 10
97556.8441162109
 20
107383.501098633
 10
97552.5261230469
 20
107381.006103516
 10
97548.4630737305
 20
107378.659118652
 10
97543.9750976562
 20
107376.067077637
 10
97543.1721191406
 20
107375.603088379
 10
97540.2640991211
 20
107373.923095703
 10
97538.0941162109
 20
107372.669128418
 10
97536.3405151367
 20
107375.705505371
 10
97534.6469116211
 20
107378.637512207
  0
LWPOLYLINE
  5
7E
330
17
100
AcDbEntity
  8
0
100
AcDbPolyline
 90
8
 70
0
 10
97538.0941162109
 20
107372.669128418
 10
97539.4951171875
 20
107370.24407959
 10
97538.1301269531
 20
107369.455078125
 10
97536.7291259766
 20
107371.881103516
 10
97534.7951049805
 20
107370.764099121
 10
97533.0217285156
 20
107373.847717285
 10
97536.3405151367
 20
107375.705505371
 10
97538.0941162109
 20
107372.669128418
  0
LWPOLYLINE
  5
7F
330
17
100
AcDbEntity
  8
0
100
AcDbPolyline
 90
6
 70
0
 10
97538.2900571292
 20
107362.648
 10
97535.2860288089
 20
107367.812001465
 10
97538.1300229495
 20
107369.455006836
 10
97539.4950131839
 20
107370.244008301
 10
97542.4830502933
 20
107365.06999707
 10
97538.2900571292
 20
107362.648
  0
LWPOLYLINE
  5
80
330
17
100
AcDbEntity
  8
0
100
AcDbPolyline
 90
12
 70
0
 10
97471.5020000003
 20
107382.333
 10
97471.2400000002
 20
107382.79
 10
97472.75
 20
107388.31
 10
97472.96
 20
107388.431
 10
97474.6260000002
 20
107389.394
 10
97477.2960000001
 20
107384.775
 10
97478.4009999996
 20
107382.862
 10
97478.5659999996
 20
107382.577
 10
97481.3380000005
 20
107377.779
 10
97475.9009999996
 20
107374.661
 10
97473.1449999996
 20
107379.468
 10
97471.5020000003
 20
107382.333
  0
LWPOLYLINE
  5
81
330
17
100
AcDbEntity
  8
0
100
AcDbPolyline
 90
5
 70
0
 10
97474.6260000002
 20
107389.394
 10
97478.6399999997
 20
107391.713
 10
97481.3090000004
 20
107387.094
 10
97477.2960000001
 20
107384.775
 10
97474.6260000002
 20
107389.394
  0
LWPOLYLINE
  5
82
330
17
100
AcDbEntity
  8
0
100
AcDbPolyline
 90
5
 70
0
 10
97477.2960000001
 20
107384.775
 10
97481.3090000004
 20
107387.094
 10
97482.4139999999
 20
107385.181
 10
97478.4009999996
 20
107382.862
 10
97477.2960000001
 20
107384.775
  0
LWPOLYLINE
  5
83
330
17
100
AcDbEntity
  8
0
100
AcDbPolyline
 90
9
 70
0
 10
97478.4009999996
 20
107382.862
 10
97482.4139999999
 20
107385.181
 10
97485.3590000002
 20
107380.084
 10
97483.301
 20
107378.904
 10
97483.1710000001
 20
107378.829
 10
97483.0410000002
 20
107378.754
 10
97481.3380000005
 20
107377.779
 10
97478.5659999996
 20
107382.577
 10
97478.4009999996
 20
107382.862
  0
LWPOLYLINE
  5
84
330
17
100
AcDbEntity
  8
0
100
AcDbPolyline
 90
10
 70
0
 10
97505.1389160156
 20
107354.16027832
 10
97500.2973022461
 20
107351.36907959
 10
97501.7130737305
 20
107348.879089355
 10
97499.7421264648
 20
107347.749084473
 10
97493.4141235352
 20
107344.120117188
 10
97489.2230834961
 20
107351.429077148
 10
97498.3170776367
 20
107356.644104004
 10
97502.3870849609
 20
107358.977111816
 10
97504.4600830078
 20
107355.363098145
 10
97505.1389160156
 20
107354.16027832
  0
LWPOLYLINE
  5
85
330
17
100
AcDbEntity
  8
0
100
AcDbPolyline
 90
7
 70
0
 10
97508.1427001953
 20
107359.332275391
 10
97507.587097168
 20
107359.005493164
 10
97508.3630981445
 20
107357.64630127
 10
97504.4600830078
 20
107355.363098145
 10
97502.3870849609
 20
107358.977111816
 10
97506.871887207
 20
107361.549072266
 10
97508.1427001953
 20
107359.332275391
  0
LWPOLYLINE
  5
86
330
17
100
AcDbEntity
  8
0
100
AcDbPolyline
 90
5
 70
0
 10
97524.8936767578
 20
107368.145080566
 10
97516.9185180664
 20
107363.529907227
 10
97515.287109375
 20
107366.37487793
 10
97523.5410766602
 20
107371.108093262
 10
97524.8936767578
 20
107368.145080566
  0
LWPOLYLINE
  5
87
330
17
100
AcDbEntity
  8
0
100
AcDbPolyline
 90
13
 70
0
 10
97506.5526733398
 20
107351.654724121
 10
97505.1389160156
 20
107354.16027832
 10
97504.4600830078
 20
107355.363098145
 10
97508.3630981445
 20
107357.64630127
 10
97507.587097168
 20
107359.005310059
 10
97508.1427001953
 20
107359.332275391
 10
97511.9318847656
 20
107361.561279297
 10
97510.6851196289
 20
107363.736083984
 10
97514.987121582
 20
107366.203125
 10
97515.287109375
 20
107366.37512207
 10
97516.9185180664
 20
107363.529907227
 10
97519.4780883789
 20
107359.066101074
 10
97506.5526733398
 20
107351.654724121
  0
LWPOLYLINE
  5
88
330
17
100
AcDbEntity
  8
0
100
AcDbPolyline
 90
9
 70
0
 10
97528.5060000001
 20
107397.018
 10
97532.0109999999
 20
107399.092
 10
97532.483
 20
107398.295
 10
97533.3329999996
 20
107396.86
 10
97532.199
 20
107396.194
 10
97533.0530000003
 20
107394.762
 10
97530.6359999999
 20
107393.332
 10
97529.6500000004
 20
107395.038
 10
97528.5060000001
 20
107397.018
  0
LWPOLYLINE
  5
89
330
17
100
AcDbEntity
  8
0
100
AcDbPolyline
 90
23
 70
0
 10
97530.6361083984
 20
107393.332092285
 10
97533.0531005859
 20
107394.762084961
 10
97532.1990966797
 20
107396.194091797
 10
97533.3331298828
 20
107396.860107422
 10
97532.4830932617
 20
107398.29510498
 10
97534.4730834961
 20
107399.472106934
 10
97535.4451293945
 20
107399.556091309
 10
97537.4810791016
 20
107400.761108398
 10
97546.3110961914
 20
107405.989074707
 10
97546.8220825195
 20
107405.126098633
 10
97548.37109375
 20
107406.04309082
 10
97547.8601074219
 20
107406.90612793
 10
97547.1740722656
 20
107408.065124512
 10
97554.1511230469
 20
107412.194091797
 10
97554.9360961914
 20
107410.831115723
 10
97558.5961303711
 20
107404.482116699
 10
97542.462097168
 20
107395.163085938
 10
97540.2520751953
 20
107398.895080566
 10
97539.0181274414
 20
107398.164123535
 10
97536.9830932617
 20
107396.959106445
 10
97539.1730957031
 20
107393.263122559
 10
97532.8021240234
 20
107389.583129883
 10
97530.6361083984
 20
107393.332092285
  0
LWPOLYLINE
  5
8A
330
17
100
AcDbEntity
  8
0
100
AcDbPolyline
 90
6
 70
0
 10
97536.983
 20
107396.959
 10
97539.0180000002
 20
107398.164
 10
97540.2520000003
 20
107398.895
 10
97542.4620000003
 20
107395.163
 10
97539.1730000004
 20
107393.263
 10
97536.983
 20
107396.959
  0
LWPOLYLINE
  5
8B
330
17
100
AcDbEntity
  8
0
100
AcDbPolyline
 90
38
 70
0
 10
97503.4620000003
 20
107406.056
 10
97509.8949999996
 20
107409.773
 10
97511.165
 20
107410.507
 10
97511.7290000003
 20
107409.47
 10
97510.807
 20
107408.934
 10
97510.46
 20
107408.732
 10
97510.8250000002
 20
107408.059
 10
97508.7949999999
 20
107406.959
 10
97510.5899999999
 20
107403.653
 10
97511.5880000005
 20
107404.229
 10
97513.6840000004
 20
107400.603
 10
97515.2999999998
 20
107397.806
 10
97516.1320000002
 20
107398.274
 10
97517.2390000001
 20
107396.234
 10
97517.5870000003
 20
107396.431
 10
97518.5389999999
 20
107396.94
 10
97519.2259999998
 20
107395.675
 10
97518.2719999999
 20
107395.174
 10
97521.9570000004
 20
107388.392
 10
97522.9050000003
 20
107388.907
 10
97524.9900000002
 20
107385.071000001
 10
97521.3439999996
 20
107382.964
 10
97519.6239999998
 20
107385.941
 10
97519.3509999998
 20
107385.783
 10
97516.1670000004
 20
107383.943
 10
97514.5290000001
 20
107386.793
 10
97517.9859999996
 20
107388.776
 10
97518.3810000001
 20
107389.002
 10
97516.3329999996
 20
107392.573
 10
97512.4859999996
 20
107390.35
 10
97512.1160000004
 20
107390.994
 10
97511.4469999997
 20
107392.158
 10
97510.9110000003
 20
107393.09
 10
97510.341
 20
107394.083
 10
97508.3619999997
 20
107397.528
 10
97508.1090000002
 20
107397.968
 10
97506.2750000004
 20
107401.159
 10
97503.4620000003
 20
107406.056
  0
LWPOLYLINE
  5
8C
330
17
100
AcDbEntity
  8
0
100
AcDbPolyline
 90
9
 70
0
 10
97512.4859999996
 20
107390.35
 10
97516.3329999996
 20
107392.573
 10
97518.3810000001
 20
107389.002
 10
97517.9859999996
 20
107388.776
 10
97514.5290000001
 20
107386.793
 10
97513.4050000003
 20
107388.75
 10
97512.8880000003
 20
107389.65
 10
97512.6330000004
 20
107390.093
 10
97512.4859999996
 20
107390.35
  0
LWPOLYLINE
  5
8D
330
17
100
AcDbEntity
  8
0
100
AcDbPolyline
 90
6
 70
0
 10
97511.165
 20
107410.507
 10
97514.6150000002
 20
107412.501
 10
97517.6529999999
 20
107406.909
 10
97514.1540000001
 20
107405.008
 10
97511.7290000003
 20
107409.47
 10
97511.165
 20
107410.507
  0
LWPOLYLINE
  5
8E
330
17
100
AcDbEntity
  8
0
100
AcDbPolyline
 90
14
 70
0
 10
97517.273
 20
107399.268
 10
97522.6529999999
 20
107402.375
 10
97524.8870000001
 20
107398.507
 10
97525.7290000003
 20
107398.994
 10
97528.4299999997
 20
107394.321000001
 10
97527.0319999997
 20
107393.5
 10
97526.3059999999
 20
107393.074
 10
97525.8449999997
 20
107392.767
 10
97525.1660000002
 20
107392.375
 10
97523.0369999995
 20
107391.144
 10
97522.0109999999
 20
107390.551
 10
97519.2259999998
 20
107395.675
 10
97518.5389999999
 20
107396.94
 10
97517.273
 20
107399.268
  0
LWPOLYLINE
  5
8F
330
17
100
AcDbEntity
  8
0
100
AcDbPolyline
 90
11
 70
0
 10
97522.0111083984
 20
107390.551086426
 10
97523.037109375
 20
107391.144104004
 10
97523.8751220703
 20
107389.694091797
 10
97525.99609375
 20
107390.919128418
 10
97526.7440795898
 20
107389.62310791
 10
97527.9091186523
 20
107390.302124023
 10
97529.4451293945
 20
107387.644104004
 10
97526.3551025391
 20
107385.859130859
 10
97524.9901123047
 20
107385.071105957
 10
97522.905090332
 20
107388.907104492
 10
97522.0111083984
 20
107390.551086426
  0
LWPOLYLINE
  5
90
330
17
100
AcDbEntity
  8
0
100
AcDbPolyline
 90
9
 70
0
 10
97526.3059999999
 20
107393.074
 10
97527.0319999997
 20
107393.5
 10
97528.4299999997
 20
107394.321000001
 10
97529.6500000004
 20
107395.038
 10
97530.6359999999
 20
107393.332
 10
97532.8020000001
 20
107389.583
 10
97529.4450000003
 20
107387.644
 10
97527.909
 20
107390.302
 10
97526.3059999999
 20
107393.074
  0
LWPOLYLINE
  5
91
330
17
100
AcDbEntity
  8
0
100
AcDbPolyline
 90
22
 70
0
 10
97531.0180000002
 20
107409.906
 10
97534.0980000002
 20
107411.694
 10
97534.551
 20
107411.957
 10
97536.0930000003
 20
107409.3
 10
97539.75
 20
107411.423
 10
97541.4519999996
 20
107408.493
 10
97542.5599999996
 20
107406.584
 10
97540.7910000002
 20
107405.537
 10
97541.3339999998
 20
107404.609
 10
97536.7340000002
 20
107401.887
 10
97535.5719999997
 20
107403.899
 10
97536.6090000002
 20
107404.504
 10
97534.943
 20
107407.391
 10
97534.5669999998
 20
107407.174
 10
97533.9029999999
 20
107406.79
 10
97534.2359999996
 20
107406.214
 10
97535.0219999999
 20
107404.852
 10
97534.2110000001
 20
107404.38
 10
97533.6880000001
 20
107405.286
 10
97533.0899999999
 20
107406.32
 10
97531.2740000002
 20
107409.463
 10
97531.0180000002
 20
107409.906
  0
LWPOLYLINE
  5
92
330
17
100
AcDbEntity
  8
0
100
AcDbPolyline
 90
13
 70
0
 10
97540.818
 20
107415.596
 10
97542.0360000003
 20
107416.303
 10
97542.7089999998
 20
107416.694
 10
97546.5310000004
 20
107418.912
 10
97546.9630000005
 20
107419.163
 10
97549.3389999997
 20
107420.543
 10
97553.6140000001
 20
107413.126
 10
97547.7070000004
 20
107409.63
 10
97546.6239999998
 20
107411.496
 10
97542.2209999999
 20
107408.939
 10
97540.7570000002
 20
107411.46
 10
97542.5990000004
 20
107412.529
 10
97540.818
 20
107415.596
  0
LWPOLYLINE
  5
93
330
17
100
AcDbEntity
  8
0
100
AcDbPolyline
 90
14
 70
0
 10
97475.9011230469
 20
107374.661071777
 10
97481.3380737305
 20
107377.77911377
 10
97483.0410766602
 20
107378.754089355
 10
97484.0170898438
 20
107377.050109863
 10
97484.5620727539
 20
107376.099121094
 10
97483.6311035156
 20
107375.565124512
 10
97484.7551269531
 20
107373.607116699
 10
97481.1660766602
 20
107371.550109863
 10
97482.8430786133
 20
107368.624084473
 10
97481.2584838867
 20
107367.715881348
 10
97480.2241210938
 20
107367.12310791
 10
97479.6361083984
 20
107368.148071289
 10
97476.487121582
 20
107373.640075684
 10
97475.9011230469
 20
107374.661071777
  0
LWPOLYLINE
  5
94
330
17
100
AcDbEntity
  8
0
100
AcDbPolyline
 90
13
 70
0
 10
97482.8430786133
 20
107368.624084473
 10
97481.1660766602
 20
107371.550109863
 10
97484.7551269531
 20
107373.607116699
 10
97483.6311035156
 20
107375.565124512
 10
97484.5620727539
 20
107376.099121094
 10
97484.6920776367
 20
107376.174072266
 10
97484.8231201172
 20
107376.249084473
 10
97485.753112793
 20
107376.78112793
 10
97486.3580932617
 20
107375.727111816
 10
97487.4130859375
 20
107373.886108398
 10
97488.1441040039
 20
107372.611083984
 10
97488.5531005859
 20
107371.899108887
 10
97482.8430786133
 20
107368.624084473
  0
LWPOLYLINE
  5
95
330
17
100
AcDbEntity
  8
0
100
AcDbPolyline
 90
22
 70
0
 10
97484.0170898438
 20
107377.050109863
 10
97495.1651000977
 20
107383.440124512
 10
97494.1860961914
 20
107385.146118164
 10
97496.1381225586
 20
107386.265075684
 10
97497.1160888672
 20
107384.559082031
 10
97500.4880981445
 20
107386.491088867
 10
97502.2431030273
 20
107383.430114746
 10
97505.4910888672
 20
107385.29107666
 10
97505.5911254883
 20
107385.118103027
 10
97507.0891113281
 20
107382.526123047
 10
97488.5531005859
 20
107371.899108887
 10
97488.1441040039
 20
107372.611083984
 10
97487.4130859375
 20
107373.886108398
 10
97486.3580932617
 20
107375.727111816
 10
97498.2670898438
 20
107382.553100586
 10
97497.3900756836
 20
107384.082092285
 10
97485.4830932617
 20
107377.252075195
 10
97485.753112793
 20
107376.78112793
 10
97484.8231201172
 20
107376.249084473
 10
97484.6920776367
 20
107376.174072266
 10
97484.5620727539
 20
107376.099121094
 10
97484.0170898438
 20
107377.050109863
  0
LWPOLYLINE
  5
96
330
17
100
AcDbEntity
  8
0
100
AcDbPolyline
 90
6
 70
0
 10
97485.483
 20
107377.252
 10
97497.3899999997
 20
107384.082
 10
97498.267
 20
107382.553
 10
97486.358
 20
107375.727
 10
97485.7529999996
 20
107376.781
 10
97485.483
 20
107377.252
  0
LWPOLYLINE
  5
97
330
17
100
AcDbEntity
  8
0
100
AcDbPolyline
 90
7
 70
0
 10
97500.1390000004
 20
107388.56
 10
97502.7400000002
 20
107390.052
 10
97503.4910000004
 20
107388.753
 10
97502.6239999998
 20
107388.256
 10
97502.3739999998
 20
107388.689
 10
97500.6399999997
 20
107387.694
 10
97500.1390000004
 20
107388.56
  0
LWPOLYLINE
  5
98
330
17
100
AcDbEntity
  8
0
100
AcDbPolyline
 90
19
 70
0
 10
97557.6770000001
 20
107363.876
 10
97562.1163999997
 20
107366.4331
 10
97562.7400000002
 20
107366.792
 10
97563.29
 20
107365.847
 10
97561.1960000005
 20
107364.607
 10
97561.8550000004
 20
107363.463
 10
97568.7869999995
 20
107367.456
 10
97569.6849999996
 20
107365.896
 10
97569.8490000004
 20
107365.611
 10
97570.2230000002
 20
107365.827
 10
97572.1940000001
 20
107362.414
 10
97570.5609999998
 20
107361.471
 10
97565.6469999999
 20
107358.633
 10
97564.8890000004
 20
107358.195
 10
97561.9630000005
 20
107356.505
 10
97561.8710000003
 20
107356.664
 10
97560.6969999997
 20
107358.683
 10
97559.932
 20
107359.998
 10
97557.6770000001
 20
107363.876
  0
LWPOLYLINE
  5
99
330
17
100
AcDbEntity
  8
0
100
AcDbPolyline
 90
10
 70
0
 10
97567.568
 20
107369.573
 10
97568.7795000002
 20
107370.2709
 10
97571.6519999998
 20
107371.926
 10
97573.9369999999
 20
107367.972
 10
97573.557
 20
107367.752
 10
97570.2230000002
 20
107365.827
 10
97569.8490000004
 20
107365.611
 10
97569.6849999996
 20
107365.896
 10
97568.7869999995
 20
107367.456
 10
97567.568
 20
107369.573
  0
LWPOLYLINE
  5
9A
330
17
100
AcDbEntity
  8
0
100
AcDbPolyline
 90
12
 70
0
 10
97571.6520996094
 20
107371.926086426
 10
97575.1231079102
 20
107373.925109863
 10
97577.405090332
 20
107369.975097656
 10
97578.7510986328
 20
107367.645080566
 10
97579.3261108398
 20
107366.650085449
 10
97579.0261230469
 20
107366.470092773
 10
97575.8900756836
 20
107364.589111328
 10
97575.5120849609
 20
107364.367126465
 10
97574.1381225586
 20
107366.745117188
 10
97573.5571289062
 20
107367.752075195
 10
97573.9370727539
 20
107367.972106934
 10
97571.6520996094
 20
107371.926086426
  0
LWPOLYLINE
  5
9B
330
17
100
AcDbEntity
  8
0
100
AcDbPolyline
 90
6
 70
0
 10
97578.7510000002
 20
107367.645
 10
97579.6090000002
 20
107368.16
 10
97580.1840000004
 20
107367.164
 10
97579.7750000004
 20
107366.919
 10
97579.3260000004
 20
107366.65
 10
97578.7510000002
 20
107367.645
  0
LWPOLYLINE
  5
9C
330
17
100
AcDbEntity
  8
0
100
AcDbPolyline
 90
13
 70
0
 10
97530.7790000001
 20
107358.309
 10
97533.625
 20
107359.953
 10
97535.2649999997
 20
107359.514
 10
97536.4989999998
 20
107357.377
 10
97538.4299999997
 20
107358.494
 10
97538.7019999996
 20
107358.027
 10
97536.9210000001
 20
107356.991
 10
97537.7560000001
 20
107355.556
 10
97535.8140000002
 20
107354.427
 10
97536.1660000002
 20
107353.822
 10
97534.091
 20
107352.615
 10
97533.7390000001
 20
107353.22
 10
97530.7790000001
 20
107358.309
  0
LWPOLYLINE
  5
9D
330
17
100
AcDbEntity
  8
0
100
AcDbPolyline
 90
10
 70
0
 10
97533.625
 20
107359.953
 10
97534.6639999999
 20
107360.553
 10
97538.29
 20
107362.648
 10
97541.1270000003
 20
107357.768
 10
97539.4289999995
 20
107356.779
 10
97538.7019999996
 20
107358.027
 10
97538.4299999997
 20
107358.494
 10
97536.4989999998
 20
107357.377
 10
97535.2649999997
 20
107359.514
 10
97533.625
 20
107359.953
  0
LWPOLYLINE
  5
9E
330
17
100
AcDbEntity
  8
0
100
AcDbPolyline
 90
9
 70
0
 10
97534.9029999999
 20
107351.217
 10
97537.8059999999
 20
107352.905
 10
97537.2199999997
 20
107353.912
 10
97541.8150000004
 20
107356.586
 10
97542.267
 20
107355.808
 10
97538.7240000004
 20
107353.746
 10
97539.8130000001
 20
107351.874
 10
97535.858
 20
107349.574
 10
97534.9029999999
 20
107351.217
  0
LWPOLYLINE
  5
9F
330
17
100
AcDbEntity
  8
0
100
AcDbPolyline
 90
14
 70
0
 10
97535.858
 20
107349.574
 10
97539.8130000001
 20
107351.874
 10
97538.7240000004
 20
107353.746
 10
97542.267
 20
107355.808
 10
97542.6189999999
 20
107355.203
 10
97544.1629999997
 20
107352.548
 10
97544.9539999999
 20
107351.188
 10
97541.2599999998
 20
107349.042
 10
97540.3975
 20
107348.54
 10
97541.7829999998
 20
107346.158
 10
97538.8399999999
 20
107344.447
 10
97537.4560000002
 20
107346.827
 10
97536.8480000002
 20
107347.873
 10
97535.858
 20
107349.574
  0
LWPOLYLINE
  5
A0
330
17
100
AcDbEntity
  8
0
100
AcDbPolyline
 90
13
 70
0
 10
97538.8399999999
 20
107344.447
 10
97541.7829999998
 20
107346.158
 10
97544.7450000001
 20
107341.063
 10
97547.3629999999
 20
107336.561
 10
97551.9189999998
 20
107339.21
 10
97552.3710000003
 20
107338.432
 10
97552.1979999999
 20
107338.331
 10
97547.8760000002
 20
107335.818
 10
97547.8150000004
 20
107335.783
 10
97544.8729999997
 20
107334.072
 10
97541.8030000003
 20
107339.352
 10
97540.8389999997
 20
107341.009
 10
97538.8399999999
 20
107344.447
  0
LWPOLYLINE
  5
A1
330
17
100
AcDbEntity
  8
0
100
AcDbPolyline
 90
6
 70
0
 10
97545.6090000002
 20
107341.565
 10
97544.7450000001
 20
107341.063
 10
97541.7829999998
 20
107346.158
 10
97540.3975
 20
107348.54
 10
97541.2599999998
 20
107349.042
 10
97545.6090000002
 20
107341.565
  0
LWPOLYLINE
  5
A2
330
17
100
AcDbEntity
  8
0
100
AcDbPolyline
 90
7
 70
0
 10
97544.7450000001
 20
107341.063
 10
97545.6090000002
 20
107341.565
 10
97549.301
 20
107343.711
 10
97549.7920000004
 20
107342.867
 10
97551.9189999998
 20
107339.21
 10
97547.3629999999
 20
107336.561
 10
97544.7450000001
 20
107341.063
  0
LWPOLYLINE
  5
A3
330
17
100
AcDbEntity
  8
0
100
AcDbPolyline
 90
16
 70
0
 10
97487.085
 20
107396.593
 10
97491.648
 20
107399.229
 10
97492.3250000002
 20
107399.621
 10
97495.8509999998
 20
107393.52
 10
97498.5999999996
 20
107395.12
 10
97498.3540000003
 20
107395.495
 10
97499.2829999998
 20
107396.035
 10
97500.6560000004
 20
107393.658
 10
97499.7759999996
 20
107393.149
 10
97496.9939999999
 20
107391.541
 10
97496.665
 20
107392.11
 10
97495.9879999999
 20
107391.719
 10
97494.7019999996
 20
107390.975
 10
97492.0
 20
107395.649
 10
97488.7300000004
 20
107393.746
 10
97487.085
 20
107396.593
  0
LWPOLYLINE
  5
A4
330
17
100
AcDbEntity
  8
0
100
AcDbPolyline
 90
16
 70
0
 10
97488.7300000004
 20
107393.746
 10
97492.0
 20
107395.649
 10
97494.7019999996
 20
107390.975
 10
97495.9879999999
 20
107391.719
 10
97496.665
 20
107392.11
 10
97496.9939999999
 20
107391.541
 10
97499.7759999996
 20
107393.149
 10
97500.6560000004
 20
107393.658
 10
97502.7400000002
 20
107390.052
 10
97500.1390000004
 20
107388.56
 10
97496.2680000002
 20
107386.34
 10
97496.1380000003
 20
107386.265
 10
97494.1859999998
 20
107385.146
 10
97493.8200000003
 20
107384.936
 10
97491.4249999998
 20
107389.081
 10
97488.7300000004
 20
107393.746
  0
LWPOLYLINE
  5
A5
330
17
100
AcDbEntity
  8
0
100
AcDbPolyline
 90
5
 70
0
 10
97544.5269999998
 20
107422.375
 10
97544.7609999999
 20
107422.511
 10
97546.1639999999
 20
107420.086
 10
97545.9299999997
 20
107419.951
 10
97544.5269999998
 20
107422.375
  0
LWPOLYLINE
  5
A6
330
17
100
AcDbEntity
  8
0
100
AcDbPolyline
 90
17
 70
0
 10
97533.3320000004
 20
107423.316
 10
97538.3459999999
 20
107426.213
 10
97539.6689999998
 20
107426.977
 10
97540.4000000004
 20
107427.4
 10
97546.3229999999
 20
107425.823
 10
97546.9239999996
 20
107424.772
 10
97542.8200000003
 20
107422.389
 10
97542.4220000003
 20
107422.159
 10
97540.6279999996
 20
107421.116
 10
97540.8799999999
 20
107420.621
 10
97541.0029999996
 20
107420.38
 10
97540.7029999997
 20
107420.207
 10
97540.0290000001
 20
107419.817
 10
97538.3430000003
 20
107418.842
 10
97536.5250000004
 20
107417.792
 10
97536.3899999997
 20
107418.025
 10
97533.3320000004
 20
107423.316
  0
LWPOLYLINE
  5
A7
330
17
100
AcDbEntity
  8
0
100
AcDbPolyline
 90
14
 70
0
 10
97540.6279999996
 20
107421.116
 10
97542.4220000003
 20
107422.159
 10
97542.8200000003
 20
107422.389
 10
97542.8959999997
 20
107422.258
 10
97543.7359999996
 20
107422.744
 10
97544.0949999997
 20
107422.124
 10
97544.5269999998
 20
107422.375
 10
97545.9299999997
 20
107419.951
 10
97546.5310000004
 20
107418.912
 10
97542.7089999998
 20
107416.694
 10
97540.7029999997
 20
107420.207
 10
97541.0029999996
 20
107420.38
 10
97540.8799999999
 20
107420.621
 10
97540.6279999996
 20
107421.116
  0
LWPOLYLINE
  5
A8
330
17
100
AcDbEntity
  8
0
100
AcDbPolyline
 90
15
 70
0
 10
97542.8200000003
 20
107422.389
 10
97546.9239999996
 20
107424.772
 10
97547.2549999999
 20
107424.191
 10
97549.2400000002
 20
107420.717
 10
97549.3389999997
 20
107420.543
 10
97546.9630000005
 20
107419.163
 10
97546.5310000004
 20
107418.912
 10
97545.9299999997
 20
107419.951
 10
97546.1639999999
 20
107420.086
 10
97544.7609999999
 20
107422.511
 10
97544.5269999998
 20
107422.375
 10
97544.0949999997
 20
107422.124
 10
97543.7359999996
 20
107422.744
 10
97542.8959999997
 20
107422.258
 10
97542.8200000003
 20
107422.389
  0
ENDSEC
  0
SECTION
  2
OBJECTS
  0
DICTIONARY
  5
A
330
0
100
AcDbDictionary
281
1
  3
ACAD_COLOR
350
B
  3
ACAD_GROUP
350
C
  3
ACAD_LAYOUT
350
D
  3
ACAD_MATERIAL
350
E
  3
ACAD_MLEADERSTYLE
350
F
  3
ACAD_MLINESTYLE
350
10
  3
ACAD_PLOTSETTINGS
350
11
  3
ACAD_PLOTSTYLENAME
350
12
  3
ACAD_SCALELIST
350
14
  3
ACAD_TABLESTYLE
350
15
  3
ACAD_VISUALSTYLE
350
16
  3
EZDXF_META
350
2D
  0
DICTIONARY
  5
B
330
A
100
AcDbDictionary
281
1
  0
DICTIONARY
  5
C
330
A
100
AcDbDictionary
281
1
  0
DICTIONARY
  5
D
330
A
100
AcDbDictionary
281
1
  3
Model
350
1A
  3
Layout1
350
1E
  0
DICTIONARY
  5
E
330
A
100
AcDbDictionary
281
1
  3
ByBlock
350
1F
  3
ByLayer
350
20
  3
Global
350
21
  0
DICTIONARY
  5
F
330
A
100
AcDbDictionary
281
1
  3
Standard
350
2C
  0
DICTIONARY
  5
10
330
A
100
AcDbDictionary
281
1
  3
Standard
350
22
  0
DICTIONARY
  5
11
330
A
100
AcDbDictionary
281
1
  0
ACDBDICTIONARYWDFLT
  5
12
330
A
100
AcDbDictionary
281
1
  3
Normal
350
13
100
AcDbDictionaryWithDefault
340
13
  0
ACDBPLACEHOLDER
  5
13
330
12
  0
DICTIONARY
  5
14
330
A
100
AcDbDictionary
281
1
  0
DICTIONARY
  5
15
330
A
100
AcDbDictionary
281
1
  0
DICTIONARY
  5
16
330
A
100
AcDbDictionary
281
1
  0
LAYOUT
  5
1A
330
D
100
AcDbPlotSettings
  1

  2
Adobe PDF
  4
A3
  6

 40
7.5
 41
20.0
 42
7.5
 43
20.0
 44
420.0
 45
297.0
 46
0.0
 47
0.0
 48
0.0
 49
0.0
140
0.0
141
0.0
142
1.0
143
1.0
 70
1024
 72
1
 73
1
 74
5
  7

 75
16
 76
0
 77
2
 78
300
147
1.0
148
0.0
149
0.0
100
AcDbLayout
  1
Model
 70
1
 71
0
 10
0.0
 20
0.0
 11
420.0
 21
297.0
 12
0.0
 22
0.0
 32
0.0
 14
1e+20
 24
1e+20
 34
1e+20
 15
-1e+20
 25
-1e+20
 35
-1e+20
146
0.0
 13
0.0
 23
0.0
 33
0.0
 16
1.0
 26
0.0
 36
0.0
 17
0.0
 27
1.0
 37
0.0
 76
1
330
17
  0
LAYOUT
  5
1E
330
D
100
AcDbPlotSettings
  1

  2
Adobe PDF
  4
A3
  6

 40
7.5
 41
20.0
 42
7.5
 43
20.0
 44
420.0
 45
297.0
 46
0.0
 47
0.0
 48
0.0
 49
0.0
140
0.0
141
0.0
142
1.0
143
1.0
 70
0
 72
1
 73
1
 74
5
  7

 75
16
 76
0
 77
2
 78
300
147
1.0
148
0.0
149
0.0
100
AcDbLayout
  1
Layout1
 70
1
 71
1
 10
0.0
 20
0.0
 11
420.0
 21
297.0
 12
0.0
 22
0.0
 32
0.0
 14
1e+20
 24
1e+20
 34
1e+20
 15
-1e+20
 25
-1e+20
 35
-1e+20
146
0.0
 13
0.0
 23
0.0
 33
0.0
 16
1.0
 26
0.0
 36
0.0
 17
0.0
 27
1.0
 37
0.0
 76
1
330
1B
  0
MATERIAL
  5
1F
102
{ACAD_REACTORS
330
E
102
}
330
E
100
AcDbMaterial
  1
ByBlock
  2

 70
0
 40
1.0
 71
1
 41
1.0
 91
-1023410177
 42
1.0
 72
1
  3

 73
1
 74
1
 75
1
 44
0.5
 73
0
 45
1.0
 46
1.0
 77
1
  4

 78
1
 79
1
170
1
 48
1.0
171
1
  6

172
1
173
1
174
1
140
1.0
141
1.0
175
1
  7

176
1
177
1
178
1
143
1.0
179
1
  8

270
1
271
1
272
1
145
1.0
146
1.0
273
1
  9

274
1
275
1
276
1
 42
1.0
 72
1
  3

 73
1
 74
1
 75
1
 94
63
  0
MATERIAL
  5
20
102
{ACAD_REACTORS
330
E
102
}
330
E
100
AcDbMaterial
  1
ByLayer
  2

 70
0
 40
1.0
 71
1
 41
1.0
 91
-1023410177
 42
1.0
 72
1
  3

 73
1
 74
1
 75
1
 44
0.5
 73
0
 45
1.0
 46
1.0
 77
1
  4

 78
1
 79
1
170
1
 48
1.0
171
1
  6

172
1
173
1
174
1
140
1.0
141
1.0
175
1
  7

176
1
177
1
178
1
143
1.0
179
1
  8

270
1
271
1
272
1
145
1.0
146
1.0
273
1
  9

274
1
275
1
276
1
 42
1.0
 72
1
  3

 73
1
 74
1
 75
1
 94
63
  0
MATERIAL
  5
21
102
{ACAD_REACTORS
330
E
102
}
330
E
100
AcDbMaterial
  1
Global
  2

 70
0
 40
1.0
 71
1
 41
1.0
 91
-1023410177
 42
1.0
 72
1
  3

 73
1
 74
1
 75
1
 44
0.5
 73
0
 45
1.0
 46
1.0
 77
1
  4

 78
1
 79
1
170
1
 48
1.0
171
1
  6

172
1
173
1
174
1
140
1.0
141
1.0
175
1
  7

176
1
177
1
178
1
143
1.0
179
1
  8

270
1
271
1
272
1
145
1.0
146
1.0
273
1
  9

274
1
275
1
276
1
 42
1.0
 72
1
  3

 73
1
 74
1
 75
1
 94
63
  0
MLINESTYLE
  5
22
102
{ACAD_REACTORS
330
10
102
}
330
10
100
AcDbMlineStyle
  2
Standard
 70
0
  3

 62
256
 51
90.0
 52
90.0
 71
2
 49
0.5
 62
256
  6
BYLAYER
 49
-0.5
 62
256
  6
BYLAYER
  0
MLEADERSTYLE
  5
2C
102
{ACAD_REACTORS
330
F
102
}
330
F
100
AcDbMLeaderStyle
179
2
170
2
171
1
172
0
 90
2
 40
0.0
 41
0.0
173
1
 91
-1056964608
 92
-2
290
1
 42
2.0
291
1
 43
8.0
  3
Standard
 44
4.0
300

342
29
174
1
175
1
176
0
178
1
 93
-1056964608
 45
4.0
292
0
297
0
 46
4.0
 94
-1056964608
 47
1.0
 49
1.0
140
1.0
294
1
141
0.0
177
0
142
1.0
295
0
296
0
143
3.75
271
0
272
9
273
9
  0
DICTIONARY
  5
2D
330
A
100
AcDbDictionary
280
1
281
1
  3
CREATED_BY_EZDXF
350
2E
  3
WRITTEN_BY_EZDXF
350
AB
  0
DICTIONARYVAR
  5
2E
330
2D
100
DictionaryVariables
280
0
  1
0.18.1 @ 2022-09-13T20:49:15.275108+00:00
  0
DICTIONARYVAR
  5
AB
330
2D
100
DictionaryVariables
280
0
  1
0.18.1 @ 2022-09-13T20:49:15.308888+00:00
  0
ENDSEC
  0
EOF
