  0
SECTION
  2
HEADER
  9
$ACADVER
  1
AC1018
  9
$ACADMAINTVER
 70
     0
  9
$DWGCODEPAGE
  3
ANSI_1252
  9
$EXTMIN
 10
97471.24
 20
107316.230000002
 30
0.0
  9
$EXTMAX
 10
97583.45
 20
107427.400000001
 30
0.0
  9
$LIMMIN
 10
0.0
 20
0.0
  9
$LIMMAX
 10
12.0
 20
9.0
  9
$ORTHOMODE
 70
     0
  9
$REGENMODE
 70
     1
  9
$FILLMODE
 70
     1
  9
$QTEXTMODE
 70
     0
  9
$MIRRTEXT
 70
     1
  9
$LTSCALE
 40
1.0
  9
$ATTMODE
 70
     1
  9
$TEXTSIZE
 40
0.2
  9
$TRACEWID
 40
0.05
  9
$TEXTSTYLE
  7
Standard
  9
$CLAYER
  8
0
  9
$CELTYPE
  6
ByLayer
  9
$CECOLOR
 62
   256
  9
$CELTSCALE
 40
1.0
  9
$DISPSILH
 70
     0
  9
$LUNITS
 70
     2
  9
$LUPREC
 70
     4
  9
$SKETCHINC
 40
0.1
  9
$FILLETRAD
 40
0.5
  9
$AUNITS
 70
     0
  9
$AUPREC
 70
     0
  9
$MENU
  1
.
  9
$ELEVATION
 40
0.0
  9
$PELEVATION
 40
0.0
  9
$THICKNESS
 40
0.0
  9
$LIMCHECK
 70
     0
  9
$CHAMFERA
 40
0.5
  9
$CHAMFERB
 40
0.5
  9
$CHAMFERC
 40
1.0
  9
$CHAMFERD
 40
0.0
  9
$SKPOLY
 70
     0
  9
$ANGBASE
 50
0.0
  9
$ANGDIR
 70
     0
  9
$PDMODE
 70
     0
  9
$PDSIZE
 40
0.0
  9
$PLINEWID
 40
0.0
  9
$SPLFRAME
 70
     0
  9
$SPLINETYPE
 70
     6
  9
$SPLINESEGS
 70
     8
  9
$HANDSEED
  5
0002001D
  9
$SURFTAB1
 70
     6
  9
$SURFTAB2
 70
     6
  9
$SURFTYPE
 70
     6
  9
$SURFU
 70
     6
  9
$SURFV
 70
     6
  9
$UCSBASE
  2

  9
$UCSNAME
  2

  9
$UCSORG
 10
0.0
 20
0.0
 30
0.0
  9
$UCSXDIR
 10
1.0
 20
0.0
 30
0.0
  9
$UCSYDIR
 10
0.0
 20
1.0
 30
0.0
  9
$UCSORTHOREF
  2

  9
$UCSORTHOVIEW
 70
     0
  9
$UCSORGTOP
 10
0.0
 20
0.0
 30
0.0
  9
$UCSORGBOTTOM
 10
0.0
 20
0.0
 30
0.0
  9
$UCSORGLEFT
 10
0.0
 20
0.0
 30
0.0
  9
$UCSORGRIGHT
 10
0.0
 20
0.0
 30
0.0
  9
$UCSORGFRONT
 10
0.0
 20
0.0
 30
0.0
  9
$UCSORGBACK
 10
0.0
 20
0.0
 30
0.0
  9
$PUCSBASE
  2

  9
$PUCSNAME
  2

  9
$PUCSORG
 10
0.0
 20
0.0
 30
0.0
  9
$PUCSXDIR
 10
1.0
 20
0.0
 30
0.0
  9
$PUCSYDIR
 10
0.0
 20
1.0
 30
0.0
  9
$PUCSORTHOREF
  2

  9
$PUCSORTHOVIEW
 70
     0
  9
$PUCSORGTOP
 10
0.0
 20
0.0
 30
0.0
  9
$PUCSORGBOTTOM
 10
0.0
 20
0.0
 30
0.0
  9
$PUCSORGLEFT
 10
0.0
 20
0.0
 30
0.0
  9
$PUCSORGRIGHT
 10
0.0
 20
0.0
 30
0.0
  9
$PUCSORGFRONT
 10
0.0
 20
0.0
 30
0.0
  9
$PUCSORGBACK
 10
0.0
 20
0.0
 30
0.0
  9
$WORLDVIEW
 70
     1
  9
$SHADEDGE
 70
     3
  9
$SHADEDIF
 70
    70
  9
$TILEMODE
 70
     1
  9
$MAXACTVP
 70
    64
  9
$PINSBASE
 10
0.0
 20
0.0
 30
0.0
  9
$PLIMCHECK
 70
     0
  9
$PEXTMIN
 10
1.000000000000000E+20
 20
1.000000000000000E+20
 30
1.000000000000000E+20
  9
$PEXTMAX
 10
-1.000000000000000E+20
 20
-1.000000000000000E+20
 30
-1.000000000000000E+20
  9
$PLIMMIN
 10
0.0
 20
0.0
  9
$PLIMMAX
 10
12.0
 20
9.0
  9
$UNITMODE
 70
     0
  9
$VISRETAIN
 70
     1
  9
$PLINEGEN
 70
     0
  9
$PSLTSCALE
 70
     1
  9
$TREEDEPTH
 70
  3020
  9
$CMLSTYLE
  2
Standard
  9
$CMLJUST
 70
     0
  9
$CMLSCALE
 40
1.0
  9
$PROXYGRAPHICS
 70
     1
  9
$MEASUREMENT
 70
     0
  9
$CELWEIGHT
370
    -1
  9
$ENDCAPS
280
     0
  9
$JOINSTYLE
280
     0
  9
$LWDISPLAY
290
     0
  9
$INSUNITS
 70
     1
  9
$HYPERLINKBASE
  1

  9
$STYLESHEET
  1

  9
$XEDIT
290
     1
  9
$CEPSNTYPE
380
     0
  9
$PSTYLEMODE
290
     1
  9
$EXTNAMES
290
     1
  9
$PSVPSCALE
 40
0.0
  9
$OLESTARTUP
290
     0
  9
$SORTENTS
280
   127
  9
$INDEXCTL
280
     0
  9
$HIDETEXT
280
     1
  9
$XCLIPFRAME
290
     0
  9
$HALOGAP
280
     0
  9
$OBSCOLOR
 70
   257
  9
$OBSLTYPE
280
     0
  9
$INTERSECTIONDISPLAY
280
     0
  9
$INTERSECTIONCOLOR
 70
   257
  9
$DIMASSOC
280
     2
  9
$PROJECTNAME
  1

  0
ENDSEC
  0
SECTION
  2
CLASSES
  0
CLASS
  1
ACDBDICTIONARYWDFLT
  2
AcDbDictionaryWithDefault
  3
ObjectDBX Classes
 90
        0
 91
        4
280
     0
281
     0
  0
ENDSEC
  0
SECTION
  2
TABLES
  0
TABLE
  2
VPORT
  5
8
330
0
100
AcDbSymbolTable
 70
     1
  0
VPORT
  5
29
330
8
100
AcDbSymbolTableRecord
100
AcDbViewportTableRecord
  2
*Active
 70
     0
 10
0.0
 20
0.0
 11
1.0
 21
1.0
 12
80.25
 22
106.4409457059851
 13
0.0
 23
0.0
 14
0.5
 24
0.5
 15
0.5
 25
0.5
 16
0.0
 26
0.0
 36
1.0
 17
0.0
 27
0.0
 37
0.0
 40
113.3818914119703
 41
0.8863849310366128
 42
50.0
 43
0.0
 44
0.0
 50
0.0
 51
0.0
 71
     0
 72
  1000
 73
     1
 74
     3
 75
     0
 76
     0
 77
     0
 78
     0
281
     0
 65
     1
110
0.0
120
0.0
130
0.0
111
1.0
121
0.0
131
0.0
112
0.0
122
1.0
132
0.0
 79
     0
146
0.0
  0
ENDTAB
  0
TABLE
  2
LTYPE
  5
5
330
0
100
AcDbSymbolTable
 70
     1
  0
LTYPE
  5
14
330
5
100
AcDbSymbolTableRecord
100
AcDbLinetypeTableRecord
  2
ByBlock
 70
     0
  3

 72
    65
 73
     0
 40
0.0
  0
LTYPE
  5
15
330
5
100
AcDbSymbolTableRecord
100
AcDbLinetypeTableRecord
  2
ByLayer
 70
     0
  3

 72
    65
 73
     0
 40
0.0
  0
LTYPE
  5
16
330
5
100
AcDbSymbolTableRecord
100
AcDbLinetypeTableRecord
  2
Continuous
 70
     0
  3
Solid line
 72
    65
 73
     0
 40
0.0
  0
ENDTAB
  0
TABLE
  2
LAYER
  5
2
330
0
100
AcDbSymbolTable
 70
     1
  0
LAYER
  5
10
330
2
100
AcDbSymbolTableRecord
100
AcDbLayerTableRecord
  2
0
 70
     0
 62
     7
  6
Continuous
370
    -3
390
F
  0
ENDTAB
  0
TABLE
  2
STYLE
  5
3
330
0
100
AcDbSymbolTable
 70
     1
  0
STYLE
  5
11
330
3
100
AcDbSymbolTableRecord
100
AcDbTextStyleTableRecord
  2
Standard
 70
     0
 40
0.0
 41
1.0
 50
0.0
 71
     0
 42
0.2
  3
txt
  4

  0
ENDTAB
  0
TABLE
  2
VIEW
  5
6
330
0
100
AcDbSymbolTable
 70
     0
  0
ENDTAB
  0
TABLE
  2
UCS
  5
7
330
0
100
AcDbSymbolTable
 70
     0
  0
ENDTAB
  0
TABLE
  2
APPID
  5
9
330
0
100
AcDbSymbolTable
 70
     1
  0
APPID
  5
12
330
9
100
AcDbSymbolTableRecord
100
AcDbRegAppTableRecord
  2
ACAD
 70
     0
  0
ENDTAB
  0
TABLE
  2
DIMSTYLE
  5
A
330
0
100
AcDbSymbolTable
 70
     1
100
AcDbDimStyleTable
  0
DIMSTYLE
105
27
330
A
100
AcDbSymbolTableRecord
100
AcDbDimStyleTableRecord
  2
Standard
 70
     0
340
11
  0
ENDTAB
  0
TABLE
  2
BLOCK_RECORD
  5
1
330
0
100
AcDbSymbolTable
 70
     1
  0
BLOCK_RECORD
  5
1F
330
1
100
AcDbSymbolTableRecord
100
AcDbBlockTableRecord
  2
*Model_Space
340
22
  0
BLOCK_RECORD
  5
1B
330
1
100
AcDbSymbolTableRecord
100
AcDbBlockTableRecord
  2
*Paper_Space
340
1E
  0
ENDTAB
  0
ENDSEC
  0
SECTION
  2
BLOCKS
  0
BLOCK
  5
20
330
1F
100
AcDbEntity
  8
0
100
AcDbBlockBegin
  2
*Model_Space
 70
     0
 10
0.0
 20
0.0
 30
0.0
  3
*Model_Space
  1

  0
ENDBLK
  5
21
330
1F
100
AcDbEntity
  8
0
100
AcDbBlockEnd
  0
BLOCK
  5
1C
330
1B
100
AcDbEntity
 67
     1
  8
0
100
AcDbBlockBegin
  2
*Paper_Space
 70
     0
 10
0.0
 20
0.0
 30
0.0
  3
*Paper_Space
  1

  0
ENDBLK
  5
1D
330
1B
100
AcDbEntity
 67
     1
  8
0
100
AcDbBlockEnd
  0
ENDSEC
  0
SECTION
  2
ENTITIES
  0
LWPOLYLINE
  5
20000
100
AcDbEntity
  8
0
100
AcDbPolyline
 70
0
 90
20
 10
97503.7570000002
 20
107326.083
 10
97508.7350000008
 20
107328.937999999
 10
97513.1619999997
 20
107331.476
 10
97513.5829999998
 20
107330.752
 10
97514.6080000003
 20
107328.989
 10
97514.6600000005
 20
107328.898999999
 10
97515.1109999996
 20
107328.124
 10
97516.7860000009
 20
107325.243
 10
97517.6250000005
 20
107323.801000001
 10
97518.3930000002
 20
107322.479
 10
97520.0460000001
 20
107319.637
 10
97517.4589999994
 20
107318.128999999
 10
97514.9840000002
 20
107316.686999998
 10
97514.2000000007
 20
107316.230000002
 10
97511.8109999993
 20
107316.85
 10
97508.5699999999
 20
107317.690000001
 10
97506.7290000003
 20
107320.901
 10
97506.4800000005
 20
107321.335000001
 10
97505.9340000003
 20
107322.286999999
 10
97503.7570000002
 20
107326.083
  0
LWPOLYLINE
  5
20001
100
AcDbEntity
  8
0
100
AcDbPolyline
 70
0
 90
24
 10
97538.0941162109
 20
107372.669128419
 10
97540.2640991215
 20
107373.923095702
 10
97543.172119141
 20
107375.603088378
 10
97543.9750976561
 20
107376.067077637
 10
97548.4630737308
 20
107378.659118653
 10
97552.5261230467
 20
107381.006103514
 10
97556.8441162106
 20
107383.501098633
 10
97558.4080810552
 20
107384.404113769
 10
97567.2691040045
 20
107389.523071289
 10
97567.7109999998
 20
107388.757000001
 10
97571.153
 20
107382.799
 10
97571.6590000002
 20
107381.923
 10
97566.8598000002
 20
107379.1508
 10
97566.2659999999
 20
107378.808
 10
97562.7970000008
 20
107376.804
 10
97561.2340000004
 20
107375.901
 10
97556.9170000005
 20
107373.408
 10
97548.365
 20
107368.468000001
 10
97547.5609999997
 20
107368.003
 10
97545.9325999996
 20
107367.062599999
 10
97544.6529999998
 20
107366.323999998
 10
97542.4830502929
 20
107365.069997071
 10
97539.4951171872
 20
107370.24407959
 10
97538.0941162109
 20
107372.669128419
  0
LWPOLYLINE
  5
20002
100
AcDbEntity
  8
0
100
AcDbPolyline
 70
0
 90
29
 10
97495.9879999999
 20
107401.736999998
 10
97498.7939999999
 20
107403.358999999
 10
97503.4619999998
 20
107406.056000001
 10
97506.2750000004
 20
107401.159
 10
97508.1090000008
 20
107397.968
 10
97508.3620000001
 20
107397.527999999
 10
97510.3409999999
 20
107394.083
 10
97510.9109999999
 20
107393.090000001
 10
97511.4469999994
 20
107392.158000001
 10
97512.1160000004
 20
107390.993999999
 10
97512.4859999999
 20
107390.35
 10
97512.6330000009
 20
107390.093
 10
97512.8879999985
 20
107389.65
 10
97513.405
 20
107388.749999999
 10
97514.5291137699
 20
107386.793090821
 10
97510.9360961909
 20
107384.732116698
 10
97509.3079916993
 20
107383.798802734
 10
97507.4353027341
 20
107382.724670409
 10
97507.0891113265
 20
107382.526123046
 10
97505.5911254885
 20
107385.118103028
 10
97505.4910888668
 20
107385.29107666
 10
97505.366088867
 20
107385.508117677
 10
97503.913
 20
107388.021999999
 10
97503.4910000002
 20
107388.752999999
 10
97502.7400000008
 20
107390.052
 10
97500.6560000001
 20
107393.657999998
 10
97499.2829999998
 20
107396.035
 10
97498.7140000001
 20
107397.019000001
 10
97495.9879999999
 20
107401.736999998
  0
LWPOLYLINE
  5
20003
100
AcDbEntity
  8
0
100
AcDbPolyline
 70
0
 90
14
 10
97570.5609999993
 20
107361.471000002
 10
97572.3499999994
 20
107358.394999998
 10
97572.9019999998
 20
107357.445
 10
97573.8080000002
 20
107355.886999999
 10
97574.1679999995
 20
107355.268
 10
97575.978
 20
107352.156
 10
97567.3949999994
 20
107347.165000001
 10
97566.6560000006
 20
107348.435
 10
97566.255
 20
107349.124999999
 10
97564.1470000001
 20
107352.75
 10
97561.9630000008
 20
107356.505000001
 10
97564.8890000004
 20
107358.194999999
 10
97565.6469999998
 20
107358.633
 10
97570.5609999993
 20
107361.471000002
  0
LWPOLYLINE
  5
20004
100
AcDbEntity
  8
0
100
AcDbPolyline
 70
0
 90
14
 10
97478.6399999993
 20
107391.713
 10
97483.1880000005
 20
107394.341
 10
97484.0329999995
 20
107394.83
 10
97484.9150000003
 20
107395.338999999
 10
97487.0850000005
 20
107396.593000002
 10
97488.7300000005
 20
107393.746
 10
97491.4249999998
 20
107389.081000001
 10
97493.8200000002
 20
107384.936
 10
97493.6660000005
 20
107384.848
 10
97490.7630000006
 20
107383.183000001
 10
97485.3590000003
 20
107380.083999999
 10
97482.4139999994
 20
107385.180999999
 10
97481.3090000005
 20
107387.094
 10
97478.6399999993
 20
107391.713
  0
LWPOLYLINE
  5
20005
100
AcDbEntity
  8
0
100
AcDbPolyline
 70
0
 90
16
 10
97527.7780000002
 20
107324.133000001
 10
97520.0460000001
 20
107319.637
 10
97518.3930000002
 20
107322.479
 10
97517.6250000005
 20
107323.801000001
 10
97516.7860000009
 20
107325.243
 10
97515.1109999996
 20
107328.124
 10
97514.6600000005
 20
107328.898999999
 10
97514.6080000003
 20
107328.989
 10
97513.5829999998
 20
107330.752
 10
97513.1619999997
 20
107331.476
 10
97515.2010000006
 20
107332.644999999
 10
97518.9340000003
 20
107334.785999999
 10
97520.8490000002
 20
107335.885
 10
97522.9220000004
 20
107332.336000001
 10
97524.4960000005
 20
107329.642999999
 10
97527.7780000002
 20
107324.133000001
  0
LWPOLYLINE
  5
20006
100
AcDbEntity
  8
0
100
AcDbPolyline
 70
0
 90
29
 10
97493.4141235356
 20
107344.120117188
 10
97499.7421264646
 20
107347.749084472
 10
97501.7130737301
 20
107348.879089354
 10
97506.5526733396
 20
107351.654724122
 10
97519.4779156999
 20
107359.065997192
 10
97523.0199078876
 20
107361.056963989
 10
97527.3650000003
 20
107363.588999999
 10
97526.1220703126
 20
107365.755126953
 10
97530.2740048829
 20
107368.153004883
 10
97534.6640195311
 20
107360.553029297
 10
97533.6249999999
 20
107359.953
 10
97530.7790000002
 20
107358.309
 10
97533.7389999996
 20
107353.220000002
 10
97534.0909999996
 20
107352.614999999
 10
97534.903
 20
107351.217000001
 10
97535.8579999995
 20
107349.574
 10
97536.8479999998
 20
107347.873
 10
97529.3970000001
 20
107343.599000001
 10
97528.3140000003
 20
107342.977999999
 10
97527.2499999995
 20
107342.368999998
 10
97526.1799999994
 20
107341.754999999
 10
97519.6209999998
 20
107337.996
 10
97520.8490000002
 20
107335.885
 10
97518.9340000003
 20
107334.785999999
 10
97515.2010000006
 20
107332.644999999
 10
97513.1619999997
 20
107331.476
 10
97508.7350000008
 20
107328.937999999
 10
97503.7570000002
 20
107326.083
 10
97493.4141235356
 20
107344.120117188
  0
LWPOLYLINE
  5
20007
100
AcDbEntity
  8
0
100
AcDbPolyline
 70
0
 90
20
 10
97558.9600000002
 20
107344.324
 10
97557.3849999998
 20
107347.031999999
 10
97555.3550000007
 20
107350.524000001
 10
97553.3459999997
 20
107353.979
 10
97551.647
 20
107356.9
 10
97550.1209999998
 20
107359.523999999
 10
97551.2345000005
 20
107360.1653
 10
97557.6770000006
 20
107363.876
 10
97559.9320000002
 20
107359.998000001
 10
97560.6969999991
 20
107358.682999999
 10
97561.871
 20
107356.664
 10
97561.9630000008
 20
107356.505000001
 10
97564.1470000001
 20
107352.75
 10
97566.255
 20
107349.124999999
 10
97566.6560000006
 20
107348.435
 10
97567.3949999994
 20
107347.165000001
 10
97566.5219999994
 20
107346.657999999
 10
97565.4160000007
 20
107346.014999998
 10
97559.8560000002
 20
107342.783000001
 10
97558.9600000002
 20
107344.324
  0
LWPOLYLINE
  5
20008
100
AcDbEntity
  8
0
100
AcDbPolyline
 70
0
 90
21
 10
97517.8790893552
 20
107380.962097166
 10
97518.5891113284
 20
107379.726074219
 10
97513.4262167967
 20
107376.765233399
 10
97509.871276856
 20
107374.726684571
 10
97503.7980957026
 20
107371.24407959
 10
97501.9620971685
 20
107370.190917969
 10
97496.5935058597
 20
107367.112915038
 10
97493.3731079096
 20
107365.266113281
 10
97485.2891235351
 20
107360.630310059
 10
97484.27911377
 20
107360.051086426
 10
97480.2241210934
 20
107367.123107909
 10
97481.2584838864
 20
107367.715881347
 10
97482.843078613
 20
107368.624084472
 10
97488.5531005855
 20
107371.899108887
 10
97507.0891113265
 20
107382.526123046
 10
97507.4353027341
 20
107382.724670409
 10
97509.3079916993
 20
107383.798802734
 10
97510.9360961909
 20
107384.732116698
 10
97514.5291137699
 20
107386.793090821
 10
97516.1671142577
 20
107383.943115234
 10
97517.8790893552
 20
107380.962097166
  0
LWPOLYLINE
  5
20009
100
AcDbEntity
  8
0
100
AcDbPolyline
 70
0
 90
19
 10
97580.184
 20
107367.164000002
 10
97583.45
 20
107361.509999999
 10
97582.0899999998
 20
107355.709
 10
97580.7470000001
 20
107354.928
 10
97579.618
 20
107354.272
 10
97575.978
 20
107352.156
 10
97574.1679999995
 20
107355.268
 10
97573.8080000002
 20
107355.886999999
 10
97572.9019999998
 20
107357.445
 10
97572.3499999994
 20
107358.394999998
 10
97570.5609999993
 20
107361.471000002
 10
97572.1940000006
 20
107362.414000001
 10
97575.3490000009
 20
107364.270999999
 10
97575.5120000007
 20
107364.367
 10
97575.8899999999
 20
107364.588999998
 10
97579.0259999995
 20
107366.469999999
 10
97579.3260000007
 20
107366.649999999
 10
97579.7750000007
 20
107366.919
 10
97580.184
 20
107367.164000002
  0
LWPOLYLINE
  5
2000A
100
AcDbEntity
  8
0
100
AcDbPolyline
 70
0
 90
18
 10
97493.3731079096
 20
107365.266113281
 10
97496.5935058597
 20
107367.112915038
 10
97501.9620971685
 20
107370.190917969
 10
97503.7980957026
 20
107371.24407959
 10
97509.871276856
 20
107374.726684571
 10
97513.4262167967
 20
107376.765233399
 10
97518.5891113284
 20
107379.726074219
 10
97523.5410766604
 20
107371.108093262
 10
97515.2871093745
 20
107366.37487793
 10
97514.9871215816
 20
107366.203125
 10
97510.6848754883
 20
107363.736083985
 10
97506.8718872067
 20
107361.549072267
 10
97502.3870849613
 20
107358.977111815
 10
97498.317077637
 20
107356.644104003
 10
97489.2230834964
 20
107351.429077148
 10
97484.27911377
 20
107360.051086426
 10
97485.2891235351
 20
107360.630310059
 10
97493.3731079096
 20
107365.266113281
  0
LWPOLYLINE
  5
2000B
100
AcDbEntity
  8
0
100
AcDbPolyline
 70
0
 90
18
 10
97539.7000000001
 20
107331.064
 10
97537.4519999995
 20
107329.757
 10
97536.8370000003
 20
107330.814
 10
97535.9910000009
 20
107332.268000001
 10
97535.4480000001
 20
107333.201
 10
97534.6500000005
 20
107334.572
 10
97534.2249999995
 20
107335.302
 10
97533.1329999999
 20
107337.178
 10
97532.4140000002
 20
107338.414
 10
97531.0449999996
 20
107340.767
 10
97529.3970000001
 20
107343.599000001
 10
97536.8479999998
 20
107347.873
 10
97537.4560000008
 20
107346.827
 10
97538.8399999994
 20
107344.446999999
 10
97540.8389999997
 20
107341.009000001
 10
97541.8030000002
 20
107339.352
 10
97544.8729999992
 20
107334.071999999
 10
97539.7000000001
 20
107331.064
  0
LWPOLYLINE
  5
2000C
100
AcDbEntity
  8
0
100
AcDbPolyline
 70
0
 90
17
 10
97544.1629999992
 20
107352.548000001
 10
97542.6189999999
 20
107355.203
 10
97550.1209999998
 20
107359.523999999
 10
97551.647
 20
107356.9
 10
97553.3459999997
 20
107353.979
 10
97555.3550000007
 20
107350.524000001
 10
97557.3849999998
 20
107347.031999999
 10
97558.9600000002
 20
107344.324
 10
97559.8560000002
 20
107342.783000001
 10
97552.371
 20
107338.431999999
 10
97551.9190000002
 20
107339.21
 10
97549.7919999998
 20
107342.866999999
 10
97549.3010000005
 20
107343.710999999
 10
97548.6460000001
 20
107344.839000001
 10
97545.6709999997
 20
107349.954999999
 10
97544.9539999999
 20
107351.187999998
 10
97544.1629999992
 20
107352.548000001
  0
LWPOLYLINE
  5
2000D
100
AcDbEntity
  8
0
100
AcDbPolyline
 70
0
 90
20
 10
97518.3219999997
 20
107414.643000001
 10
97518.7399999998
 20
107414.883999998
 10
97524.3569999997
 20
107418.13
 10
97524.5699999999
 20
107418.253
 10
97525.7889999993
 20
107418.957
 10
97526.5969999997
 20
107417.558
 10
97531.0180000002
 20
107409.906
 10
97531.2739999998
 20
107409.463
 10
97533.0899999995
 20
107406.319999999
 10
97533.6879999998
 20
107405.286000001
 10
97534.2110000007
 20
107404.379999999
 10
97534.7620000005
 20
107403.427000001
 10
97535.9280000001
 20
107401.41
 10
97532.7989999998
 20
107399.559000001
 10
97532.011
 20
107399.092
 10
97528.5059999997
 20
107397.017999999
 10
97527.3049999991
 20
107399.096
 10
97523.0379999999
 20
107406.482
 10
97521.9390000006
 20
107408.383
 10
97518.3219999997
 20
107414.643000001
  0
LWPOLYLINE
  5
2000E
100
AcDbEntity
  8
0
100
AcDbPolyline
 70
0
 90
29
 10
97562.1163999991
 20
107366.4331
 10
97557.6770000006
 20
107363.876
 10
97551.2345000005
 20
107360.1653
 10
97550.1209999998
 20
107359.523999999
 10
97542.6189999999
 20
107355.203
 10
97542.2669999999
 20
107355.808
 10
97541.815000001
 20
107356.585999999
 10
97541.1270000009
 20
107357.768000001
 10
97538.2900571288
 20
107362.647999999
 10
97542.4830502929
 20
107365.069997071
 10
97544.6529999998
 20
107366.323999998
 10
97545.9325999996
 20
107367.062599999
 10
97547.5609999997
 20
107368.003
 10
97548.365
 20
107368.468000001
 10
97556.9170000005
 20
107373.408
 10
97561.2340000004
 20
107375.901
 10
97562.7970000008
 20
107376.804
 10
97566.2659999999
 20
107378.808
 10
97566.8598000002
 20
107379.1508
 10
97571.6590000002
 20
107381.923
 10
97574.153320312
 20
107377.604309081
 10
97575.9901123044
 20
107374.424072266
 10
97575.5588989263
 20
107374.175720215
 10
97575.1231079104
 20
107373.925109863
 10
97571.6519999997
 20
107371.926
 10
97568.7795000007
 20
107370.270899999
 10
97567.5680000003
 20
107369.573
 10
97562.7400000001
 20
107366.792000001
 10
97562.1163999991
 20
107366.4331
  0
LWPOLYLINE
  5
2000F
100
AcDbEntity
  8
0
100
AcDbPolyline
 70
0
 90
16
 10
97525.7889999993
 20
107418.957
 10
97526.512
 20
107419.375
 10
97532.77
 20
107422.991000001
 10
97533.3320000002
 20
107423.316
 10
97536.3899999996
 20
107418.025000001
 10
97536.525
 20
107417.792
 10
97536.8019999996
 20
107417.312999999
 10
97537.7720000004
 20
107415.634
 10
97538.2669999997
 20
107414.777
 10
97538.554
 20
107414.281
 10
97538.2070000004
 20
107414.080000001
 10
97534.5509999996
 20
107411.957000001
 10
97534.0979999998
 20
107411.694
 10
97531.0180000002
 20
107409.906
 10
97526.5969999997
 20
107417.558
 10
97525.7889999993
 20
107418.957
  0
LWPOLYLINE
  5
20010
100
AcDbEntity
  8
0
100
AcDbPolyline
 70
0
 90
20
 10
97519.6209999998
 20
107337.996
 10
97526.1799999994
 20
107341.754999999
 10
97527.2499999995
 20
107342.368999998
 10
97528.3140000003
 20
107342.977999999
 10
97529.3970000001
 20
107343.599000001
 10
97531.0449999996
 20
107340.767
 10
97532.4140000002
 20
107338.414
 10
97533.1329999999
 20
107337.178
 10
97534.2249999995
 20
107335.302
 10
97534.6500000005
 20
107334.572
 10
97535.4480000001
 20
107333.201
 10
97535.9910000009
 20
107332.268000001
 10
97536.8370000003
 20
107330.814
 10
97537.4519999995
 20
107329.757
 10
97535.3090000006
 20
107328.510999999
 10
97527.7780000002
 20
107324.133000001
 10
97524.4960000005
 20
107329.642999999
 10
97522.9220000004
 20
107332.336000001
 10
97520.8490000002
 20
107335.885
 10
97519.6209999998
 20
107337.996
  0
LWPOLYLINE
  5
20011
100
AcDbEntity
  8
0
100
AcDbPolyline
 70
0
 90
29
 10
97526.1220703126
 20
107365.755126953
 10
97524.893676758
 20
107368.145080567
 10
97523.5410766604
 20
107371.108093262
 10
97518.5891113284
 20
107379.726074219
 10
97517.8790893552
 20
107380.962097166
 10
97521.344116211
 20
107382.964111328
 10
97524.9901123045
 20
107385.071105957
 10
97526.3550595709
 20
107385.858998535
 10
97528.3150205076
 20
107386.991017578
 10
97529.4450253913
 20
107387.644032714
 10
97532.8021240235
 20
107389.583129883
 10
97539.1730957029
 20
107393.263122557
 10
97542.4620971682
 20
107395.163085937
 10
97558.5961303711
 20
107404.482116699
 10
97567.2691040045
 20
107389.523071289
 10
97558.4080810552
 20
107384.404113769
 10
97556.8441162106
 20
107383.501098633
 10
97552.5261230467
 20
107381.006103514
 10
97548.4630737308
 20
107378.659118653
 10
97543.9750976561
 20
107376.067077637
 10
97543.172119141
 20
107375.603088378
 10
97540.2640991215
 20
107373.923095702
 10
97538.0941162109
 20
107372.669128419
 10
97539.4951171872
 20
107370.24407959
 10
97542.4830502929
 20
107365.069997071
 10
97538.2900571288
 20
107362.647999999
 10
97534.6640195311
 20
107360.553029297
 10
97530.2740048829
 20
107368.153004883
 10
97526.1220703126
 20
107365.755126953
  0
LWPOLYLINE
  5
20012
100
AcDbEntity
  8
0
100
AcDbPolyline
 70
0
 90
16
 10
97474.626
 20
107389.394
 10
97478.6399999993
 20
107391.713
 10
97481.3090000005
 20
107387.094
 10
97482.4139999994
 20
107385.180999999
 10
97485.3590000003
 20
107380.083999999
 10
97483.301
 20
107378.904000002
 10
97483.1709999997
 20
107378.828999998
 10
97483.0410000004
 20
107378.754
 10
97481.3380000009
 20
107377.779
 10
97475.9009999995
 20
107374.661
 10
97473.1449999993
 20
107379.467999998
 10
97471.5020000008
 20
107382.333000001
 10
97471.24
 20
107382.79
 10
97472.7500000004
 20
107388.31
 10
97472.9600000004
 20
107388.431000001
 10
97474.626
 20
107389.394
  0
LWPOLYLINE
  5
20013
100
AcDbEntity
  8
0
100
AcDbPolyline
 70
0
 90
18
 10
97493.4141235356
 20
107344.120117188
 10
97489.2230834964
 20
107351.429077148
 10
97498.317077637
 20
107356.644104003
 10
97502.3870849613
 20
107358.977111815
 10
97506.8718872067
 20
107361.549072267
 10
97510.6848754883
 20
107363.736083985
 10
97514.9871215816
 20
107366.203125
 10
97515.2871093745
 20
107366.37487793
 10
97523.5410766604
 20
107371.108093262
 10
97524.893676758
 20
107368.145080567
 10
97526.1220703126
 20
107365.755126953
 10
97527.3650000003
 20
107363.588999999
 10
97523.0199078876
 20
107361.056963989
 10
97519.4779156999
 20
107359.065997192
 10
97506.5526733396
 20
107351.654724122
 10
97501.7130737301
 20
107348.879089354
 10
97499.7421264646
 20
107347.749084472
 10
97493.4141235356
 20
107344.120117188
  0
LWPOLYLINE
  5
20014
100
AcDbEntity
  8
0
100
AcDbPolyline
 70
0
 90
16
 10
97528.5059999997
 20
107397.017999999
 10
97532.011
 20
107399.092
 10
97532.7989999998
 20
107399.559000001
 10
97535.9280000001
 20
107401.41
 10
97536.7340000007
 20
107401.887
 10
97541.3339999999
 20
107404.608999999
 10
97547.1740722662
 20
107408.065124511
 10
97554.151123047
 20
107412.194091796
 10
97554.9360961916
 20
107410.831115722
 10
97558.5961303711
 20
107404.482116699
 10
97542.4620971682
 20
107395.163085937
 10
97539.1730957029
 20
107393.263122557
 10
97532.8021240235
 20
107389.583129883
 10
97530.6359999999
 20
107393.332
 10
97529.6500000004
 20
107395.038
 10
97528.5059999997
 20
107397.017999999
  0
LWPOLYLINE
  5
20015
100
AcDbEntity
  8
0
100
AcDbPolyline
 70
0
 90
27
 10
97503.4619999998
 20
107406.056000001
 10
97509.894999999
 20
107409.773
 10
97511.1649999999
 20
107410.506999999
 10
97511.7290000008
 20
107409.47
 10
97514.154
 20
107405.008
 10
97517.2730000004
 20
107399.268
 10
97518.5390000003
 20
107396.939999999
 10
97519.2259999995
 20
107395.675
 10
97522.0109999996
 20
107390.551
 10
97522.9050903321
 20
107388.907104492
 10
97524.9901123045
 20
107385.071105957
 10
97521.344116211
 20
107382.964111328
 10
97517.8790893552
 20
107380.962097166
 10
97516.1671142577
 20
107383.943115234
 10
97514.5291137699
 20
107386.793090821
 10
97513.405
 20
107388.749999999
 10
97512.8879999985
 20
107389.65
 10
97512.6330000009
 20
107390.093
 10
97512.4859999999
 20
107390.35
 10
97512.1160000004
 20
107390.993999999
 10
97511.4469999994
 20
107392.158000001
 10
97510.9109999999
 20
107393.090000001
 10
97510.3409999999
 20
107394.083
 10
97508.3620000001
 20
107397.527999999
 10
97508.1090000008
 20
107397.968
 10
97506.2750000004
 20
107401.159
 10
97503.4619999998
 20
107406.056000001
  0
LWPOLYLINE
  5
20016
100
AcDbEntity
  8
0
100
AcDbPolyline
 70
0
 90
22
 10
97511.1649999999
 20
107410.506999999
 10
97514.6149999999
 20
107412.501
 10
97518.3219999997
 20
107414.643000001
 10
97521.9390000006
 20
107408.383
 10
97523.0379999999
 20
107406.482
 10
97527.3049999991
 20
107399.096
 10
97528.5059999997
 20
107397.017999999
 10
97529.6500000004
 20
107395.038
 10
97530.6359999999
 20
107393.332
 10
97532.8021240235
 20
107389.583129883
 10
97529.4450253913
 20
107387.644032714
 10
97528.3150205076
 20
107386.991017578
 10
97526.3550595709
 20
107385.858998535
 10
97524.9901123045
 20
107385.071105957
 10
97522.9050903321
 20
107388.907104492
 10
97522.0109999996
 20
107390.551
 10
97519.2259999995
 20
107395.675
 10
97518.5390000003
 20
107396.939999999
 10
97517.2730000004
 20
107399.268
 10
97514.154
 20
107405.008
 10
97511.7290000008
 20
107409.47
 10
97511.1649999999
 20
107410.506999999
  0
LWPOLYLINE
  5
20017
100
AcDbEntity
  8
0
100
AcDbPolyline
 70
0
 90
23
 10
97531.0180000002
 20
107409.906
 10
97534.0979999998
 20
107411.694
 10
97534.5509999996
 20
107411.957000001
 10
97538.2070000004
 20
107414.080000001
 10
97538.554
 20
107414.281
 10
97540.8179999999
 20
107415.595999999
 10
97542.0360000001
 20
107416.303
 10
97542.7090000004
 20
107416.694000001
 10
97546.5310000007
 20
107418.912
 10
97546.9630000004
 20
107419.163
 10
97549.339
 20
107420.543
 10
97553.614
 20
107413.125999999
 10
97554.151123047
 20
107412.194091796
 10
97547.1740722662
 20
107408.065124511
 10
97541.3339999999
 20
107404.608999999
 10
97536.7340000007
 20
107401.887
 10
97535.9280000001
 20
107401.41
 10
97534.7620000005
 20
107403.427000001
 10
97534.2110000007
 20
107404.379999999
 10
97533.6879999998
 20
107405.286000001
 10
97533.0899999995
 20
107406.319999999
 10
97531.2739999998
 20
107409.463
 10
97531.0180000002
 20
107409.906
  0
LWPOLYLINE
  5
20018
100
AcDbEntity
  8
0
100
AcDbPolyline
 70
0
 90
27
 10
97475.9009999995
 20
107374.661
 10
97481.3380000009
 20
107377.779
 10
97483.0410000004
 20
107378.754
 10
97483.1709999997
 20
107378.828999998
 10
97483.301
 20
107378.904000002
 10
97485.3590000003
 20
107380.083999999
 10
97490.7630000006
 20
107383.183000001
 10
97493.6660000005
 20
107384.848
 10
97493.8200000002
 20
107384.936
 10
97494.186
 20
107385.145999999
 10
97496.1380000007
 20
107386.264999999
 10
97496.2679999999
 20
107386.339999998
 10
97500.1390000005
 20
107388.56
 10
97502.7400000008
 20
107390.052
 10
97503.4910000002
 20
107388.752999999
 10
97503.913
 20
107388.021999999
 10
97505.366088867
 20
107385.508117677
 10
97505.4910888668
 20
107385.29107666
 10
97505.5911254885
 20
107385.118103028
 10
97507.0891113265
 20
107382.526123046
 10
97488.5531005855
 20
107371.899108887
 10
97482.843078613
 20
107368.624084472
 10
97481.2584838864
 20
107367.715881347
 10
97480.2241210934
 20
107367.123107909
 10
97479.6361083986
 20
107368.148071289
 10
97476.4871215816
 20
107373.640075682
 10
97475.9009999995
 20
107374.661
  0
LWPOLYLINE
  5
20019
100
AcDbEntity
  8
0
100
AcDbPolyline
 70
0
 90
26
 10
97572.1940000006
 20
107362.414000001
 10
97570.5609999993
 20
107361.471000002
 10
97565.6469999998
 20
107358.633
 10
97564.8890000004
 20
107358.194999999
 10
97561.9630000008
 20
107356.505000001
 10
97561.871
 20
107356.664
 10
97560.6969999991
 20
107358.682999999
 10
97559.9320000002
 20
107359.998000001
 10
97557.6770000006
 20
107363.876
 10
97562.1163999991
 20
107366.4331
 10
97562.7400000001
 20
107366.792000001
 10
97567.5680000003
 20
107369.573
 10
97568.7795000007
 20
107370.270899999
 10
97571.6519999997
 20
107371.926
 10
97575.1231079104
 20
107373.925109863
 10
97575.5588989263
 20
107374.175720215
 10
97575.9901123044
 20
107374.424072266
 10
97579.6090000007
 20
107368.160000002
 10
97580.184
 20
107367.164000002
 10
97579.7750000007
 20
107366.919
 10
97579.3260000007
 20
107366.649999999
 10
97579.0259999995
 20
107366.469999999
 10
97575.8899999999
 20
107364.588999998
 10
97575.5120000007
 20
107364.367
 10
97575.3490000009
 20
107364.270999999
 10
97572.1940000006
 20
107362.414000001
  0
LWPOLYLINE
  5
2001A
100
AcDbEntity
  8
0
100
AcDbPolyline
 70
0
 90
29
 10
97530.7790000002
 20
107358.309
 10
97533.6249999999
 20
107359.953
 10
97534.6640195311
 20
107360.553029297
 10
97538.2900571288
 20
107362.647999999
 10
97541.1270000009
 20
107357.768000001
 10
97541.815000001
 20
107356.585999999
 10
97542.2669999999
 20
107355.808
 10
97542.6189999999
 20
107355.203
 10
97544.1629999992
 20
107352.548000001
 10
97544.9539999999
 20
107351.187999998
 10
97545.6709999997
 20
107349.954999999
 10
97548.6460000001
 20
107344.839000001
 10
97549.3010000005
 20
107343.710999999
 10
97549.7919999998
 20
107342.866999999
 10
97551.9190000002
 20
107339.21
 10
97552.371
 20
107338.431999999
 10
97552.198
 20
107338.330999999
 10
97547.8760000006
 20
107335.817999999
 10
97544.8729999992
 20
107334.071999999
 10
97541.8030000002
 20
107339.352
 10
97540.8389999997
 20
107341.009000001
 10
97538.8399999994
 20
107344.446999999
 10
97537.4560000008
 20
107346.827
 10
97536.8479999998
 20
107347.873
 10
97535.8579999995
 20
107349.574
 10
97534.903
 20
107351.217000001
 10
97534.0909999996
 20
107352.614999999
 10
97533.7389999996
 20
107353.220000002
 10
97530.7790000002
 20
107358.309
  0
LWPOLYLINE
  5
2001B
100
AcDbEntity
  8
0
100
AcDbPolyline
 70
0
 90
16
 10
97487.0850000005
 20
107396.593000002
 10
97491.6479999996
 20
107399.229
 10
97492.3250000001
 20
107399.621000001
 10
97495.9879999999
 20
107401.736999998
 10
97498.7140000001
 20
107397.019000001
 10
97499.2829999998
 20
107396.035
 10
97500.6560000001
 20
107393.657999998
 10
97502.7400000008
 20
107390.052
 10
97500.1390000005
 20
107388.56
 10
97496.2679999999
 20
107386.339999998
 10
97496.1380000007
 20
107386.264999999
 10
97494.186
 20
107385.145999999
 10
97493.8200000002
 20
107384.936
 10
97491.4249999998
 20
107389.081000001
 10
97488.7300000005
 20
107393.746
 10
97487.0850000005
 20
107396.593000002
  0
LWPOLYLINE
  5
2001C
100
AcDbEntity
  8
0
100
AcDbPolyline
 70
0
 90
21
 10
97533.3320000002
 20
107423.316
 10
97538.3459999994
 20
107426.212999999
 10
97539.6689999999
 20
107426.977000001
 10
97540.3999999998
 20
107427.400000001
 10
97546.323
 20
107425.822999998
 10
97546.9239999997
 20
107424.772000001
 10
97547.2550000001
 20
107424.190999999
 10
97549.2399999998
 20
107420.717
 10
97549.339
 20
107420.543
 10
97546.9630000004
 20
107419.163
 10
97546.5310000007
 20
107418.912
 10
97542.7090000004
 20
107416.694000001
 10
97542.0360000001
 20
107416.303
 10
97540.8179999999
 20
107415.595999999
 10
97538.554
 20
107414.281
 10
97538.2669999997
 20
107414.777
 10
97537.7720000004
 20
107415.634
 10
97536.8019999996
 20
107417.312999999
 10
97536.525
 20
107417.792
 10
97536.3899999996
 20
107418.025000001
 10
97533.3320000002
 20
107423.316
  0
ENDSEC
  0
SECTION
  2
OBJECTS
  0
DICTIONARY
  5
C
330
0
100
AcDbDictionary
281
     1
  3
ACAD_GROUP
350
D
  3
ACAD_LAYOUT
350
1A
  3
ACAD_MLEADERSTYLE
350
43
  3
ACAD_PLOTSETTINGS
350
19
  3
ACAD_PLOTSTYLENAME
350
E
  3
ACAD_TABLESTYLE
350
42
  0
DICTIONARY
  5
D
102
{ACAD_REACTORS
330
C
102
}
330
C
100
AcDbDictionary
281
     1
  0
DICTIONARY
  5
1A
102
{ACAD_REACTORS
330
C
102
}
330
C
100
AcDbDictionary
281
     1
  3
Layout1
350
1E
  3
Model
350
22
  0
DICTIONARY
  5
43
102
{ACAD_REACTORS
330
C
102
}
330
C
100
AcDbDictionary
281
     1
  0
DICTIONARY
  5
19
102
{ACAD_REACTORS
330
C
102
}
330
C
100
AcDbDictionary
281
     1
  0
ACDBDICTIONARYWDFLT
  5
E
102
{ACAD_REACTORS
330
C
102
}
330
C
100
AcDbDictionary
281
     1
  3
Normal
350
F
100
AcDbDictionaryWithDefault
340
F
  0
DICTIONARY
  5
42
102
{ACAD_REACTORS
330
C
102
}
330
C
100
AcDbDictionary
281
     1
  0
LAYOUT
  5
1E
102
{ACAD_REACTORS
330
1A
102
}
330
1A
100
AcDbPlotSettings
  1

  2
none_device
  4

  6

 40
0.0
 41
0.0
 42
0.0
 43
0.0
 44
0.0
 45
0.0
 46
0.0
 47
0.0
 48
0.0
 49
0.0
140
0.0
141
0.0
142
1.0
143
1.0
 70
   688
 72
     0
 73
     0
 74
     5
  7

 75
    16
 76
     0
 77
     2
 78
   300
147
1.0
148
0.0
149
0.0
100
AcDbLayout
  1
Layout1
 70
     1
 71
     1
 10
0.0
 20
0.0
 11
12.0
 21
9.0
 12
0.0
 22
0.0
 32
0.0
 14
1.000000000000000E+20
 24
1.000000000000000E+20
 34
1.000000000000000E+20
 15
-1.000000000000000E+20
 25
-1.000000000000000E+20
 35
-1.000000000000000E+20
146
0.0
 13
0.0
 23
0.0
 33
0.0
 16
1.0
 26
0.0
 36
0.0
 17
0.0
 27
1.0
 37
0.0
 76
     0
330
1B
  0
LAYOUT
  5
22
102
{ACAD_REACTORS
330
1A
102
}
330
1A
100
AcDbPlotSettings
  1

  2
none_device
  4

  6

 40
0.0
 41
0.0
 42
0.0
 43
0.0
 44
0.0
 45
0.0
 46
0.0
 47
0.0
 48
0.0
 49
0.0
140
0.0
141
0.0
142
1.0
143
1.0
 70
  1712
 72
     0
 73
     0
 74
     0
  7

 75
     0
 76
     0
 77
     2
 78
   300
147
1.0
148
0.0
149
0.0
100
AcDbLayout
  1
Model
 70
     1
 71
     0
 10
0.0
 20
0.0
 11
12.0
 21
9.0
 12
0.0
 22
0.0
 32
0.0
 14
30.0
 24
49.75
 34
0.0
 15
130.5
 25
163.1318914119703
 35
0.0
146
0.0
 13
0.0
 23
0.0
 33
0.0
 16
1.0
 26
0.0
 36
0.0
 17
0.0
 27
1.0
 37
0.0
 76
     0
330
1F
331
29
  0
ENDSEC
  0
EOF
