  0
SECTION
  2
HEADER
  9
$ACADVER
  1
AC1018
  9
$ACADMAINTVER
 70
     0
  9
$DWGCODEPAGE
  3
ANSI_1252
  9
$EXTMIN
 10
97471.2400000002
 20
107316.85
 30
0.0
  9
$EXTMAX
 10
97583.4500000002
 20
107427.4
 30
0.0
  9
$LIMMIN
 10
0.0
 20
0.0
  9
$LIMMAX
 10
12.0
 20
9.0
  9
$ORTHOMODE
 70
     0
  9
$REGENMODE
 70
     1
  9
$FILLMODE
 70
     1
  9
$QTEXTMODE
 70
     0
  9
$MIRRTEXT
 70
     1
  9
$LTSCALE
 40
1.0
  9
$ATTMODE
 70
     1
  9
$TEXTSIZE
 40
0.2
  9
$TRACEWID
 40
0.05
  9
$TEXTSTYLE
  7
Standard
  9
$CLAYER
  8
0
  9
$CELTYPE
  6
ByLayer
  9
$CECOLOR
 62
   256
  9
$CELTSCALE
 40
1.0
  9
$DISPSILH
 70
     0
  9
$LUNITS
 70
     2
  9
$LUPREC
 70
     4
  9
$SKETCHINC
 40
0.1
  9
$FILLETRAD
 40
0.5
  9
$AUNITS
 70
     0
  9
$AUPREC
 70
     0
  9
$MENU
  1
.
  9
$ELEVATION
 40
0.0
  9
$PELEVATION
 40
0.0
  9
$THICKNESS
 40
0.0
  9
$LIMCHECK
 70
     0
  9
$CHAMFERA
 40
0.5
  9
$CHAMFERB
 40
0.5
  9
$CHAMFERC
 40
1.0
  9
$CHAMFERD
 40
0.0
  9
$SKPOLY
 70
     0
  9
$ANGBASE
 50
0.0
  9
$ANGDIR
 70
     0
  9
$PDMODE
 70
     0
  9
$PDSIZE
 40
0.0
  9
$PLINEWID
 40
0.0
  9
$SPLFRAME
 70
     0
  9
$SPLINETYPE
 70
     6
  9
$SPLINESEGS
 70
     8
  9
$HANDSEED
  5
0002005C
  9
$SURFTAB1
 70
     6
  9
$SURFTAB2
 70
     6
  9
$SURFTYPE
 70
     6
  9
$SURFU
 70
     6
  9
$SURFV
 70
     6
  9
$UCSBASE
  2

  9
$UCSNAME
  2

  9
$UCSORG
 10
0.0
 20
0.0
 30
0.0
  9
$UCSXDIR
 10
1.0
 20
0.0
 30
0.0
  9
$UCSYDIR
 10
0.0
 20
1.0
 30
0.0
  9
$UCSORTHOREF
  2

  9
$UCSORTHOVIEW
 70
     0
  9
$UCSORGTOP
 10
0.0
 20
0.0
 30
0.0
  9
$UCSORGBOTTOM
 10
0.0
 20
0.0
 30
0.0
  9
$UCSORGLEFT
 10
0.0
 20
0.0
 30
0.0
  9
$UCSORGRIGHT
 10
0.0
 20
0.0
 30
0.0
  9
$UCSORGFRONT
 10
0.0
 20
0.0
 30
0.0
  9
$UCSORGBACK
 10
0.0
 20
0.0
 30
0.0
  9
$PUCSBASE
  2

  9
$PUCSNAME
  2

  9
$PUCSORG
 10
0.0
 20
0.0
 30
0.0
  9
$PUCSXDIR
 10
1.0
 20
0.0
 30
0.0
  9
$PUCSYDIR
 10
0.0
 20
1.0
 30
0.0
  9
$PUCSORTHOREF
  2

  9
$PUCSORTHOVIEW
 70
     0
  9
$PUCSORGTOP
 10
0.0
 20
0.0
 30
0.0
  9
$PUCSORGBOTTOM
 10
0.0
 20
0.0
 30
0.0
  9
$PUCSORGLEFT
 10
0.0
 20
0.0
 30
0.0
  9
$PUCSORGRIGHT
 10
0.0
 20
0.0
 30
0.0
  9
$PUCSORGFRONT
 10
0.0
 20
0.0
 30
0.0
  9
$PUCSORGBACK
 10
0.0
 20
0.0
 30
0.0
  9
$WORLDVIEW
 70
     1
  9
$SHADEDGE
 70
     3
  9
$SHADEDIF
 70
    70
  9
$TILEMODE
 70
     1
  9
$MAXACTVP
 70
    64
  9
$PINSBASE
 10
0.0
 20
0.0
 30
0.0
  9
$PLIMCHECK
 70
     0
  9
$PEXTMIN
 10
1.000000000000000E+20
 20
1.000000000000000E+20
 30
1.000000000000000E+20
  9
$PEXTMAX
 10
-1.000000000000000E+20
 20
-1.000000000000000E+20
 30
-1.000000000000000E+20
  9
$PLIMMIN
 10
0.0
 20
0.0
  9
$PLIMMAX
 10
12.0
 20
9.0
  9
$UNITMODE
 70
     0
  9
$VISRETAIN
 70
     1
  9
$PLINEGEN
 70
     0
  9
$PSLTSCALE
 70
     1
  9
$TREEDEPTH
 70
  3020
  9
$CMLSTYLE
  2
Standard
  9
$CMLJUST
 70
     0
  9
$CMLSCALE
 40
1.0
  9
$PROXYGRAPHICS
 70
     1
  9
$MEASUREMENT
 70
     0
  9
$CELWEIGHT
370
    -1
  9
$ENDCAPS
280
     0
  9
$JOINSTYLE
280
     0
  9
$LWDISPLAY
290
     0
  9
$INSUNITS
 70
     1
  9
$HYPERLINKBASE
  1

  9
$STYLESHEET
  1

  9
$XEDIT
290
     1
  9
$CEPSNTYPE
380
     0
  9
$PSTYLEMODE
290
     1
  9
$EXTNAMES
290
     1
  9
$PSVPSCALE
 40
0.0
  9
$OLESTARTUP
290
     0
  9
$SORTENTS
280
   127
  9
$INDEXCTL
280
     0
  9
$HIDETEXT
280
     1
  9
$XCLIPFRAME
290
     0
  9
$HALOGAP
280
     0
  9
$OBSCOLOR
 70
   257
  9
$OBSLTYPE
280
     0
  9
$INTERSECTIONDISPLAY
280
     0
  9
$INTERSECTIONCOLOR
 70
   257
  9
$DIMASSOC
280
     2
  9
$PROJECTNAME
  1

  0
ENDSEC
  0
SECTION
  2
CLASSES
  0
CLASS
  1
ACDBDICTIONARYWDFLT
  2
AcDbDictionaryWithDefault
  3
ObjectDBX Classes
 90
        0
 91
        4
280
     0
281
     0
  0
ENDSEC
  0
SECTION
  2
TABLES
  0
TABLE
  2
VPORT
  5
8
330
0
100
AcDbSymbolTable
 70
     1
  0
VPORT
  5
29
330
8
100
AcDbSymbolTableRecord
100
AcDbViewportTableRecord
  2
*Active
 70
     0
 10
0.0
 20
0.0
 11
1.0
 21
1.0
 12
80.25
 22
106.4409457059851
 13
0.0
 23
0.0
 14
0.5
 24
0.5
 15
0.5
 25
0.5
 16
0.0
 26
0.0
 36
1.0
 17
0.0
 27
0.0
 37
0.0
 40
113.3818914119703
 41
0.8863849310366128
 42
50.0
 43
0.0
 44
0.0
 50
0.0
 51
0.0
 71
     0
 72
  1000
 73
     1
 74
     3
 75
     0
 76
     0
 77
     0
 78
     0
281
     0
 65
     1
110
0.0
120
0.0
130
0.0
111
1.0
121
0.0
131
0.0
112
0.0
122
1.0
132
0.0
 79
     0
146
0.0
  0
ENDTAB
  0
TABLE
  2
LTYPE
  5
5
330
0
100
AcDbSymbolTable
 70
     1
  0
LTYPE
  5
14
330
5
100
AcDbSymbolTableRecord
100
AcDbLinetypeTableRecord
  2
ByBlock
 70
     0
  3

 72
    65
 73
     0
 40
0.0
  0
LTYPE
  5
15
330
5
100
AcDbSymbolTableRecord
100
AcDbLinetypeTableRecord
  2
ByLayer
 70
     0
  3

 72
    65
 73
     0
 40
0.0
  0
LTYPE
  5
16
330
5
100
AcDbSymbolTableRecord
100
AcDbLinetypeTableRecord
  2
Continuous
 70
     0
  3
Solid line
 72
    65
 73
     0
 40
0.0
  0
ENDTAB
  0
TABLE
  2
LAYER
  5
2
330
0
100
AcDbSymbolTable
 70
     1
  0
LAYER
  5
10
330
2
100
AcDbSymbolTableRecord
100
AcDbLayerTableRecord
  2
0
 70
     0
 62
     7
  6
Continuous
370
    -3
390
F
  0
ENDTAB
  0
TABLE
  2
STYLE
  5
3
330
0
100
AcDbSymbolTable
 70
     1
  0
STYLE
  5
11
330
3
100
AcDbSymbolTableRecord
100
AcDbTextStyleTableRecord
  2
Standard
 70
     0
 40
0.0
 41
1.0
 50
0.0
 71
     0
 42
0.2
  3
txt
  4

  0
ENDTAB
  0
TABLE
  2
VIEW
  5
6
330
0
100
AcDbSymbolTable
 70
     0
  0
ENDTAB
  0
TABLE
  2
UCS
  5
7
330
0
100
AcDbSymbolTable
 70
     0
  0
ENDTAB
  0
TABLE
  2
APPID
  5
9
330
0
100
AcDbSymbolTable
 70
     1
  0
APPID
  5
12
330
9
100
AcDbSymbolTableRecord
100
AcDbRegAppTableRecord
  2
ACAD
 70
     0
  0
ENDTAB
  0
TABLE
  2
DIMSTYLE
  5
A
330
0
100
AcDbSymbolTable
 70
     1
100
AcDbDimStyleTable
  0
DIMSTYLE
105
27
330
A
100
AcDbSymbolTableRecord
100
AcDbDimStyleTableRecord
  2
Standard
 70
     0
340
11
  0
ENDTAB
  0
TABLE
  2
BLOCK_RECORD
  5
1
330
0
100
AcDbSymbolTable
 70
     1
  0
BLOCK_RECORD
  5
1F
330
1
100
AcDbSymbolTableRecord
100
AcDbBlockTableRecord
  2
*Model_Space
340
22
  0
BLOCK_RECORD
  5
1B
330
1
100
AcDbSymbolTableRecord
100
AcDbBlockTableRecord
  2
*Paper_Space
340
1E
  0
ENDTAB
  0
ENDSEC
  0
SECTION
  2
BLOCKS
  0
BLOCK
  5
20
330
1F
100
AcDbEntity
  8
0
100
AcDbBlockBegin
  2
*Model_Space
 70
     0
 10
0.0
 20
0.0
 30
0.0
  3
*Model_Space
  1

  0
ENDBLK
  5
21
330
1F
100
AcDbEntity
  8
0
100
AcDbBlockEnd
  0
BLOCK
  5
1C
330
1B
100
AcDbEntity
 67
     1
  8
0
100
AcDbBlockBegin
  2
*Paper_Space
 70
     0
 10
0.0
 20
0.0
 30
0.0
  3
*Paper_Space
  1

  0
ENDBLK
  5
1D
330
1B
100
AcDbEntity
 67
     1
  8
0
100
AcDbBlockEnd
  0
ENDSEC
  0
SECTION
  2
ENTITIES
  0
LWPOLYLINE
  5
20000
100
AcDbEntity
  8
0
100
AcDbPolyline
 70
0
 90
17
 10
97503.7570000002
 20
107326.083
 10
97508.7350000003
 20
107328.938
 10
97513.1619999995
 20
107331.476
 10
97513.5829999996
 20
107330.752
 10
97514.608
 20
107328.989
 10
97514.6600000001
 20
107328.899
 10
97515.1109999996
 20
107328.124
 10
97514.3150000004
 20
107327.669
 10
97512.767
 20
107326.782
 10
97513.0159999998
 20
107326.348
 10
97513.8109999998
 20
107324.962
 10
97511.9900000002
 20
107323.918
 10
97511.1220000004
 20
107323.42
 10
97506.7290000003
 20
107320.901
 10
97506.4800000004
 20
107321.335
 10
97505.9340000004
 20
107322.287
 10
97503.7570000002
 20
107326.083
  0
LWPOLYLINE
  5
20001
100
AcDbEntity
  8
0
100
AcDbPolyline
 70
0
 90
10
 10
97506.7290000003
 20
107320.901
 10
97511.1220000004
 20
107323.42
 10
97511.9900000002
 20
107323.918
 10
97512.6380000003
 20
107322.788
 10
97511.7690000003
 20
107322.291
 10
97511.9519999996
 20
107321.972
 10
97512.9210000001
 20
107320.283
 10
97511.8109999998
 20
107316.85
 10
97508.5700000003
 20
107317.69
 10
97506.7290000003
 20
107320.901
  0
LWPOLYLINE
  5
20002
100
AcDbEntity
  8
0
100
AcDbPolyline
 70
0
 90
6
 10
97538.0939999996
 20
107372.669
 10
97540.2640000004
 20
107373.923
 10
97544.6529999999
 20
107366.324
 10
97542.483
 20
107365.07
 10
97539.4950000001
 20
107370.244
 10
97538.0939999996
 20
107372.669
  0
LWPOLYLINE
  5
20003
100
AcDbEntity
  8
0
100
AcDbPolyline
 70
0
 90
6
 10
97543.1720000003
 20
107375.603
 10
97543.9749999996
 20
107376.067
 10
97545.2369999997
 20
107373.883
 10
97548.3650000002
 20
107368.468
 10
97547.5609999998
 20
107368.003
 10
97543.1720000003
 20
107375.603
  0
LWPOLYLINE
  5
20004
100
AcDbEntity
  8
0
100
AcDbPolyline
 70
0
 90
5
 10
97543.9749999996
 20
107376.067
 10
97548.4630000005
 20
107378.659
 10
97549.7249999996
 20
107376.475
 10
97545.2369999997
 20
107373.883
 10
97543.9749999996
 20
107376.067
  0
LWPOLYLINE
  5
20005
100
AcDbEntity
  8
0
100
AcDbPolyline
 70
0
 90
7
 10
97545.2369999997
 20
107373.883
 10
97549.7249999996
 20
107376.475
 10
97548.4630000005
 20
107378.659
 10
97552.5259999996
 20
107381.006
 10
97556.9170000004
 20
107373.408
 10
97548.3650000002
 20
107368.468
 10
97545.2369999997
 20
107373.883
  0
LWPOLYLINE
  5
20006
100
AcDbEntity
  8
0
100
AcDbPolyline
 70
0
 90
9
 10
97556.8439999996
 20
107383.501
 10
97558.4079999998
 20
107384.404
 10
97561.6840000004
 20
107378.732
 10
97562.2580000004
 20
107377.738
 10
97561.5549999997
 20
107377.331
 10
97561.1840000004
 20
107377.974
 10
97560.3250000002
 20
107377.475
 10
97559.7949999999
 20
107378.393
 10
97556.8439999996
 20
107383.501
  0
LWPOLYLINE
  5
20007
100
AcDbEntity
  8
0
100
AcDbPolyline
 70
0
 90
10
 10
97558.4079999998
 20
107384.404
 10
97567.2690000003
 20
107389.523
 10
97567.7110000001
 20
107388.757
 10
97571.1529999999
 20
107382.799
 10
97571.659
 20
107381.923
 10
97566.8597999997
 20
107379.1508
 10
97566.2659999998
 20
107378.808
 10
97565.1529999999
 20
107380.735
 10
97561.6840000004
 20
107378.732
 10
97558.4079999998
 20
107384.404
  0
LWPOLYLINE
  5
20008
100
AcDbEntity
  8
0
100
AcDbPolyline
 70
0
 90
7
 10
97560.3250000002
 20
107377.475
 10
97561.1840000004
 20
107377.974
 10
97561.5549999997
 20
107377.331
 10
97562.2580000004
 20
107377.738
 10
97562.7970000003
 20
107376.803999999
 10
97561.2340000002
 20
107375.901
 10
97560.3250000002
 20
107377.475
  0
LWPOLYLINE
  5
20009
100
AcDbEntity
  8
0
100
AcDbPolyline
 70
0
 90
6
 10
97561.6840000004
 20
107378.732
 10
97565.1529999999
 20
107380.735
 10
97566.2659999998
 20
107378.808
 10
97562.7970000003
 20
107376.803999999
 10
97562.2580000004
 20
107377.738
 10
97561.6840000004
 20
107378.732
  0
LWPOLYLINE
  5
2000A
100
AcDbEntity
  8
0
100
AcDbPolyline
 70
0
 90
5
 10
97495.9879999999
 20
107401.737
 10
97498.7939999998
 20
107403.359
 10
97501.5199999996
 20
107398.639
 10
97498.7139999997
 20
107397.019
 10
97495.9879999999
 20
107401.737
  0
LWPOLYLINE
  5
2000B
100
AcDbEntity
  8
0
100
AcDbPolyline
 70
0
 90
25
 10
97500.6560000004
 20
107393.658
 10
97506.9840000002
 20
107397.317
 10
97508.1090000002
 20
107397.968
 10
97508.3619999997
 20
107397.528
 10
97510.341
 20
107394.083
 10
97509.2259999998
 20
107393.439
 10
97507.5140000004
 20
107392.45
 10
97508.625
 20
107390.527
 10
97509.8169999998
 20
107388.465
 10
97510.5920000002
 20
107387.124
 10
97512.6830000002
 20
107388.332
 10
97512.1639999999
 20
107389.231
 10
97512.8880000003
 20
107389.65
 10
97513.4050000003
 20
107388.75
 10
97514.5290000001
 20
107386.793
 10
97510.9359999998
 20
107384.732
 10
97509.159
 20
107387.683
 10
97507.6699999999
 20
107386.829
 10
97506.6859999998
 20
107388.546
 10
97506.0700000003
 20
107388.193
 10
97505.6100000003
 20
107388.995
 10
97503.9129999997
 20
107388.022
 10
97503.4910000004
 20
107388.753
 10
97502.7400000002
 20
107390.052
 10
97500.6560000004
 20
107393.658
  0
LWPOLYLINE
  5
2000C
100
AcDbEntity
  8
0
100
AcDbPolyline
 70
0
 90
14
 10
97503.9130859375
 20
107388.022094727
 10
97505.6101074219
 20
107388.995117188
 10
97506.0701293945
 20
107388.193115234
 10
97506.6860961914
 20
107388.546081543
 10
97507.6701049805
 20
107386.829101562
 10
97509.1591186523
 20
107387.683105469
 10
97510.9360961914
 20
107384.732116699
 10
97509.3081054688
 20
107383.79888916
 10
97507.4354858398
 20
107382.72467041
 10
97507.0891113281
 20
107382.526123047
 10
97505.5911254883
 20
107385.118103027
 10
97505.4910888672
 20
107385.29107666
 10
97505.3660888672
 20
107385.508117676
 10
97503.9130859375
 20
107388.022094727
  0
LWPOLYLINE
  5
2000D
100
AcDbEntity
  8
0
100
AcDbPolyline
 70
0
 90
6
 10
97561.9630000005
 20
107356.505
 10
97564.8890000004
 20
107358.195
 10
97565.6469999999
 20
107358.633
 10
97567.8059999999
 20
107354.895
 10
97564.1469999999
 20
107352.75
 10
97561.9630000005
 20
107356.505
  0
LWPOLYLINE
  5
2000E
100
AcDbEntity
  8
0
100
AcDbPolyline
 70
0
 90
13
 10
97564.1469999999
 20
107352.75
 10
97567.8059999999
 20
107354.895
 10
97565.6469999999
 20
107358.633
 10
97570.5609999998
 20
107361.471
 10
97572.3499999996
 20
107358.395
 10
97572.9019999998
 20
107357.445
 10
97573.8080000002
 20
107355.887
 10
97573.0310000004
 20
107355.421
 10
97571.9390000002
 20
107357.3
 10
97569.5010000002
 20
107355.882
 10
97571.6169999996
 20
107352.243
 10
97566.2549999999
 20
107349.125
 10
97564.1469999999
 20
107352.75
  0
LWPOLYLINE
  5
2000F
100
AcDbEntity
  8
0
100
AcDbPolyline
 70
0
 90
18
 10
97478.6399999997
 20
107391.713
 10
97483.1880000001
 20
107394.341
 10
97484.0329999998
 20
107394.83
 10
97486.7359999996
 20
107390.153
 10
97488.3739999998
 20
107387.318
 10
97489.2560000001
 20
107387.827
 10
97484.915
 20
107395.339
 10
97487.085
 20
107396.593
 10
97488.7300000004
 20
107393.746
 10
97491.4249999998
 20
107389.081
 10
97493.8200000003
 20
107384.936
 10
97493.7960000001
 20
107384.922
 10
97493.6660000002
 20
107384.848
 10
97490.7630000003
 20
107383.183
 10
97485.3590000002
 20
107380.084
 10
97482.4139999999
 20
107385.181
 10
97481.3090000004
 20
107387.094
 10
97478.6399999997
 20
107391.713
  0
LWPOLYLINE
  5
20010
100
AcDbEntity
  8
0
100
AcDbPolyline
 70
0
 90
17
 10
97513.5829999996
 20
107330.752
 10
97514.3619999997
 20
107331.205
 10
97515.2750000004
 20
107329.635
 10
97518.9500000002
 20
107331.772
 10
97520.2340000002
 20
107332.519
 10
97520.9919999996
 20
107331.213
 10
97522.9220000003
 20
107332.336
 10
97524.4960000003
 20
107329.643
 10
97527.7779999999
 20
107324.133
 10
97520.0460000001
 20
107319.637
 10
97518.3930000002
 20
107322.479
 10
97517.625
 20
107323.801
 10
97516.7860000003
 20
107325.243
 10
97515.1109999996
 20
107328.124
 10
97514.6600000001
 20
107328.899
 10
97514.608
 20
107328.989
 10
97513.5829999996
 20
107330.752
  0
LWPOLYLINE
  5
20011
100
AcDbEntity
  8
0
100
AcDbPolyline
 70
0
 90
6
 10
97518.9340000004
 20
107334.786
 10
97520.8490000004
 20
107335.885
 10
97522.9220000003
 20
107332.336
 10
97520.9919999996
 20
107331.213
 10
97520.2340000002
 20
107332.519
 10
97518.9340000004
 20
107334.786
  0
LWPOLYLINE
  5
20012
100
AcDbEntity
  8
0
100
AcDbPolyline
 70
0
 90
5
 10
97512.5240000002
 20
107351.506
 10
97518.5980000002
 20
107354.985
 10
97521.5800000001
 20
107349.779
 10
97515.5060000001
 20
107346.3
 10
97512.5240000002
 20
107351.506
  0
LWPOLYLINE
  5
20013
100
AcDbEntity
  8
0
100
AcDbPolyline
 70
0
 90
9
 10
97523.0640000002
 20
107361.123
 10
97527.3650000002
 20
107363.589
 10
97526.1220000004
 20
107365.755
 10
97530.2740000002
 20
107368.153
 10
97534.6639999999
 20
107360.553
 10
97533.625
 20
107359.953
 10
97530.7790000001
 20
107358.309
 10
97526.2120000003
 20
107355.671
 10
97523.0640000002
 20
107361.123
  0
LWPOLYLINE
  5
20014
100
AcDbEntity
  8
0
100
AcDbPolyline
 70
0
 90
9
 10
97493.4139999999
 20
107344.12
 10
97499.7419999996
 20
107347.749
 10
97501.2869999995
 20
107345.056
 10
97504.3200000003
 20
107346.796
 10
97511.9019999998
 20
107333.572
 10
97507.5190000003
 20
107331.059
 10
97508.7350000003
 20
107328.938
 10
97503.7570000002
 20
107326.083
 10
97493.4139999999
 20
107344.12
  0
LWPOLYLINE
  5
20015
100
AcDbEntity
  8
0
100
AcDbPolyline
 70
0
 90
5
 10
97504.3200000003
 20
107346.796
 10
97511.9570000004
 20
107351.177
 10
97519.6210000003
 20
107337.996
 10
97511.9019999998
 20
107333.572
 10
97504.3200000003
 20
107346.796
  0
LWPOLYLINE
  5
20016
100
AcDbEntity
  8
0
100
AcDbPolyline
 70
0
 90
7
 10
97511.9570000004
 20
107351.177
 10
97512.5240000002
 20
107351.506
 10
97515.5060000001
 20
107346.3
 10
97521.5800000001
 20
107349.779
 10
97526.1799999997
 20
107341.755
 10
97519.6210000003
 20
107337.996
 10
97511.9570000004
 20
107351.177
  0
LWPOLYLINE
  5
20017
100
AcDbEntity
  8
0
100
AcDbPolyline
 70
0
 90
20
 10
97550.1210000003
 20
107359.524
 10
97551.2345000003
 20
107360.165300001
 10
97557.6770000001
 20
107363.876
 10
97559.932
 20
107359.998
 10
97559.0580000002
 20
107359.49
 10
97557.9529999997
 20
107358.848
 10
97557.2419999996
 20
107360.071000001
 10
97555.6239999998
 20
107359.13
 10
97557.2709999997
 20
107356.295
 10
97558.0389999999
 20
107356.748
 10
97562.0970000001
 20
107349.771
 10
97561.3229999999
 20
107349.321000001
 10
97558.7529999996
 20
107347.827
 10
97560.3289999999
 20
107345.119
 10
97558.96
 20
107344.324
 10
97557.3849999998
 20
107347.032
 10
97555.3550000004
 20
107350.524
 10
97553.3459999999
 20
107353.979
 10
97551.6469999999
 20
107356.9
 10
97550.1210000003
 20
107359.524
  0
LWPOLYLINE
  5
20018
100
AcDbEntity
  8
0
100
AcDbPolyline
 70
0
 90
23
 10
97555.6239999998
 20
107359.13
 10
97557.2419999996
 20
107360.071000001
 10
97557.9529999997
 20
107358.848
 10
97558.8839999996
 20
107357.247
 10
97560.9079999998
 20
107353.767
 10
97562.0120000001
 20
107354.411
 10
97563.2690000003
 20
107352.25
 10
97562.165
 20
107351.606
 10
97564.6789999995
 20
107347.283
 10
97565.784
 20
107347.927
 10
97566.6560000004
 20
107348.435
 10
97567.3949999996
 20
107347.165
 10
97566.5219999999
 20
107346.658
 10
97565.4160000002
 20
107346.015
 10
97559.8559999997
 20
107342.783
 10
97558.96
 20
107344.324
 10
97560.3289999999
 20
107345.119
 10
97558.7529999996
 20
107347.827
 10
97561.3229999999
 20
107349.321000001
 10
97562.0970000001
 20
107349.771
 10
97558.0389999999
 20
107356.748
 10
97557.2709999997
 20
107356.295
 10
97555.6239999998
 20
107359.13
  0
LWPOLYLINE
  5
20019
100
AcDbEntity
  8
0
100
AcDbPolyline
 70
0
 90
18
 10
97509.8712768555
 20
107374.72668457
 10
97503.7980957031
 20
107371.24407959
 10
97501.962097168
 20
107370.190917969
 10
97499.930480957
 20
107373.864685059
 10
97498.2026977539
 20
107372.871704102
 10
97497.6068725586
 20
107373.908325195
 10
97493.9290771484
 20
107371.748474121
 10
97496.5935058594
 20
107367.112915039
 10
97493.3731079102
 20
107365.266113281
 10
97485.2891235352
 20
107360.630310059
 10
97481.2584838867
 20
107367.715881348
 10
97482.8430786133
 20
107368.624084473
 10
97488.5531005859
 20
107371.899108887
 10
97507.0891113281
 20
107382.526123047
 10
97507.4353027344
 20
107382.72467041
 10
97509.9083251953
 20
107378.346313477
 10
97508.3040771484
 20
107377.378112793
 10
97509.8712768555
 20
107374.72668457
  0
LWPOLYLINE
  5
2001A
100
AcDbEntity
  8
0
100
AcDbPolyline
 70
0
 90
7
 10
97513.426216797
 20
107376.765233398
 10
97509.8714072267
 20
107374.726598144
 10
97508.3040244142
 20
107377.378209473
 10
97509.9083945313
 20
107378.346227051
 10
97507.4353720704
 20
107382.724645019
 10
97509.3079916993
 20
107383.798802734
 10
97513.426216797
 20
107376.765233398
  0
LWPOLYLINE
  5
2001B
100
AcDbEntity
  8
0
100
AcDbPolyline
 70
0
 90
8
 10
97501.962097168
 20
107370.190917969
 10
97501.8890991211
 20
107370.149108887
 10
97496.5935058594
 20
107367.112915039
 10
97493.9290771484
 20
107371.748474121
 10
97497.6068725586
 20
107373.908325195
 10
97498.2026977539
 20
107372.871704102
 10
97499.930480957
 20
107373.864685059
 10
97501.962097168
 20
107370.190917969
  0
LWPOLYLINE
  5
2001C
100
AcDbEntity
  8
0
100
AcDbPolyline
 70
0
 90
8
 10
97513.4263305664
 20
107376.765319824
 10
97509.3081054688
 20
107383.79888916
 10
97510.9360961914
 20
107384.732116699
 10
97514.5291137695
 20
107386.79309082
 10
97516.1671142578
 20
107383.943115234
 10
97517.8790893555
 20
107380.962097168
 10
97518.5891113281
 20
107379.726074219
 10
97513.4263305664
 20
107376.765319824
  0
LWPOLYLINE
  5
2001D
100
AcDbEntity
  8
0
100
AcDbPolyline
 70
0
 90
5
 10
97485.2891235352
 20
107360.630310059
 10
97484.2791137695
 20
107360.051086426
 10
97480.2241210938
 20
107367.12310791
 10
97481.2584838867
 20
107367.715881348
 10
97485.2891235352
 20
107360.630310059
  0
LWPOLYLINE
  5
2001E
100
AcDbEntity
  8
0
100
AcDbPolyline
 70
0
 90
19
 10
97570.5609999998
 20
107361.471
 10
97572.1940000001
 20
107362.414
 10
97575.3490000004
 20
107364.271
 10
97575.5120000001
 20
107364.367
 10
97575.8899999997
 20
107364.589
 10
97579.0259999996
 20
107366.47
 10
97579.3260000004
 20
107366.65
 10
97579.7750000004
 20
107366.919
 10
97580.1840000004
 20
107367.164
 10
97583.4500000002
 20
107361.51
 10
97582.0899999999
 20
107355.709
 10
97580.7470000004
 20
107354.928
 10
97579.6179999998
 20
107354.272
 10
97575.9780000001
 20
107352.156
 10
97574.1679999996
 20
107355.268
 10
97573.8080000002
 20
107355.887
 10
97572.9019999998
 20
107357.445
 10
97572.3499999996
 20
107358.395
 10
97570.5609999998
 20
107361.471
  0
LWPOLYLINE
  5
2001F
100
AcDbEntity
  8
0
100
AcDbPolyline
 70
0
 90
17
 10
97493.3731079102
 20
107365.266113281
 10
97496.5935058594
 20
107367.112915039
 10
97501.962097168
 20
107370.190917969
 10
97503.7980957031
 20
107371.24407959
 10
97504.3660888672
 20
107370.252075195
 10
97502.8811035156
 20
107369.401123047
 10
97505.1340942383
 20
107365.469116211
 10
97508.3681030273
 20
107367.317077637
 10
97506.1110839844
 20
107371.252075195
 10
97507.5531005859
 20
107372.079101562
 10
97510.6151123047
 20
107373.835083008
 10
97514.987121582
 20
107366.203125
 10
97510.6851196289
 20
107363.736083984
 10
97506.8720703125
 20
107361.549072266
 10
97502.3870849609
 20
107358.977111816
 10
97498.3170776367
 20
107356.644104004
 10
97493.3731079102
 20
107365.266113281
  0
LWPOLYLINE
  5
20020
100
AcDbEntity
  8
0
100
AcDbPolyline
 70
0
 90
20
 10
97529.3969999999
 20
107343.599
 10
97536.8480000002
 20
107347.873
 10
97537.4560000002
 20
107346.827
 10
97538.8399999999
 20
107344.447
 10
97540.8389999997
 20
107341.009
 10
97536.2609999999
 20
107338.346
 10
97537.4950000001
 20
107336.224
 10
97536.9009999996
 20
107335.879
 10
97537.6979999999
 20
107334.508
 10
97539.7000000002
 20
107331.064
 10
97537.4519999996
 20
107329.757
 10
97536.8370000003
 20
107330.814
 10
97535.9910000004
 20
107332.268
 10
97535.4479999999
 20
107333.201
 10
97534.6500000004
 20
107334.572
 10
97534.2249999996
 20
107335.302
 10
97533.1330000004
 20
107337.178
 10
97532.4139999999
 20
107338.414
 10
97531.0449999999
 20
107340.767
 10
97529.3969999999
 20
107343.599
  0
LWPOLYLINE
  5
20021
100
AcDbEntity
  8
0
100
AcDbPolyline
 70
0
 90
7
 10
97545.6710000001
 20
107349.955
 10
97547.5300000003
 20
107351.036
 10
97551.6509999996
 20
107343.947
 10
97549.7920000004
 20
107342.867
 10
97549.301
 20
107343.711
 10
97548.6459999997
 20
107344.839
 10
97545.6710000001
 20
107349.955
  0
LWPOLYLINE
  5
20022
100
AcDbEntity
  8
0
100
AcDbPolyline
 70
0
 90
5
 10
97542.6189999999
 20
107355.203
 10
97550.1210000003
 20
107359.524
 10
97551.6469999999
 20
107356.9
 10
97544.1629999997
 20
107352.548
 10
97542.6189999999
 20
107355.203
  0
LWPOLYLINE
  5
20023
100
AcDbEntity
  8
0
100
AcDbPolyline
 70
0
 90
12
 10
97547.5300000003
 20
107351.036
 10
97552.0539999995
 20
107353.665
 10
97554.2520000003
 20
107349.883
 10
97555.3550000004
 20
107350.524
 10
97557.3849999998
 20
107347.032
 10
97558.96
 20
107344.324
 10
97559.8559999997
 20
107342.783
 10
97552.3710000003
 20
107338.432
 10
97551.9189999998
 20
107339.21
 10
97549.7920000004
 20
107342.867
 10
97551.6509999996
 20
107343.947
 10
97547.5300000003
 20
107351.036
  0
LWPOLYLINE
  5
20024
100
AcDbEntity
  8
0
100
AcDbPolyline
 70
0
 90
9
 10
97518.3219999997
 20
107414.643
 10
97518.7400000002
 20
107414.884
 10
97524.3569999998
 20
107418.13
 10
97524.5700000003
 20
107418.253
 10
97525.3810000001
 20
107416.85
 10
97528.1840000004
 20
107411.999
 10
97524.0099999998
 20
107409.582
 10
97521.9390000002
 20
107408.383
 10
97518.3219999997
 20
107414.643
  0
LWPOLYLINE
  5
20025
100
AcDbEntity
  8
0
100
AcDbPolyline
 70
0
 90
12
 10
97523.0379999997
 20
107406.482
 10
97525.1100000003
 20
107407.678999999
 10
97528.2209999999
 20
107409.477
 10
97531.4050000003
 20
107403.967
 10
97532.4890000001
 20
107402.091
 10
97534.7620000001
 20
107403.427
 10
97535.9280000003
 20
107401.41
 10
97532.7989999996
 20
107399.559
 10
97532.0109999999
 20
107399.092
 10
97528.5060000001
 20
107397.018
 10
97527.3049999997
 20
107399.096
 10
97523.0379999997
 20
107406.482
  0
LWPOLYLINE
  5
20026
100
AcDbEntity
  8
0
100
AcDbPolyline
 70
0
 90
5
 10
97524.5700000003
 20
107418.253
 10
97525.7889999999
 20
107418.957
 10
97526.5970000001
 20
107417.558
 10
97525.3810000001
 20
107416.85
 10
97524.5700000003
 20
107418.253
  0
LWPOLYLINE
  5
20027
100
AcDbEntity
  8
0
100
AcDbPolyline
 70
0
 90
22
 10
97566.8599243164
 20
107379.150878906
 10
97568.8560791016
 20
107375.685119629
 10
97567.2416992188
 20
107374.755310059
 10
97566.7252807617
 20
107375.652099609
 10
97565.9404907227
 20
107375.200073242
 10
97565.3925170898
 20
107376.151489258
 10
97563.7600708008
 20
107375.211120605
 10
97564.329284668
 20
107374.223083496
 10
97559.2987060547
 20
107371.325500488
 10
97562.1165161133
 20
107366.433105469
 10
97557.6771240234
 20
107363.876098633
 10
97551.2344970703
 20
107360.165283203
 10
97549.6959228516
 20
107362.836730957
 10
97548.6978759766
 20
107362.261901855
 10
97545.9326782227
 20
107367.062683105
 10
97547.5610961914
 20
107368.003112793
 10
97548.3651123047
 20
107368.468078613
 10
97556.9171142578
 20
107373.408081055
 10
97561.2341308594
 20
107375.901123047
 10
97562.7971191406
 20
107376.804077148
 10
97566.2661132812
 20
107378.808105469
 10
97566.8599243164
 20
107379.150878906
  0
LWPOLYLINE
  5
20028
100
AcDbEntity
  8
0
100
AcDbPolyline
 70
0
 90
5
 10
97573.6760864258
 20
107377.350097656
 10
97574.1533203125
 20
107377.604309082
 10
97575.9901123047
 20
107374.424072266
 10
97575.5588989258
 20
107374.175720215
 10
97573.6760864258
 20
107377.350097656
  0
LWPOLYLINE
  5
20029
100
AcDbEntity
  8
0
100
AcDbPolyline
 70
0
 90
14
 10
97573.6760864258
 20
107377.350097656
 10
97575.5588989258
 20
107374.175720215
 10
97575.1231079102
 20
107373.925109863
 10
97571.6520996094
 20
107371.926086426
 10
97568.7794799805
 20
107370.270874023
 10
97566.3436889648
 20
107374.49987793
 10
97565.9404907227
 20
107375.200073242
 10
97566.7252807617
 20
107375.652099609
 10
97567.2416992188
 20
107374.755310059
 10
97568.8560791016
 20
107375.685119629
 10
97566.8599243164
 20
107379.150878906
 10
97571.6591186523
 20
107381.923095703
 10
97574.1533203125
 20
107377.604309082
 10
97573.6760864258
 20
107377.350097656
  0
LWPOLYLINE
  5
2002A
100
AcDbEntity
  8
0
100
AcDbPolyline
 70
0
 90
7
 10
97564.329284668
 20
107374.223083496
 10
97563.7600708008
 20
107375.211120605
 10
97565.3925170898
 20
107376.151489258
 10
97565.9404907227
 20
107375.200073242
 10
97566.3436889648
 20
107374.49987793
 10
97564.7113037109
 20
107373.559692383
 10
97564.329284668
 20
107374.223083496
  0
LWPOLYLINE
  5
2002B
100
AcDbEntity
  8
0
100
AcDbPolyline
 70
0
 90
15
 10
97525.7889999999
 20
107418.957
 10
97526.5120000001
 20
107419.375
 10
97532.7699999996
 20
107422.991
 10
97533.3320000004
 20
107423.316
 10
97536.3899999997
 20
107418.025
 10
97536.5250000004
 20
107417.792
 10
97536.8020000001
 20
107417.313
 10
97537.7719999999
 20
107415.634
 10
97537.0889999997
 20
107415.232
 10
97536.1629999997
 20
107416.825
 10
97532.3899999997
 20
107414.633
 10
97534.0980000002
 20
107411.694
 10
97531.0180000002
 20
107409.906
 10
97526.5970000001
 20
107417.558
 10
97525.7889999999
 20
107418.957
  0
LWPOLYLINE
  5
2002C
100
AcDbEntity
  8
0
100
AcDbPolyline
 70
0
 90
24
 10
97519.6210000003
 20
107337.996
 10
97526.1799999997
 20
107341.755
 10
97527.25
 20
107342.369
 10
97528.3140000002
 20
107342.978
 10
97529.3969999999
 20
107343.599
 10
97531.0449999999
 20
107340.767
 10
97532.4139999999
 20
107338.414
 10
97533.1330000004
 20
107337.178
 10
97532.2649999997
 20
107336.683
 10
97533.3609999996
 20
107334.798
 10
97534.2249999996
 20
107335.302
 10
97534.6500000004
 20
107334.572
 10
97535.4479999999
 20
107333.201
 10
97535.9910000004
 20
107332.268
 10
97533.8480000002
 20
107331.022
 10
97534.6940000001
 20
107329.568
 10
97536.8370000003
 20
107330.814
 10
97537.4519999996
 20
107329.757
 10
97535.3090000004
 20
107328.511
 10
97527.7779999999
 20
107324.133
 10
97524.4960000003
 20
107329.643
 10
97522.9220000003
 20
107332.336
 10
97520.8490000004
 20
107335.885
 10
97519.6210000003
 20
107337.996
  0
LWPOLYLINE
  5
2002D
100
AcDbEntity
  8
0
100
AcDbPolyline
 70
0
 90
5
 10
97527.3310000002
 20
107335.019
 10
97530.4649999999
 20
107336.842
 10
97532.085
 20
107334.056
 10
97528.9510000004
 20
107332.234
 10
97527.3310000002
 20
107335.019
  0
LWPOLYLINE
  5
2002E
100
AcDbEntity
  8
0
100
AcDbPolyline
 70
0
 90
6
 10
97531.7488583988
 20
107383.654835938
 10
97528.636858887
 20
107381.909047363
 10
97526.3550595706
 20
107385.858998535
 10
97528.3150205081
 20
107386.991017578
 10
97529.4450253909
 20
107387.644032715
 10
97531.7488583988
 20
107383.654835938
  0
LWPOLYLINE
  5
2002F
100
AcDbEntity
  8
0
100
AcDbPolyline
 70
0
 90
6
 10
97535.2860288089
 20
107367.812001465
 10
97538.2900571292
 20
107362.648
 10
97534.6640195316
 20
107360.553029297
 10
97530.2740048831
 20
107368.153004883
 10
97533.8770322269
 20
107370.233998535
 10
97535.2860288089
 20
107367.812001465
  0
LWPOLYLINE
  5
20030
100
AcDbEntity
  8
0
100
AcDbPolyline
 70
0
 90
21
 10
97534.6469116211
 20
107378.637512207
 10
97555.3267211914
 20
107390.827514648
 10
97553.6766967773
 20
107393.836730957
 10
97532.7929077148
 20
107381.847717285
 10
97531.7489013672
 20
107383.654907227
 10
97529.4451293945
 20
107387.644104004
 10
97532.8021240234
 20
107389.583129883
 10
97539.1730957031
 20
107393.263122559
 10
97542.462097168
 20
107395.163085938
 10
97558.5961303711
 20
107404.482116699
 10
97567.2691040039
 20
107389.523071289
 10
97558.4080810547
 20
107384.40411377
 10
97556.8441162109
 20
107383.501098633
 10
97552.5261230469
 20
107381.006103516
 10
97548.4630737305
 20
107378.659118652
 10
97543.9750976562
 20
107376.067077637
 10
97543.1721191406
 20
107375.603088379
 10
97540.2640991211
 20
107373.923095703
 10
97538.0941162109
 20
107372.669128418
 10
97536.3405151367
 20
107375.705505371
 10
97534.6469116211
 20
107378.637512207
  0
LWPOLYLINE
  5
20031
100
AcDbEntity
  8
0
100
AcDbPolyline
 70
0
 90
8
 10
97538.0941162109
 20
107372.669128418
 10
97539.4951171875
 20
107370.24407959
 10
97538.1301269531
 20
107369.455078125
 10
97536.7291259766
 20
107371.881103516
 10
97534.7951049805
 20
107370.764099121
 10
97533.0217285156
 20
107373.847717285
 10
97536.3405151367
 20
107375.705505371
 10
97538.0941162109
 20
107372.669128418
  0
LWPOLYLINE
  5
20032
100
AcDbEntity
  8
0
100
AcDbPolyline
 70
0
 90
6
 10
97538.2900571292
 20
107362.648
 10
97535.2860288089
 20
107367.812001465
 10
97538.1300229495
 20
107369.455006836
 10
97539.4950131839
 20
107370.244008301
 10
97542.4830502933
 20
107365.06999707
 10
97538.2900571292
 20
107362.648
  0
LWPOLYLINE
  5
20033
100
AcDbEntity
  8
0
100
AcDbPolyline
 70
0
 90
12
 10
97471.5020000003
 20
107382.333
 10
97471.2400000002
 20
107382.79
 10
97472.75
 20
107388.31
 10
97472.96
 20
107388.431
 10
97474.6260000002
 20
107389.394
 10
97477.2960000001
 20
107384.775
 10
97478.4009999996
 20
107382.862
 10
97478.5659999996
 20
107382.577
 10
97481.3380000005
 20
107377.779
 10
97475.9009999996
 20
107374.661
 10
97473.1449999996
 20
107379.468
 10
97471.5020000003
 20
107382.333
  0
LWPOLYLINE
  5
20034
100
AcDbEntity
  8
0
100
AcDbPolyline
 70
0
 90
5
 10
97474.6260000002
 20
107389.394
 10
97478.6399999997
 20
107391.713
 10
97481.3090000004
 20
107387.094
 10
97477.2960000001
 20
107384.775
 10
97474.6260000002
 20
107389.394
  0
LWPOLYLINE
  5
20035
100
AcDbEntity
  8
0
100
AcDbPolyline
 70
0
 90
5
 10
97477.2960000001
 20
107384.775
 10
97481.3090000004
 20
107387.094
 10
97482.4139999999
 20
107385.181
 10
97478.4009999996
 20
107382.862
 10
97477.2960000001
 20
107384.775
  0
LWPOLYLINE
  5
20036
100
AcDbEntity
  8
0
100
AcDbPolyline
 70
0
 90
9
 10
97478.4009999996
 20
107382.862
 10
97482.4139999999
 20
107385.181
 10
97485.3590000002
 20
107380.084
 10
97483.301
 20
107378.904
 10
97483.1710000001
 20
107378.829
 10
97483.0410000002
 20
107378.754
 10
97481.3380000005
 20
107377.779
 10
97478.5659999996
 20
107382.577
 10
97478.4009999996
 20
107382.862
  0
LWPOLYLINE
  5
20037
100
AcDbEntity
  8
0
100
AcDbPolyline
 70
0
 90
10
 10
97505.1389160156
 20
107354.16027832
 10
97500.2973022461
 20
107351.36907959
 10
97501.7130737305
 20
107348.879089355
 10
97499.7421264648
 20
107347.749084473
 10
97493.4141235352
 20
107344.120117188
 10
97489.2230834961
 20
107351.429077148
 10
97498.3170776367
 20
107356.644104004
 10
97502.3870849609
 20
107358.977111816
 10
97504.4600830078
 20
107355.363098145
 10
97505.1389160156
 20
107354.16027832
  0
LWPOLYLINE
  5
20038
100
AcDbEntity
  8
0
100
AcDbPolyline
 70
0
 90
7
 10
97508.1427001953
 20
107359.332275391
 10
97507.587097168
 20
107359.005493164
 10
97508.3630981445
 20
107357.64630127
 10
97504.4600830078
 20
107355.363098145
 10
97502.3870849609
 20
107358.977111816
 10
97506.871887207
 20
107361.549072266
 10
97508.1427001953
 20
107359.332275391
  0
LWPOLYLINE
  5
20039
100
AcDbEntity
  8
0
100
AcDbPolyline
 70
0
 90
5
 10
97524.8936767578
 20
107368.145080566
 10
97516.9185180664
 20
107363.529907227
 10
97515.287109375
 20
107366.37487793
 10
97523.5410766602
 20
107371.108093262
 10
97524.8936767578
 20
107368.145080566
  0
LWPOLYLINE
  5
2003A
100
AcDbEntity
  8
0
100
AcDbPolyline
 70
0
 90
13
 10
97506.5526733398
 20
107351.654724121
 10
97505.1389160156
 20
107354.16027832
 10
97504.4600830078
 20
107355.363098145
 10
97508.3630981445
 20
107357.64630127
 10
97507.587097168
 20
107359.005310059
 10
97508.1427001953
 20
107359.332275391
 10
97511.9318847656
 20
107361.561279297
 10
97510.6851196289
 20
107363.736083984
 10
97514.987121582
 20
107366.203125
 10
97515.287109375
 20
107366.37512207
 10
97516.9185180664
 20
107363.529907227
 10
97519.4780883789
 20
107359.066101074
 10
97506.5526733398
 20
107351.654724121
  0
LWPOLYLINE
  5
2003B
100
AcDbEntity
  8
0
100
AcDbPolyline
 70
0
 90
9
 10
97528.5060000001
 20
107397.018
 10
97532.0109999999
 20
107399.092
 10
97532.483
 20
107398.295
 10
97533.3329999996
 20
107396.86
 10
97532.199
 20
107396.194
 10
97533.0530000003
 20
107394.762
 10
97530.6359999999
 20
107393.332
 10
97529.6500000004
 20
107395.038
 10
97528.5060000001
 20
107397.018
  0
LWPOLYLINE
  5
2003C
100
AcDbEntity
  8
0
100
AcDbPolyline
 70
0
 90
23
 10
97530.6361083984
 20
107393.332092285
 10
97533.0531005859
 20
107394.762084961
 10
97532.1990966797
 20
107396.194091797
 10
97533.3331298828
 20
107396.860107422
 10
97532.4830932617
 20
107398.29510498
 10
97534.4730834961
 20
107399.472106934
 10
97535.4451293945
 20
107399.556091309
 10
97537.4810791016
 20
107400.761108398
 10
97546.3110961914
 20
107405.989074707
 10
97546.8220825195
 20
107405.126098633
 10
97548.37109375
 20
107406.04309082
 10
97547.8601074219
 20
107406.90612793
 10
97547.1740722656
 20
107408.065124512
 10
97554.1511230469
 20
107412.194091797
 10
97554.9360961914
 20
107410.831115723
 10
97558.5961303711
 20
107404.482116699
 10
97542.462097168
 20
107395.163085938
 10
97540.2520751953
 20
107398.895080566
 10
97539.0181274414
 20
107398.164123535
 10
97536.9830932617
 20
107396.959106445
 10
97539.1730957031
 20
107393.263122559
 10
97532.8021240234
 20
107389.583129883
 10
97530.6361083984
 20
107393.332092285
  0
LWPOLYLINE
  5
2003D
100
AcDbEntity
  8
0
100
AcDbPolyline
 70
0
 90
6
 10
97536.983
 20
107396.959
 10
97539.0180000002
 20
107398.164
 10
97540.2520000003
 20
107398.895
 10
97542.4620000003
 20
107395.163
 10
97539.1730000004
 20
107393.263
 10
97536.983
 20
107396.959
  0
LWPOLYLINE
  5
2003E
100
AcDbEntity
  8
0
100
AcDbPolyline
 70
0
 90
38
 10
97503.4620000003
 20
107406.056
 10
97509.8949999996
 20
107409.773
 10
97511.165
 20
107410.507
 10
97511.7290000003
 20
107409.47
 10
97510.807
 20
107408.934
 10
97510.46
 20
107408.732
 10
97510.8250000002
 20
107408.059
 10
97508.7949999999
 20
107406.959
 10
97510.5899999999
 20
107403.653
 10
97511.5880000005
 20
107404.229
 10
97513.6840000004
 20
107400.603
 10
97515.2999999998
 20
107397.806
 10
97516.1320000002
 20
107398.274
 10
97517.2390000001
 20
107396.234
 10
97517.5870000003
 20
107396.431
 10
97518.5389999999
 20
107396.94
 10
97519.2259999998
 20
107395.675
 10
97518.2719999999
 20
107395.174
 10
97521.9570000004
 20
107388.392
 10
97522.9050000003
 20
107388.907
 10
97524.9900000002
 20
107385.071000001
 10
97521.3439999996
 20
107382.964
 10
97519.6239999998
 20
107385.941
 10
97519.3509999998
 20
107385.783
 10
97516.1670000004
 20
107383.943
 10
97514.5290000001
 20
107386.793
 10
97517.9859999996
 20
107388.776
 10
97518.3810000001
 20
107389.002
 10
97516.3329999996
 20
107392.573
 10
97512.4859999996
 20
107390.35
 10
97512.1160000004
 20
107390.994
 10
97511.4469999997
 20
107392.158
 10
97510.9110000003
 20
107393.09
 10
97510.341
 20
107394.083
 10
97508.3619999997
 20
107397.528
 10
97508.1090000002
 20
107397.968
 10
97506.2750000004
 20
107401.159
 10
97503.4620000003
 20
107406.056
  0
LWPOLYLINE
  5
2003F
100
AcDbEntity
  8
0
100
AcDbPolyline
 70
0
 90
9
 10
97512.4859999996
 20
107390.35
 10
97516.3329999996
 20
107392.573
 10
97518.3810000001
 20
107389.002
 10
97517.9859999996
 20
107388.776
 10
97514.5290000001
 20
107386.793
 10
97513.4050000003
 20
107388.75
 10
97512.8880000003
 20
107389.65
 10
97512.6330000004
 20
107390.093
 10
97512.4859999996
 20
107390.35
  0
LWPOLYLINE
  5
20040
100
AcDbEntity
  8
0
100
AcDbPolyline
 70
0
 90
6
 10
97511.165
 20
107410.507
 10
97514.6150000002
 20
107412.501
 10
97517.6529999999
 20
107406.909
 10
97514.1540000001
 20
107405.008
 10
97511.7290000003
 20
107409.47
 10
97511.165
 20
107410.507
  0
LWPOLYLINE
  5
20041
100
AcDbEntity
  8
0
100
AcDbPolyline
 70
0
 90
14
 10
97517.273
 20
107399.268
 10
97522.6529999999
 20
107402.375
 10
97524.8870000001
 20
107398.507
 10
97525.7290000003
 20
107398.994
 10
97528.4299999997
 20
107394.321000001
 10
97527.0319999997
 20
107393.5
 10
97526.3059999999
 20
107393.074
 10
97525.8449999997
 20
107392.767
 10
97525.1660000002
 20
107392.375
 10
97523.0369999995
 20
107391.144
 10
97522.0109999999
 20
107390.551
 10
97519.2259999998
 20
107395.675
 10
97518.5389999999
 20
107396.94
 10
97517.273
 20
107399.268
  0
LWPOLYLINE
  5
20042
100
AcDbEntity
  8
0
100
AcDbPolyline
 70
0
 90
11
 10
97522.0111083984
 20
107390.551086426
 10
97523.037109375
 20
107391.144104004
 10
97523.8751220703
 20
107389.694091797
 10
97525.99609375
 20
107390.919128418
 10
97526.7440795898
 20
107389.62310791
 10
97527.9091186523
 20
107390.302124023
 10
97529.4451293945
 20
107387.644104004
 10
97526.3551025391
 20
107385.859130859
 10
97524.9901123047
 20
107385.071105957
 10
97522.905090332
 20
107388.907104492
 10
97522.0111083984
 20
107390.551086426
  0
LWPOLYLINE
  5
20043
100
AcDbEntity
  8
0
100
AcDbPolyline
 70
0
 90
9
 10
97526.3059999999
 20
107393.074
 10
97527.0319999997
 20
107393.5
 10
97528.4299999997
 20
107394.321000001
 10
97529.6500000004
 20
107395.038
 10
97530.6359999999
 20
107393.332
 10
97532.8020000001
 20
107389.583
 10
97529.4450000003
 20
107387.644
 10
97527.909
 20
107390.302
 10
97526.3059999999
 20
107393.074
  0
LWPOLYLINE
  5
20044
100
AcDbEntity
  8
0
100
AcDbPolyline
 70
0
 90
22
 10
97531.0180000002
 20
107409.906
 10
97534.0980000002
 20
107411.694
 10
97534.551
 20
107411.957
 10
97536.0930000003
 20
107409.3
 10
97539.75
 20
107411.423
 10
97541.4519999996
 20
107408.493
 10
97542.5599999996
 20
107406.584
 10
97540.7910000002
 20
107405.537
 10
97541.3339999998
 20
107404.609
 10
97536.7340000002
 20
107401.887
 10
97535.5719999997
 20
107403.899
 10
97536.6090000002
 20
107404.504
 10
97534.943
 20
107407.391
 10
97534.5669999998
 20
107407.174
 10
97533.9029999999
 20
107406.79
 10
97534.2359999996
 20
107406.214
 10
97535.0219999999
 20
107404.852
 10
97534.2110000001
 20
107404.38
 10
97533.6880000001
 20
107405.286
 10
97533.0899999999
 20
107406.32
 10
97531.2740000002
 20
107409.463
 10
97531.0180000002
 20
107409.906
  0
LWPOLYLINE
  5
20045
100
AcDbEntity
  8
0
100
AcDbPolyline
 70
0
 90
13
 10
97540.818
 20
107415.596
 10
97542.0360000003
 20
107416.303
 10
97542.7089999998
 20
107416.694
 10
97546.5310000004
 20
107418.912
 10
97546.9630000005
 20
107419.163
 10
97549.3389999997
 20
107420.543
 10
97553.6140000001
 20
107413.126
 10
97547.7070000004
 20
107409.63
 10
97546.6239999998
 20
107411.496
 10
97542.2209999999
 20
107408.939
 10
97540.7570000002
 20
107411.46
 10
97542.5990000004
 20
107412.529
 10
97540.818
 20
107415.596
  0
LWPOLYLINE
  5
20046
100
AcDbEntity
  8
0
100
AcDbPolyline
 70
0
 90
14
 10
97475.9011230469
 20
107374.661071777
 10
97481.3380737305
 20
107377.77911377
 10
97483.0410766602
 20
107378.754089355
 10
97484.0170898438
 20
107377.050109863
 10
97484.5620727539
 20
107376.099121094
 10
97483.6311035156
 20
107375.565124512
 10
97484.7551269531
 20
107373.607116699
 10
97481.1660766602
 20
107371.550109863
 10
97482.8430786133
 20
107368.624084473
 10
97481.2584838867
 20
107367.715881348
 10
97480.2241210938
 20
107367.12310791
 10
97479.6361083984
 20
107368.148071289
 10
97476.487121582
 20
107373.640075684
 10
97475.9011230469
 20
107374.661071777
  0
LWPOLYLINE
  5
20047
100
AcDbEntity
  8
0
100
AcDbPolyline
 70
0
 90
13
 10
97482.8430786133
 20
107368.624084473
 10
97481.1660766602
 20
107371.550109863
 10
97484.7551269531
 20
107373.607116699
 10
97483.6311035156
 20
107375.565124512
 10
97484.5620727539
 20
107376.099121094
 10
97484.6920776367
 20
107376.174072266
 10
97484.8231201172
 20
107376.249084473
 10
97485.753112793
 20
107376.78112793
 10
97486.3580932617
 20
107375.727111816
 10
97487.4130859375
 20
107373.886108398
 10
97488.1441040039
 20
107372.611083984
 10
97488.5531005859
 20
107371.899108887
 10
97482.8430786133
 20
107368.624084473
  0
LWPOLYLINE
  5
20048
100
AcDbEntity
  8
0
100
AcDbPolyline
 70
0
 90
22
 10
97484.0170898438
 20
107377.050109863
 10
97495.1651000977
 20
107383.440124512
 10
97494.1860961914
 20
107385.146118164
 10
97496.1381225586
 20
107386.265075684
 10
97497.1160888672
 20
107384.559082031
 10
97500.4880981445
 20
107386.491088867
 10
97502.2431030273
 20
107383.430114746
 10
97505.4910888672
 20
107385.29107666
 10
97505.5911254883
 20
107385.118103027
 10
97507.0891113281
 20
107382.526123047
 10
97488.5531005859
 20
107371.899108887
 10
97488.1441040039
 20
107372.611083984
 10
97487.4130859375
 20
107373.886108398
 10
97486.3580932617
 20
107375.727111816
 10
97498.2670898438
 20
107382.553100586
 10
97497.3900756836
 20
107384.082092285
 10
97485.4830932617
 20
107377.252075195
 10
97485.753112793
 20
107376.78112793
 10
97484.8231201172
 20
107376.249084473
 10
97484.6920776367
 20
107376.174072266
 10
97484.5620727539
 20
107376.099121094
 10
97484.0170898438
 20
107377.050109863
  0
LWPOLYLINE
  5
20049
100
AcDbEntity
  8
0
100
AcDbPolyline
 70
0
 90
6
 10
97485.483
 20
107377.252
 10
97497.3899999997
 20
107384.082
 10
97498.267
 20
107382.553
 10
97486.358
 20
107375.727
 10
97485.7529999996
 20
107376.781
 10
97485.483
 20
107377.252
  0
LWPOLYLINE
  5
2004A
100
AcDbEntity
  8
0
100
AcDbPolyline
 70
0
 90
7
 10
97500.1390000004
 20
107388.56
 10
97502.7400000002
 20
107390.052
 10
97503.4910000004
 20
107388.753
 10
97502.6239999998
 20
107388.256
 10
97502.3739999998
 20
107388.689
 10
97500.6399999997
 20
107387.694
 10
97500.1390000004
 20
107388.56
  0
LWPOLYLINE
  5
2004B
100
AcDbEntity
  8
0
100
AcDbPolyline
 70
0
 90
19
 10
97557.6770000001
 20
107363.876
 10
97562.1163999997
 20
107366.4331
 10
97562.7400000002
 20
107366.792
 10
97563.29
 20
107365.847
 10
97561.1960000005
 20
107364.607
 10
97561.8550000004
 20
107363.463
 10
97568.7869999995
 20
107367.456
 10
97569.6849999996
 20
107365.896
 10
97569.8490000004
 20
107365.611
 10
97570.2230000002
 20
107365.827
 10
97572.1940000001
 20
107362.414
 10
97570.5609999998
 20
107361.471
 10
97565.6469999999
 20
107358.633
 10
97564.8890000004
 20
107358.195
 10
97561.9630000005
 20
107356.505
 10
97561.8710000003
 20
107356.664
 10
97560.6969999997
 20
107358.683
 10
97559.932
 20
107359.998
 10
97557.6770000001
 20
107363.876
  0
LWPOLYLINE
  5
2004C
100
AcDbEntity
  8
0
100
AcDbPolyline
 70
0
 90
10
 10
97567.568
 20
107369.573
 10
97568.7795000002
 20
107370.2709
 10
97571.6519999998
 20
107371.926
 10
97573.9369999999
 20
107367.972
 10
97573.557
 20
107367.752
 10
97570.2230000002
 20
107365.827
 10
97569.8490000004
 20
107365.611
 10
97569.6849999996
 20
107365.896
 10
97568.7869999995
 20
107367.456
 10
97567.568
 20
107369.573
  0
LWPOLYLINE
  5
2004D
100
AcDbEntity
  8
0
100
AcDbPolyline
 70
0
 90
12
 10
97571.6520996094
 20
107371.926086426
 10
97575.1231079102
 20
107373.925109863
 10
97577.405090332
 20
107369.975097656
 10
97578.7510986328
 20
107367.645080566
 10
97579.3261108398
 20
107366.650085449
 10
97579.0261230469
 20
107366.470092773
 10
97575.8900756836
 20
107364.589111328
 10
97575.5120849609
 20
107364.367126465
 10
97574.1381225586
 20
107366.745117188
 10
97573.5571289062
 20
107367.752075195
 10
97573.9370727539
 20
107367.972106934
 10
97571.6520996094
 20
107371.926086426
  0
LWPOLYLINE
  5
2004E
100
AcDbEntity
  8
0
100
AcDbPolyline
 70
0
 90
6
 10
97578.7510000002
 20
107367.645
 10
97579.6090000002
 20
107368.16
 10
97580.1840000004
 20
107367.164
 10
97579.7750000004
 20
107366.919
 10
97579.3260000004
 20
107366.65
 10
97578.7510000002
 20
107367.645
  0
LWPOLYLINE
  5
2004F
100
AcDbEntity
  8
0
100
AcDbPolyline
 70
0
 90
13
 10
97530.7790000001
 20
107358.309
 10
97533.625
 20
107359.953
 10
97535.2649999997
 20
107359.514
 10
97536.4989999998
 20
107357.377
 10
97538.4299999997
 20
107358.494
 10
97538.7019999996
 20
107358.027
 10
97536.9210000001
 20
107356.991
 10
97537.7560000001
 20
107355.556
 10
97535.8140000002
 20
107354.427
 10
97536.1660000002
 20
107353.822
 10
97534.091
 20
107352.615
 10
97533.7390000001
 20
107353.22
 10
97530.7790000001
 20
107358.309
  0
LWPOLYLINE
  5
20050
100
AcDbEntity
  8
0
100
AcDbPolyline
 70
0
 90
10
 10
97533.625
 20
107359.953
 10
97534.6639999999
 20
107360.553
 10
97538.29
 20
107362.648
 10
97541.1270000003
 20
107357.768
 10
97539.4289999995
 20
107356.779
 10
97538.7019999996
 20
107358.027
 10
97538.4299999997
 20
107358.494
 10
97536.4989999998
 20
107357.377
 10
97535.2649999997
 20
107359.514
 10
97533.625
 20
107359.953
  0
LWPOLYLINE
  5
20051
100
AcDbEntity
  8
0
100
AcDbPolyline
 70
0
 90
9
 10
97534.9029999999
 20
107351.217
 10
97537.8059999999
 20
107352.905
 10
97537.2199999997
 20
107353.912
 10
97541.8150000004
 20
107356.586
 10
97542.267
 20
107355.808
 10
97538.7240000004
 20
107353.746
 10
97539.8130000001
 20
107351.874
 10
97535.858
 20
107349.574
 10
97534.9029999999
 20
107351.217
  0
LWPOLYLINE
  5
20052
100
AcDbEntity
  8
0
100
AcDbPolyline
 70
0
 90
14
 10
97535.858
 20
107349.574
 10
97539.8130000001
 20
107351.874
 10
97538.7240000004
 20
107353.746
 10
97542.267
 20
107355.808
 10
97542.6189999999
 20
107355.203
 10
97544.1629999997
 20
107352.548
 10
97544.9539999999
 20
107351.188
 10
97541.2599999998
 20
107349.042
 10
97540.3975
 20
107348.54
 10
97541.7829999998
 20
107346.158
 10
97538.8399999999
 20
107344.447
 10
97537.4560000002
 20
107346.827
 10
97536.8480000002
 20
107347.873
 10
97535.858
 20
107349.574
  0
LWPOLYLINE
  5
20053
100
AcDbEntity
  8
0
100
AcDbPolyline
 70
0
 90
13
 10
97538.8399999999
 20
107344.447
 10
97541.7829999998
 20
107346.158
 10
97544.7450000001
 20
107341.063
 10
97547.3629999999
 20
107336.561
 10
97551.9189999998
 20
107339.21
 10
97552.3710000003
 20
107338.432
 10
97552.1979999999
 20
107338.331
 10
97547.8760000002
 20
107335.818
 10
97547.8150000004
 20
107335.783
 10
97544.8729999997
 20
107334.072
 10
97541.8030000003
 20
107339.352
 10
97540.8389999997
 20
107341.009
 10
97538.8399999999
 20
107344.447
  0
LWPOLYLINE
  5
20054
100
AcDbEntity
  8
0
100
AcDbPolyline
 70
0
 90
6
 10
97545.6090000002
 20
107341.565
 10
97544.7450000001
 20
107341.063
 10
97541.7829999998
 20
107346.158
 10
97540.3975
 20
107348.54
 10
97541.2599999998
 20
107349.042
 10
97545.6090000002
 20
107341.565
  0
LWPOLYLINE
  5
20055
100
AcDbEntity
  8
0
100
AcDbPolyline
 70
0
 90
7
 10
97544.7450000001
 20
107341.063
 10
97545.6090000002
 20
107341.565
 10
97549.301
 20
107343.711
 10
97549.7920000004
 20
107342.867
 10
97551.9189999998
 20
107339.21
 10
97547.3629999999
 20
107336.561
 10
97544.7450000001
 20
107341.063
  0
LWPOLYLINE
  5
20056
100
AcDbEntity
  8
0
100
AcDbPolyline
 70
0
 90
16
 10
97487.085
 20
107396.593
 10
97491.648
 20
107399.229
 10
97492.3250000002
 20
107399.621
 10
97495.8509999998
 20
107393.52
 10
97498.5999999996
 20
107395.12
 10
97498.3540000003
 20
107395.495
 10
97499.2829999998
 20
107396.035
 10
97500.6560000004
 20
107393.658
 10
97499.7759999996
 20
107393.149
 10
97496.9939999999
 20
107391.541
 10
97496.665
 20
107392.11
 10
97495.9879999999
 20
107391.719
 10
97494.7019999996
 20
107390.975
 10
97492
 20
107395.649
 10
97488.7300000004
 20
107393.746
 10
97487.085
 20
107396.593
  0
LWPOLYLINE
  5
20057
100
AcDbEntity
  8
0
100
AcDbPolyline
 70
0
 90
16
 10
97488.7300000004
 20
107393.746
 10
97492
 20
107395.649
 10
97494.7019999996
 20
107390.975
 10
97495.9879999999
 20
107391.719
 10
97496.665
 20
107392.11
 10
97496.9939999999
 20
107391.541
 10
97499.7759999996
 20
107393.149
 10
97500.6560000004
 20
107393.658
 10
97502.7400000002
 20
107390.052
 10
97500.1390000004
 20
107388.56
 10
97496.2680000002
 20
107386.34
 10
97496.1380000003
 20
107386.265
 10
97494.1859999998
 20
107385.146
 10
97493.8200000003
 20
107384.936
 10
97491.4249999998
 20
107389.081
 10
97488.7300000004
 20
107393.746
  0
LWPOLYLINE
  5
20058
100
AcDbEntity
  8
0
100
AcDbPolyline
 70
0
 90
5
 10
97544.5269999998
 20
107422.375
 10
97544.7609999999
 20
107422.511
 10
97546.1639999999
 20
107420.086
 10
97545.9299999997
 20
107419.951
 10
97544.5269999998
 20
107422.375
  0
LWPOLYLINE
  5
20059
100
AcDbEntity
  8
0
100
AcDbPolyline
 70
0
 90
17
 10
97533.3320000004
 20
107423.316
 10
97538.3459999999
 20
107426.213
 10
97539.6689999998
 20
107426.977
 10
97540.4000000004
 20
107427.4
 10
97546.3229999999
 20
107425.823
 10
97546.9239999996
 20
107424.772
 10
97542.8200000003
 20
107422.389
 10
97542.4220000003
 20
107422.159
 10
97540.6279999996
 20
107421.116
 10
97540.8799999999
 20
107420.621
 10
97541.0029999996
 20
107420.38
 10
97540.7029999997
 20
107420.207
 10
97540.0290000001
 20
107419.817
 10
97538.3430000003
 20
107418.842
 10
97536.5250000004
 20
107417.792
 10
97536.3899999997
 20
107418.025
 10
97533.3320000004
 20
107423.316
  0
LWPOLYLINE
  5
2005A
100
AcDbEntity
  8
0
100
AcDbPolyline
 70
0
 90
14
 10
97540.6279999996
 20
107421.116
 10
97542.4220000003
 20
107422.159
 10
97542.8200000003
 20
107422.389
 10
97542.8959999997
 20
107422.258
 10
97543.7359999996
 20
107422.744
 10
97544.0949999997
 20
107422.124
 10
97544.5269999998
 20
107422.375
 10
97545.9299999997
 20
107419.951
 10
97546.5310000004
 20
107418.912
 10
97542.7089999998
 20
107416.694
 10
97540.7029999997
 20
107420.207
 10
97541.0029999996
 20
107420.38
 10
97540.8799999999
 20
107420.621
 10
97540.6279999996
 20
107421.116
  0
LWPOLYLINE
  5
2005B
100
AcDbEntity
  8
0
100
AcDbPolyline
 70
0
 90
15
 10
97542.8200000003
 20
107422.389
 10
97546.9239999996
 20
107424.772
 10
97547.2549999999
 20
107424.191
 10
97549.2400000002
 20
107420.717
 10
97549.3389999997
 20
107420.543
 10
97546.9630000005
 20
107419.163
 10
97546.5310000004
 20
107418.912
 10
97545.9299999997
 20
107419.951
 10
97546.1639999999
 20
107420.086
 10
97544.7609999999
 20
107422.511
 10
97544.5269999998
 20
107422.375
 10
97544.0949999997
 20
107422.124
 10
97543.7359999996
 20
107422.744
 10
97542.8959999997
 20
107422.258
 10
97542.8200000003
 20
107422.389
  0
ENDSEC
  0
SECTION
  2
OBJECTS
  0
DICTIONARY
  5
C
330
0
100
AcDbDictionary
281
     1
  3
ACAD_GROUP
350
D
  3
ACAD_LAYOUT
350
1A
  3
ACAD_MLEADERSTYLE
350
43
  3
ACAD_PLOTSETTINGS
350
19
  3
ACAD_PLOTSTYLENAME
350
E
  3
ACAD_TABLESTYLE
350
42
  0
DICTIONARY
  5
D
102
{ACAD_REACTORS
330
C
102
}
330
C
100
AcDbDictionary
281
     1
  0
DICTIONARY
  5
1A
102
{ACAD_REACTORS
330
C
102
}
330
C
100
AcDbDictionary
281
     1
  3
Layout1
350
1E
  3
Model
350
22
  0
DICTIONARY
  5
43
102
{ACAD_REACTORS
330
C
102
}
330
C
100
AcDbDictionary
281
     1
  0
DICTIONARY
  5
19
102
{ACAD_REACTORS
330
C
102
}
330
C
100
AcDbDictionary
281
     1
  0
ACDBDICTIONARYWDFLT
  5
E
102
{ACAD_REACTORS
330
C
102
}
330
C
100
AcDbDictionary
281
     1
  3
Normal
350
F
100
AcDbDictionaryWithDefault
340
F
  0
DICTIONARY
  5
42
102
{ACAD_REACTORS
330
C
102
}
330
C
100
AcDbDictionary
281
     1
  0
LAYOUT
  5
1E
102
{ACAD_REACTORS
330
1A
102
}
330
1A
100
AcDbPlotSettings
  1

  2
none_device
  4

  6

 40
0.0
 41
0.0
 42
0.0
 43
0.0
 44
0.0
 45
0.0
 46
0.0
 47
0.0
 48
0.0
 49
0.0
140
0.0
141
0.0
142
1.0
143
1.0
 70
   688
 72
     0
 73
     0
 74
     5
  7

 75
    16
 76
     0
 77
     2
 78
   300
147
1.0
148
0.0
149
0.0
100
AcDbLayout
  1
Layout1
 70
     1
 71
     1
 10
0.0
 20
0.0
 11
12.0
 21
9.0
 12
0.0
 22
0.0
 32
0.0
 14
1.000000000000000E+20
 24
1.000000000000000E+20
 34
1.000000000000000E+20
 15
-1.000000000000000E+20
 25
-1.000000000000000E+20
 35
-1.000000000000000E+20
146
0.0
 13
0.0
 23
0.0
 33
0.0
 16
1.0
 26
0.0
 36
0.0
 17
0.0
 27
1.0
 37
0.0
 76
     0
330
1B
  0
LAYOUT
  5
22
102
{ACAD_REACTORS
330
1A
102
}
330
1A
100
AcDbPlotSettings
  1

  2
none_device
  4

  6

 40
0.0
 41
0.0
 42
0.0
 43
0.0
 44
0.0
 45
0.0
 46
0.0
 47
0.0
 48
0.0
 49
0.0
140
0.0
141
0.0
142
1.0
143
1.0
 70
  1712
 72
     0
 73
     0
 74
     0
  7

 75
     0
 76
     0
 77
     2
 78
   300
147
1.0
148
0.0
149
0.0
100
AcDbLayout
  1
Model
 70
     1
 71
     0
 10
0.0
 20
0.0
 11
12.0
 21
9.0
 12
0.0
 22
0.0
 32
0.0
 14
30.0
 24
49.75
 34
0.0
 15
130.5
 25
163.1318914119703
 35
0.0
146
0.0
 13
0.0
 23
0.0
 33
0.0
 16
1.0
 26
0.0
 36
0.0
 17
0.0
 27
1.0
 37
0.0
 76
     0
330
1F
331
29
  0
ENDSEC
  0
EOF
